<mxfile host="app.diagrams.net" modified="2022-10-27T00:48:07.595Z" agent="5.0 (Windows NT 10.0; Win64; x64) AppleWebKit/537.36 (KHTML, like Gecko) Chrome/106.0.0.0 Safari/537.36" etag="Wtk3wAVGSi1i0k_5Ignq" version="20.4.0" type="github">
  <diagram id="4l5HT_-BRRlzi_1pZavZ" name="Page-1">
    <mxGraphModel dx="1117" dy="1769" grid="0" gridSize="10" guides="1" tooltips="1" connect="1" arrows="1" fold="1" page="1" pageScale="1" pageWidth="850" pageHeight="1100" math="0" shadow="0">
      <root>
        <mxCell id="0" />
        <mxCell id="1" parent="0" />
        <mxCell id="gJPRVUOe0gSRwMYvaWkU-5" value="" style="rounded=0;whiteSpace=wrap;html=1;fillColor=#dae8fc;strokeColor=#6c8ebf;" parent="1" vertex="1">
          <mxGeometry x="320" y="-340" width="580" height="345" as="geometry" />
        </mxCell>
        <mxCell id="x5AFQbBCbiZZIcITxB0g-16" value="" style="rounded=1;arcSize=10;dashed=1;fillColor=#f8cecc;dashPattern=8 3 1 3;strokeWidth=1;strokeColor=#b85450;" vertex="1" parent="1">
          <mxGeometry x="449" y="-136" width="280" height="100" as="geometry" />
        </mxCell>
        <mxCell id="gJPRVUOe0gSRwMYvaWkU-1" value="" style="shape=image;verticalLabelPosition=bottom;labelBackgroundColor=default;verticalAlign=top;aspect=fixed;imageAspect=0;image=data:image/png,iVBORw0KGgoAAAANSUhEUgAAA0cAAAO5CAYAAADSIl7qAAAAAXNSR0IArs4c6QAAAARnQU1BAACxjwv8YQUAAAAJcEhZcwAAFxEAABcRAcom8z8AAP+lSURBVHhe7J0FeFzXtbbd9t7C7W1v4d6/lKRNUkqTpmnDzJw4icOJY3acmGPGmOOYmZmZSWZmkFGyJVmSxcySSTPfv789cxxVGcmSLBjZ3/tkPSOdOfvQzLHOm7X32jUghBBCCCGEEAKSIyGEEEIIIYQwSI6EEEIIIYQQwiA5EkIIIYQQQgiD5EgIIYQQQgghDJIjIYQQQgghhDBIjoQQQgghhBDCIDkSQgghhBBCCIPkSAghhBBCCCEMkiMhhBBCCCGEMEiOhBBCCCGEEMIgORJCCCGEEEIIg+RICCGEEEIIIQySIyGEEEIIIYQwSI6EEEIIIYQQwiA5EkIIIYQQQgiD5EgIIYQQQgghDJIjIYQQQgghhDBIjoQQ4gbC5XIhJiYGx44dw65du3DgwAGEh4fj/Pnz3jWEEEKIGxfJkRBCXMdcunQJeXl5yMrKQkpKCg4ePIhp06ahe/fuaNiwIZo3b45Ro0Zh27ZtiIyMREZGBnJycnDhwgXk5+d7tyKEEELcGEiOhBDiOiU2NhZbt27F9OnT0bt3b7Rq1Qp16tTBBx98gPfffx+vvfYaXn75Zbz77rv4+OOPrSx17tzZytLy5csRGBiI7Oxs79aEEEKI6x/JkRBCXEekpaXh+PHjWLZsGYYMHow2bdqgXr26qFXrLbz55puoW7euFaBhw4ZZCRo4cKDNIjVu3BjvvPOOXYfy9Nlnn9nlkyZNwvr167F7926cPHkS0dHRyM3N9e5NCCGEuL6QHAkhxHWC2+3Gzp070a5dOzz33HN46qmnULt2bXTs2BHjx4/Hxo0bERwcbMccJSUl2W52fGWGieOOjh49igULFqBPnz74/PPP8fbbb+PFF1/EK6+8YrfTqVMnux12waMkOV3vOI5JCCGEuB6QHAkhxHUCRWXOnDl477338cEHH6Nrtx6YMXMOtmzdjrCwcFy4eNG7ZtGkp6fbYg3MFs2ePRtDhw61csVMErvksftdvXr1bBe9vn37YsKECVi9erUVK45rEkIIIaozkiMhhLhOYPGFyZMno0mTzzF12iwEn4lAcmo2MrLOIzMrDzm5F3D+wiVcupxvRMoFl8sNt7dtUTArxMzS9u3bbRe7rl272q557H7HMUscr8QsE8c0UabY/Y5yFRYWhvj4eHXBE0IIUa2QHAkhxHWCI0eff94Ms2bPx9nwGKSm5yItIw9JKZlITM5AQlI6ksxrano2soww5eZdwIWLl67aNY6Sk5CQgLNnz9oxTey+N3PmTPTq1ctmlShJ7H5HYWKGiRJFmWIXPMoVu/wJIYQQ/o7kSAghrhMoR1OmTDGy0hRTps7EyVOhiI1PRVxCOqJjk21ExXheuTwh0YiSkabUtCxkZuUgJ+c8cs9Tli7j8mWOJSpeaNgFj93pVq1ahYkTJ9qxSi1btkT9+vVt9ztKUpMmTa4UgKBMsbse5YpthRBCCH9DciSEENcJRclRvJGgmLiUq0ZcghGm5AykpWd7uuHlXcBFI0rsgldc5ofvMfN08eJFxMXF2S54HItEKfrkk0/w+uuv25LhLPDALnj9+vXD/PnzsX//ftv9jpml1NRUOx+TEEIIUZVIjoQQ4jqhtHIUHcvwZJKc4HJKUnximqcLXkqGJ7OUmYvc3PO4cOGSlaXiYBc8VrM7deoU9u7di4CAANvF7ssvv7SZJJYKpzC99dZbdm4lLmd3QM7JRLkSQgghqgrJkRBCXCdca+bIiYKyZLvhxSUjPiHNI0rpHlHKzjmPvPMX7XglTxe84oUpMzPDdsFbunQpRo4caSvgffrpp/joo4+sLLHIQ/PmzW3XvKlTp9r1mIEKCgqyczcJIYQQlYHkSAghrhPKS44KBrNLBX+PjWek2mBmKSU1E5lZuchhVukqhR1s17sLF5Cbm2NkKdN2p2O2aMyYMejQoYMdp8SiDi+88AJq1aqFZs2aYcCAAViyZAkCAwNt9TuKUk5Oju3CJ4QQQpQ3kiMhhLhOqAg5ciKa4WSTnIySefVsP81WwnOKO2RkGlnK+aZseHH1ws+fP4+IiAgcOnTITlLLSWhHjBhhJ5xt3LixzSy988479rVFixZ2bqUZM2bYKnisnieEEEKUJ5IjIYS4TqhIOSoqviVNXmGiLH0jSuyCd8kWd2AXvHwXCzx4D9oH2dnZdq6kRYsWYciQIWjdurWtfEdJYnASWi7je4sXL7YV8FjcISQkxBZ2EEIIIcqK5EgIIa4TqkKOnChY3MFZxn2zuENcQpotG56ckon0jBw7Xun8+YtWlIri8uXLVpIoOyzSwKp2lKBRo0ahXbt2qF27tq2A9/zzz9vCDhyvNGjQICxbtgwnT560pcKZleI1yc8vej9CCCFEQSRHQghxnVCVclQ4HFGyGaUYT0aJy1nYITHJI0pOZsmRpYuXLhc7txJlh5PQ7tmzBytWrLAV7r766iu0adMGDRo0sMLE7neNGjWyBR8oS3PmzMGOHTtUBU8IIUSJkBwJIcR1gj/JUXFRMMvE42NWKSU1C+kZ2Veq4F26lG9LhruK639nYNlwTiq7cOFCW7yBRRxY/a5mzZp48803bRe89u3b24zT8uXLrVidOHHCjnNicYerVdkTQghxYyE5EkKI64TqKEdONTynC56dX4ld8FLZBc8jS+cvGFm6Shc8dqNj9Tt2v2PJ8JUrV2L48OFo27atnYj21VdftV3wOGapZcuWGDx4sO2CFxwcjAsXLni3JIQQ4kZHciSEENcJ1UWOfIUjS1cq4ZlllCUWdmC58DQjSiwZ7mSWWNyhuMloWeqbXfA4V5JTAY+TzXJsEudUYhc8T2GHVvjqq34YM3oU1q5do+53QghxgyM5EkKI64TqLEclDRZ3YMlwZpWysvOQ580qcazSVXrg2TmWOKns4sWLMGjgQDRt2hRvvVULzzzzLB548GEjS/WxadMmex2FEELcmEiOhBDiOuF6lKNvut99EwW74CUme4o7MLOUlZ2L3LwL5jpc9l6Rb+M2BsWxRlHnzuHAwUNYsHg5evUbjGdfrIlnnn8ZkydPQXJykndtIYQQNxqSIyGEuE4orRxRNDyZmCwjGZmINT/7Ws/fouCYpW8mo01BQlKaR5TSjShlGVHK9XbBM7LE4M9ZOefteKbI6CQcC4rEtj0nMGN+AD6u3xIvvFILo0aPQXT0Oe8VFUIIcaMhORJCXLcwS3AjUVo54ntRMUmIOBdvBYOClJKWY+Qh24hGhhGndLuOr7b+HpSl+IRUbxe8HJtZOheTiIOBp7F83Q5MnLkSg8fOx6AxC9Bv2Cx81OALvPVuHUyYOBkxMdHeKyqEEOJGQ3IkhLhu4CB8dplKSEiwER8fj+TkZFvu+UagNHLE5ZShE2addQGbsWPnfitIGVkXkZF90QoS32dmqboI0r9llLyvPPaERE9G7MiJEMxftgkDRs5Gz0FT0b3/JPQaPN38PA0f1v8Cb79fHxMnTZUcCSHEDYzkSAhRreHEoOfOncO+ffuwatUqzJs3DzNnzrQxY8YMzJ49G0uWLMHWrVtx+vRpW/K5IuG8OTk5OVbKKGiZmZnedyqe0sgRl6Vnnse2HfvQ+ot2+OSTeujarQcGDhqG2XMWYtfugwg+E2HLaufk5SM7Nx9pGXlXskqx8dWjCx7PP9a8RkYlYM/BExg/Yzm6fjURXw6Ygj5DpqP/iNn29cP6rVDr3U+MHE2RHAkhxA2M5EgIUW2heBw6dAiTJ09GmzZt7Hw2nAD0ww8/vBLO702aNMGgQYOwfv16Ox9OeU7+yW1xrhwKEefN2bVrl51nx5GyM2fOICkpCXl5ecjPL3q+nmulNHJEwcnMvojNW3fhw49q45Zbfo9f//o3+NWvfoUHH3oYrVq1xdhxkxCwfguOnwxBWHg0zkbE2m54Nhtj2ickZ9pXbt9fM0w8pjgT56ITsffQSUyatRJffj0ZPQZO9crRHI8c1WuBWu98ZORI3eqEEOJGRnIkhKiWUEQoOj179kSdOnVQs2ZNO8nnc889hxdeeOFKOMtefvllvP/+++ahv5XNKIWGhtrJQ68VduU7deoUli5daicd7d27Nzp16mT3wzl1OnTogF69emHIkCGYO3cujh07ZiWmIiiNHDmFGE4Fh2HO3EVo174T3qr1Du67734rSb/4xS/x57/8FY88+hhef/0NtGzdBqNGT8CqNRtw9Hiw3WZmziUjWJeQmp5rt+VrP1UdBeVo3+FTmDx7FXoMmGK71UmOhBBCFEZyJISodmRkZCAgIADt2rXDq6++aiWIcvTGG2/gzTff9Bl875VXXrHrchJQZpvCw8PLXLSBYhUTE2MzQ5xgtHHjxnjttdfw0ksvWRHjcTG4TwoalzOzxezVli1bbJe78qY0csTgmBxmflLScm1maMvW3Zg6bRaafNYMDz/8KP75z3vx5z//Bb/5zW9x511/x9PPPIe33nrHdsMbOmwU5i9Ygg0bt2H/gUCcDon0CJORJWakHGGq6i54kiMhhBClQXIkhKhWsGva3r170aVLFysjFBG+FidGTrz++utWWF588UU0aNAACxYssN3dykJYWJgVLGaH2HWPckYRYnAfPCYnnOXc/zvvvGPk5TM7Ford+8qTssiRk0FiFzl2mQs9G4XAY0HYvnMf1qzdhEmTpqNjp66o/UldPPzIo/jVr35tM0u33nobHnnkMXz0UW07Vmmy2R/bsOudZ9tJ9pXb5/6dcLrfMQoeS0WF5EgIIURpkBwJIaoVHNPD7Aslg93lKCVvvfWWTxkqKihHlJUvvvgCGzZssF3jSoMjRo0aNbLbYlCCfO2rYFCOmEVi9optZ82ahaioKO9Wr53SylHBoLSwOh0zPiy+cN5cElauOxeVgAOHjmHFqgCMHjMB7Tt0Qt16Dcw5v4xHH30cDzzwIO69917869778IJZVq9+I3z5ZW8jGdOwdv1mO16J2aPs3Mv/VtSBx1QZgiQ5EkIIURokR0KIagMlZvny5bZ7GuWGYuRLQq4WbEdR4evAgQNt97iSFGjgOiwVPmfOHJt5cjJRJclaOcF1uV92s6MgMXuVmJjo3cO1cS1yxOC6TlCWCmZ9KDhOee9TwWexZu1GjDKy1KZtB7z5Vi384x/34A9/+ANuuukm+/PLL71iRanbl70wacp0rF6zAbv2HETg0SCbnYoz26QopWWct3MrJSZ7xixx376Oraxhz8WE5EgIIURJkBwJIaoFHOPDMUIjR460gkG58CUfJQ0ni8PsEavLsfz21WAZ8M2bN6Njx45XusuVRdCc4+cr979x48ZyqWJ3rXJUOBxJohix6x1lJj3zgv2ZpbFZzIFZpc1bd2Lh4uUYNnwUWrRsjXfeeQ+PP/YE/vKXO4ws3WzHLT351DOoV68hevf5CrPnLsT+g0dttz7KFrfvSJgjZQzu/1plSXIkhBCiNEiOhBDVguzsbFvIgJXgKCQUE1/iUdKgHLE7HAspcG6kuLg4756KJiQkBF9//TXeffddmzHiNnxtuyRBMXLOgVXuoqOjr7l6XnnLUVFBcaHUpKTn2q537C7HIgyRUfHYvfcQFi5ahqHDRhrxa49ab7+Lxx5/Avfe94CJ+/HgAw/hkUcfx9tGoJq3aI2vBwyxsrRl224rW9xu7nm3DWaVPF3wWNShbJIkORJCCFEaJEdCiGoBCyewiAHnK6JYlGSMT3HhCBa76LHaXFBQkHdPvqG4UM4+/fRTK1U8Bl/bLU041exat26NNWvWIDU11bu3slFZcsTgdlmFjqJUMOvjSAxfmV06cvQUli5fg8FDR6JZ81Z46aVXbUbpdzfdZAs73HPPv8x1qIlGjT9D/68HY978Jdi0ZScOHj6BU0FhCI+MtdtNTs1Banqe7YKXkJT5b/sqLriO5EgIIURJkRwJIaoFzOyMGzfOygzF5lqyNgxHsN577z10794dBw4c8O7p27DLW2RkpC3CwMp0LKjga5ulDZ4Hj4GZqL59++L06dPePZaNypSjwmElxJtRSjYCk555HhlZF2zmJ+JcPI6dOI0du/Zj5aoATJ02G7379kf9Bo3xes037RilX/7yf+1EtHfeeRfuv/9BfFy7LgYOGoolS1fiSOApxJttc5vs2ufMqSQ5EkIIUd5IjoQQ1QLK0ejRo/Hxxx+XmxxxG2+//Tbat2+P3bt3e/f0bS5cuGCzRp07d7brX2uXvoLB46BssXvfzp07yzzvEqlKOSoqHGFixofjlbJyL9u5kChM240szZ6zAF26folatd7BM88+bzNJN998M/56xx149LHH8fzzL9qxSp06d0MfI1Q8rx079+FkUCjCwmPsPoqTJMmREEKI0iA5EkJUCypKjlgSnAUW9uzZ493Tt+F4pxkzZqB27dpX2vnaZlmC22NJcm6bXesoOGXFH+TIkRFmehLMfhOS0pHIgg7MKKVk2XAyP1yfXe84NxLHG+3cfRBz5y22EtSocRM76SznU+IktP/v//0Kv/jFL3H33f9Ay1Zf2PUCjwXbog7FnZ/kSAghRGmQHAkhqgWcMJWV6j766KNylSN2aevWrRv279/v3dO3ycjIwNChQ23GqLSlu68W3Bar5vG8Fi5ciMzMTO9eS48/yFFcQqqVomRmi1KzkFogUlIyrSjxeBiUpJS0XGTlXEJOXr79mRmlwKOnsHHzdsydvwTDRoxBhw6dzef0Pu5/4CH87Gc/xy233IK27Tpi3/5Au09OYFv4OJyQHAkhhCgNkiMhRLUgISHBjvnh/ELlIUfcBkWHmShOKnvixAnvnr4NS3j3798fzz77bLl2qWNQjljg4cMPP8SkSZPs2Kaydq2rbDnitik7aWk5RiBzkZGWhcS4JISGhOPAoePYsusgNmzfZ2PTjgPYvvcIAo8Hm3OMQWpyOjLTPe0oURQqdsGL95YNZyU8dr/juKWz4THYvHWXHavUqNFneL3mGxg4aBiOHj9tj4NtCh+bE5IjIYQQpUFyJISoFjB7s27dOjs+yBEbX7JR0qBcca4hjvWZO3euLaVdFJQjlvBm97fyliMGj+P999/HsGHDrKSVtaR3ZcmR7TaXaETGyEx0bJIt4R0eGYeQs9HYfyQIC9Zuw4Api9FhyDS0/HoCWvafgDaDJqP76NmYsGANNhlpOnU6HGcj4mymiF3ruF0eJ+c8coKSxIIO/DkqJsmOMTp24oytZMdzY1t7TOZ4Ch5fwZAcCSGEKA2SIyFEtYAP/qGhoRgyZIgVI2ZbfIlGSYNV4pgJatWqlZ0ENi8vz7unb1ORcsTMEeWIVfA4pooV68o6IWxFyxHH9/A1OSUTmZl5VpC27TmMMTMWoOfo6Wg/ehY+G7UQ741YhreHrULtkWtRd8QafDJ8DeqYn+uNWovPxqxGm3HL0XH0AnQeMRO9x8zEzGUbcOTUWbvd9PQcJBjpKrhfZpQoSqnpucjOvWznQOLPPLeC6/kKyZEQQojSIDkSQlQbKDAcl0ORoFAwg+RLOK4WTuaJosMS2hEREd49+IZyNGDAgAqTI6dbHcUmKirKL7vVUTBS2N3NCExIaCR27AvEoo270WnyUjzfZRTuaTEQd7Yegb92m42/Dd6IF6YfR4tV59AtIBZd1sWi49pofLEiHI1mHEatoWvxTOcpeKzlMDz7xVA0+no6RswPwIrNexB4/Azizb5S07JtV7vY+G+OgedSMAoeX1HB9SRHQgghSorkSAhRrWDhhC+//NIWUqColKU4glNU4bPPPsOiRYuuWgSBXfrY5Y37Y8apLPssKrgtlvJmQQZOcpuYmOjda+kpqxwxM+OEL/FwlqWmZiM6JglzV25C417D8WrnYXjwq0X4++hd+Oe4fXhk4j48Pv0InpxzCu8uD0fnzbEYsjMRw3cmYah5HbQtHn3WR6HTijNoPu8oGs88hLrTDuH9ERvwRvdJeKvdQPSdOB+HToYhyUgYu+1RbGILHEtpg8ctORJCCFFSJEdCiGpFSkoKAgICbHc4Zo8oOiXNIFFEONaImRrKyMSJE23W6Grd2FjKe+bMmXYCWmcbvrZfluD2mJGqU6cO1q5di9zcXO9eS09p5cgpg23nH8q5ZF85HxHH+DiCxOxNYnIGImKSsXP/cYydswK1B87E/V/OwD96zce9Y3fjkUWReHZlHF5bFYM3Vkej5spzeH91JFqsP4d+22Iwenc8JuxJwDgTY3YnYtSeZBMpGLI7DT22puDT+UF4edBa3NdlNl7sNQPdxi/AwrVbcfhEqNl/ms1YOcdT2pAcCSGEKA2SIyFEtYOV61hE4fPPP8dbb71lJYlZHUoLRYlB6WDwZy53utEx80PJGThwII4ePerdYvFwEtjt27fbkt+1atXCyy+/7FN0yhI8Rm6vRYsWOHz4sHePZaM0cmSlISHdFjk4cPAYdu89hCNHg3A6JNK+bydtzchDqnk9ey4Ba3YeQecxc/F8h+H451fL8Mic03h+STheXfZNvGbidft61ryexbsrwvH5ukgjQDEYujPOiFE8xu5OwOhdCRixKx4DdsSj86YYNFtzDrWXReK5eRG4Y9BW/LXVKNTsMhwj5q7GvsBgxJnj8VSzK70gSY6EEEKUBsmREKLa4XK5rCAtWbLESgUFiIJB8SkoSE5wmSNGnGyV8yWxKlxxRRgKwjFALLHNUtusKsducJQaX7JTmuCx8Zg43ojlxMPCwrx7LBulkSN2oUsz8rNr9wF06fIl6tdvhK7de2Di5OnYuWu/rQ6XnpGLiOgkLN+yD60GTcJTncfggSHr8NjsU3hh+Tm8tjIKr6+ItCJEIXKi4O9vLQ9H/TWR6Lo5GsONII02UjRwexy6bI5B0wAjRasj8P6qSNQy23py0TncPP4kftRzPX7VegJe6TwC/SYtwK6DJ2wGKSm56JLdRYXkSAghRGmQHAkhqi0UJHZFGzFiBDp27IhGjRrZ7nLvvPOOFQ9mlVi8oV69emjWrBl69+5tx/WcOnWq1EUPzp8/j02bNqFJkyZXikFciyDx2ChsnACWXQQ3bNhgCz9cC6WRI6c73U4jRy1btcGjjz2O++9/EI88+rg5tnfwRdv2GDJ8NPoOn4iPOw3Ew0374l+95uG5BSF4e30iPlp7DnXXRaLB+nOobyTnE/Pz+6vC8dYKZo+MGC09i1fN60vm9Y3lZ9FobSS6bIpGdyNFLddHWSmiOL26LMyu96pZ77lFobhr9ln8Yvxp/EevzfjflhPwTNvBGDJ9CQ6dCPEcN8dFFTqX4kJyJIQQojRIjoQQ1RoKQWxsrO32Nm3aNFvqmxJEWWI3OFaZGzt2rM0yBQYG2uILZa0Gx8wOt08BYze9axl7RLlitouvw4cPt+dwrZQ2c8Ty2MFnIrBw8XJ06tzNnM8buPsf9+CWm2/Bzbfcgtv+/i/c8sgr+N0rjfD3ViPw/OhNeGfBSTQ2QtR2eyy6745H773x6LknHl12xaL11mgrS2+vDLdyxMwRxYey9I6RpjpGiBhvm5+dzJITXOcNI0vPLz6Lv888g5+OCcJ3jSD9tvVE1Ow2CmMXrMGpM5FIS8u2slP4fIoKyZEQQojSIDkSQlwXsGhCTEyMFRjOFcRuc8wQcW4kdolLSkqyY4euBXbD27lzJzp37mzlyKl650t+igtnnBF/btu2rc1IlXXi14KUdswRg93nKEi79hzEilXrMGPWXAwZNBQNG32G2x9+Ht+//zX87sMueKjrNLw1fCUaTtuGruuDMfhQEkYEpmDkEfN6JBnDDidh8MFEfLk7DvUCznnkyASlxwlmkN4wrxSmV7zy5LxX0wTliO8/uzAUt007g+8NO4bvGUH6TfPRqNd7NLbtP2q7+jF7VPh8igrJkRBCiNIgORJC+D0XL15Eamqq7UbHstplzfz4gttid7b4+PirlvQmaWlptvw3y4BzvFBp51tiG4oRu9Q1b94cy5cvR1xcnHfr10Zp5MgJvs/qdClpucjJy0feBRdCwqIwbOoC/PPjtvj5W21wb/vxeLHvXHwwcD5aT1qDQQFHMeFIPMYfT8OYY2kYeywV446lYPKJVIwwktRiSzTeNCJUUI4KZ4mKCqdb3r2zgvGzcUGoMfwEanRahb+1n4juU5ZZweE8SCUdfyQ5EkIIURokR0IIv4TltXNychAdHY1Dhw5h9erVdgLYjRs34uzZsyUuplAclC5mmtavX48FCxZg8+bNNsvEbVM0WPihMJQptmFpb45jovCwe13BYhDMDDkZJednLuc6zDZxvFHTpk3tNpjt8rWfslAWOWKwix3XycjIQ2bWeazdth8fdB6CX7/fGb9tMBBPdp+O1/oZORq8EG2nBWDQ6gMYuzsU4w4nYOzRFIwNTLavE46n2gxSy60xtmsdJadw9uhq8ebycJtFemTuGdw04aTNHtUYGIj/7LYGdzYdjAET5yLiXBwy0nN8nkvhkBwJIYQoDZIjIYTfQWlhWWvKA0tud+nSxRYtoFC0adMGo0aNst3bmEUqK5wvadu2bXa8D7fJTBBf+/XrZ8cuUZTCw8NtIYbC8PjOnTtnhc2ZkJYV7Dh/klMVz5EkvlKImGHifEZvv/22PZ8VK1bYbZSXGJGyyhGDcx6lG+HIyszFhAWr8ed3W+L7r7fDrc1G44Xes/FG/3l4Z9ACNJ2wBj0XbMOwgMMYtzMEE/ZFYPz+cxhzKN6KUc89Cfh0Y/Q3clRAfK4eYXjTxOtLQvHkvDP444Tj+OGgg/jO10dQo8M6/Of7fVCv91gcPhmClORv5mIqLiRHQgghSoPkSAjhN/DhnoUJKCZfffUVPv74Y9sFjeJB6WBQMliBrmfPnlYwgoKCbJc4XxJTmKysLJup4fxG7BrXtWtXvPfee3a7FJtnn30WTz75pM0AffHFF1Y0jh07VuS2uT1KGkuDc+xQgwYNbLEGyhKliMfObbH8NyvpUb647tatW233vPLmWuSI43jiE1JxPOgsWg2eiv96oQlqvNQGf2o+Gq/0nYtaAxZYQfpoyCI0Hb8SXWZvRL8luzBwxV4MWLkPfVcfQcd1QWiyLhwfrI7Am07Vum8JUBGxNAxvLDqNWguC8Ob8U3h2xgn8ddQh/KTvTvxH9634XptV+F7DCXi803hMXLoeQafPIjGJcx8VP/5IciSEEKI0SI6EEH4Bu9GFhIRg6tSptlw2u55RMBwpYjbGCQoHBaRhw4a2Ih3LczPTxDFJLLrAbRUMyk1UVJTNFE2ePNkWVGB5b07oym05+2A43d7q1q1r16OAMctUFNw25WzPnj0208XqeDwmZrk42SzPpU+fPpg1axb2799vj7E8ugT6oszd6sw6aanZCDoTgeEzluDBT3ujxittUeP1Lrjt8xF4qc9s1Bq4AK9/NdcK0ruDFqDOiKX4dOxKNJ24Bs0mrUGTCWtQe+o21Jp/DDWN6Ly+3CNHJQp2pVsSirfmncK7s4/inZmBeHbiQfxl0E78T/dN+EGn9fh+x/X4z/Zr8Jum4/Bh9xEI2LYX6WnZRpCKH3skORJCCFEaJEdCiCqH43iY0WF3NkoJ5/5hUI4KFjNwwsnKMKPE39kljuW72d2OcjB9+vR/Cy5j9zl2Z6NQsbsb2zILxeDPFCWOIWLGisexbNkyO4fSyZMnS1TljpLEbnLHjx+3ErRlyxasWbPGVqKjuFHOKC8VSVnliFmjrMw87D1yCnW7DsLPXmtuxKgrarzZA79tOBhPdJuKmkaMag5chNeGrsRrQ5bjjcFLUWvEarw9YTPembIDtabuRM1pe/DK7EC8uuhMqeXIZo4WnsY7C4JQa85xPDFuH27rtwU/7bIeP+y4Dj/suhk/7LYN/1F3FO5t+CXmr96KbHPMScmZPs/JCcmREEKI0iA5EkJUORw7RBGhnFCKmB1yChoUFQULHTD7wyiYXfIVXIfrO22YJeK2GjdujL59+9qCDxQZdpcrCOWIy0rSda+scB8sQMHxTGXlWuQoN+cCdhw4jpebfYnvPNUANWoaOXqrJ/6ndn/8vfUYPN9jGt4cthI1p+7B61P34rUJ2/AaX+ccw2uLQvDasnC8tsRIkZGb15eElE6OvFFzuacgw0vzg/GPMQfwf7224MeUo04B+FHXTfhhl02o8clo/Ll+b0xdsRXp6dlXrVonORJCCFEaJEdCiCqH2Zn+/fvbrnKlLY1NQaL4sEsc23LskK9gpoky5IgUg93n2rdvj6VLl9oufRwHVFhOuIzCtGHDBhw4cKDYLnZlxdkHu/1xjBPLlpelXPm1yFFe7gVs2XcMjzc2UvRYPY8c1eqJH7zXBzc1HoxHO45HzRFr8MaCk1ZkXlsYbKTotBGiUI8YLY+wr68vDbVZoMLic7Ww8xytCMfLZhsPzT6N3404hB/22IIfdt6A/zJy9F9dNuJHJmo0nGKOZygGzl2P8MgYO06K8uPrvBiSIyGEEKVBciSEqFKYMWHVNxYzoLxcLWN0rcHtU6RYJIGV6bZv347k5GTv0XhglujIkSO2WxzHKDGr1KFDB1sEguObgoODy6XKHM+dMsRt8lhYIILd+ig4LC/OyWxzc3O9a1+dssiRfd/IUWZaJlZt2Yv76ndBjUcbeuTo7V74bq0e+PGHffHnZiPw9OCVeH3xabyxLg6vr4rC6ysiv50hKkPGiJPDMmP02rIwPDo/BLdNPoUfDz6E7/XYjh902YAfU44oSUaOvtN8EX7ZdBIaDpiOgE07cC4q3nx+RXetkxwJIYQoDZIjIUSVwewIixlMmjTJjvlhhseX0JRXMCNFAXPEiPMnFYSFEjgha0BAgBUiChtLbzvd95ihYpGFMWPGWKnh5LGXL1/2ti45zE6x7b59+/D111/bCncFuwgyo8VxVKxsR3ljBb+SjHsqixzZOY4SUhFzLgbTlwTgjtqdUeOJz1DjjW5Wjvj6nbd74mefjsZfvw7AE3NO4dVl4XhjaaiVmppGatgdzpf0FBc2U2TaOfHykjA8PPcMbp9yCv8z6hj+Y9Bh/Eef3fhh1434ccd1Ro7WW0H6bvt1+GnLuXim1UCMnTIboWHnkJaeY87T9/lJjoQQQpQGyZEQosqgJLCsNgWBclDRcuR0v+vevbvtxlZwDBGzRyyeMGzYMDv2ieXCKVLsqscueU63PS5jiXHOb8SJY5ndKY0gMRMUGBhoK9uxGh73w+0X3AevA0WJ0sT5nUaPHm2LPFxNkMoiRwnmPcpDcFAIhkxbjNs+6oIaT7dAjTe7GznqiRo1ze/v9MZ3m8/CTwbuxe2TTuLx6UdRc3Yg3lwSgjdWRFg5ouz4kiBfwXU944s8GaMXF4fivlmncfOEE/jxiKP43pBA1BgciO/132fkaFMBOVqP73XejJ+0XYZHWgzEsPHTEBIaKTkSQghRbkiOhBBVRmZmpu1Sx/l/KC8Uj8JCU17hbJviw306QsNXZotWrVqFTp062QwWi0JwfV9jn7iM1e0oWp9//rmtgrdy5UpbyptjpyIiIszDdYzN9jC4bS5jFTvOicSiDyz3zayUI2tF7YeSxGNhposCyX0UNz9SmeSIcwWZdQKPnkTvcXNxy0fdUOP5Nh45esvEax09GaRms1Cj3x78eHggbhu5Dw+M24vHZ5/CM4vP4qUlYVZ43loRjlom+Oor7Hvebnds88yCUDw2LwR3TQ/Cr8Yexw+GGikadNjEEdQYchTfGXAQ3++5HT/qsuEbOeqyGT/tsBKPthmOYZNnS46EEEKUK5IjIUSVkZSUZLvU1alTx2aO2KWssCSUR3DbFJratWtjxowZiI7+5uGXx8CCDJz0letRVngc/Jnha3sUF+dYKVPMJLVs2dIKDMcozZkzB3PnzrUxf/58u4xzHXHOIxadYBtum9vxJUYM531HoD788EP06tULu3fvtnM3+eKa5CjwhJGjOfj9x44cfWkzRjXe8r42mYwaX24y4nIIPxp8AP87ZC9uHncUf54ajHtnncYT80PwwuIw2z2O8crSAuFdxnh+URgeM+v+a1Yw/jw5CL8ddwI/GXkU3x1ihIhSNNgJjyh9t/8+jyB123Qlc/TTDqvwSLvRGDZlHkLCziE9TXIkhBCifJAcCSGqDGZVhgwZYsf1UASKkpFrDW6b3dWYNeI4n4JywcILHTt2vNKlraSCxmOluDC7Q/FiOwoM51GiBHHMkBNcxuwP9/Hcc89d2U9Jz5f7YRuK1cSJE+04LV/V7K5Fjk4eD8KASQtw68ddUeOZFqhRqxdqNBhnYjRqfDIUNVrNQ41+u72ZHSMtgw7i+0OP2G5wPxt1DL8xknPrpJP469Qg3Dk9GHfPCMY9Mz3Bn++cFoS/mPe4zq/GnrBt/mv4Ufwns0WUISdjdEWOvGEFaT++32sHftR1I77XaRN+2nEVHuswDiOmL/DKUTZifZwbQ3IkhBCiNEiOhBBVBrufMaPidGGrCDnidikiTte0s2fPevfumV9p8eLFdmzPM888U+b9s52T5eG5UIIKBpeVRoZ8BbdDQWLVPBZpyM7O9p7FN5RWjqJjk5GYnIm09FzExyRiyuIA/KV2F9R44nPU+GggarRfjhpd1qJG28Wo0WOzkRUjMnY8kCMuHnmpMdCE+f0/jOj8yMjST0Yew89GH8MvRh+38bNRx/HfZvmPjAxxHduObYoSosJh1vveV3vxw26b8N126/A/7Zfipe6TMWXBSoSFRyM1VXIkhBCifJAcCSGqjMjISDvO59lnny1xxqa0QWFhtGjRAosWLbpStpuZF1acGzx4sM3IMAN0LfLiCBLPw1dcq/w54lW3bl2MGzcOUVFR9jwKUpbMESPKiENcdDzmrdyMv3/c0VOtrsFY1Oi11SNDAw8aQTlkRKWAGF0RlwLhXfYdxpAC4V1WXJviw8gRizN034IaLZfhf1vPRr3B87B28y5byjtJpbyFEEKUE5IjIUSVwfmC2rZta7M2FAhfUnCtQaFgsLocK76xXDdhIQbOY8RqcBwDRPnw1d5fwpEvZpB4zVj8oTClkSOW8E5KyULgsSDMnrMAC+bOw9BxU/H391qixjPNUKPxRNTouxM1Rp5CjeEnUWPoUR/S4iMKio+v8NXmKvEdI2eUo//sbY6n+QLc3HIies9ci6CgUMTFJSM+oWj5kxwJIYQoDZIjIUSVwElUDxw4gNatW9txOBUlR063tv79+9uy287krZSkadOm2VLaTmbHV3t/CgrS008/jfr16/sszFAaOeKytIw87Nx9AO3ad8IH776Ll958F//38Guo8UQj1Kg/BjV6b0ONYSds5Thf0lIpMSQQ3+G4o4Emvj6I77SYg7taDMO0lVuRkpiKpKQ0e46Fz88JyZEQQojSIDkSQlQJnO9n8+bNaN68uS1XXVFywvmDKEeDBg2yJbUdUlNTMXTo0CvzC/lq629BOWIXRE5Eu2zZMjuRbEFKmzlKTc/F4cCT+Kr/QLxoBPWWP/4V/3n7vajx0IeeMUc9NpUua1RRYeToO0OOGVE6hu+3noUnW32NJQHbkJGWbeQo41vnVjAkR0IIIUqD5EgIUSUkJibaYgiffvrplUlPfQnBtQaLGFCARo0adUUmmD1iYYbevXvbSnPVSY54rVhAYvz48QgLC7uSCSOlkSMuTzBiwYIGW7buxMTxk9D8iw546K26+NnTdVCjVg/U6LwWNUacMnJkxMSXtFRkcJ4jI0X/2X8PftRnK75vXmsMOYH/7rgAb3UYiLUbt5vPMweJkiMhhBDliORICFElMIszdepU1KtXzwpMRcoRxxNxX45InD9/3nbp69Kly5XMkq+2/haUIx4vK+999dVXOHjw4JXJbElZCzLEJ6QhLS0Hp0OjMHbuSjxWvxNqvNoWNb5YbOQoqJLkiJXwjnr25X39j6/34n+6r8Mvuq7ED3tuxHf7bMffei9Gt7FzsO9AIFJSMosdb8SQHAkhhCgNkiMhRJUQEhJisx+cAJYP/BUhR5QJis97772HefPmefcMIwJpWLdunZ34lVkjfy/GUDB4Pu+88w66du2Kbdu24eLFi96zKpsc8X2W887IvIDs7IsIjYhFh4Hj8T+vNUeNprNQYxi71VWWHDG8cjT4MH7cezN+1WEBftZ9Lb7bcxN+9sU01B06F5v3HUNMdIKVOh6/r/NyQnIkhBCiNEiOhBBVQmhoKCZMmGBLU1eUHDmFFho0aGDH6DhwEtUFCxagadOm1U6OeKycNLdNmzZW8C5cuOA9q7Jnjhic84jd1LIyczFnyRo82qQHftZyGr779X6PtPgq433N4REidp/7fv/d+GmP9fhZt7X4Sc8N+B8jRP+v42ITi/D9vrtQo9cW3Pb5QPQdO8OKTlZmns/zKBySIyGEEKVBciSEqBKCgoLsOCAWF6gIOWLWiCLBMt0s171hwwbvnj3zK02aNAkNGza0mZiKqpRXEcFj5bnx2BcuXGi7CDpcixwxOH4nKSkdu/cfxZfj5uH+zpPwgy4rPBO2Dj3hQ26uNbxyNPgwftR3G37dfj7+0GIyft9yKm5rNgG/bzUNP+++BjW6b8ZPOyzAa93HYs7SNYg2opOWlu3zHAqH5EgIIURpkBwJIaqEvXv3onv37nYCVgpKRcgRs0Icn9OzZ0+7PwfOrzRgwABb2IACVRFZq4oKR/r4yslgc3JyvGd17XJkRSLBhPl58+7DqNd7DH7ZYjxqfH0ANYYH+ZCbaw2PHLEb3fcG7MdPv1yHm9rMxB8/H42/NRyMW1tOwc+7rcF3m0zA3Z99hdHz1iDs7DnE23NK83kOhUNyJIQQojRIjoQQVQIzOZ999pktmMDy1Cznzcpx5RXc3lNPPYW33nrLFi84cuSId8/A8ePH7aSwHLtTXeY4KhjMtHFuKJYidya1JdcqRzbM+hkZuYiOisfcZetQs+cE/KTDfNTou9sIEivXecYD+ZadkoYRIo5j8o5l+u6gw1aOftxrE37Tbi7+9Nlo3NlkBH7/+Tj8v8/G4h9NB6Lr8Kk4GRSG83mXkGDOh90AfR5/oZAcCSGEKA2SIyFElbB9+3Z07NjRTsJKSWHRBGZ5yiu4PYoExxuNHTvWduNzoChx33yfYsQsTEH58PdgRozyN2TIEGRmZnrPqpzkyATnQEpmiWwjILNWbMBzHYbhx0Zaagw4hG8KJhjB+Zb0lDzYlY5C9KO+2/HfRoo4xujX7Rfg1haT8WcjR39qPAK/frc7fvtKE9TrNhibdh8xx5WCtPQcJKVk2mP0deyFQ3IkhBCiNEiOhBBVAufoWblyJaZPn24f6KdNm1buMXHiRFulbv/+/XbSV4fdu3fb+ZWYtapuYsRgN0TOd9SnTx9b2MIp583X8pAjZmUSTZvMjDyEhkVi/MLVeLbzKPyo9XRPF7sRpz2S5EN6ipUm24XuCL438AB+0nM9ft1uPm76YiZuNtvlOKPbm03AX5qNx58+G4Nfv9MVP374Xfz2oZdQv2UHrFgVgBMnz1gpysy5aCew5bn5Ov6CITkSQghRGiRHQogqgd3BkpOTbeW4uLi4ComYmBg72Sz35Xa7vXv2ZK0+/vhjPPPMM9VWjih23bp1w+HDh23GiOTn55eLHDFiTVAqklOzcSY8BpPmr8Ar3cbgF50X4rs9NqFG/70eQRp2wptJKihCnnFEV7rODT3uCa47+DD+u/dmK0V3NBqKvzUchDs+HYG/NBmJ2xsNw811vsbv3v8St7/RDHe+8B7uefplPPXiK/jgg4/QsuUXGDhoGBYsWoYDB48hPDLec6zFSJLkSAghRGmQHAkhqhRKS0WGL7Zu3WrliGOdqrMcca4jTgTrzHVUnnLkBNsmJqUjKioe89duQ63uo3B7y5H4+Zcr8J3+ezwyNMgjRCzJ/R9f78P3THxn4CHbdY7LPMGudIH4Qd+d+FWHRbi96Tj82UjRnxsPwx8bD8ftDYfg1k/64Za3O+Cud1uhdts+6Np3ED5v3hrPPf8C/vznv+DXv/4NfnfTTXj66WcxYtQ4nCjB+UmOhBBClAbJkRDihiIrK8vOecRKdRy340s+/D0oRyzK0K5dO2zZsuXKuCOXy1XucsRgAYTsrPOIiozFkjWb0GbkTDzRdQJ+1WIsftBmNr7Te6snizTwCP67xyb8ousqW2Xuf3oE4H+7rsSvOy4ysRi/6rQUv20zF7c2n2hiEn7beib+r/lU/Lz21/i/mm3wl3fb4K12A/D1xHkI2Lwbe/Ydwrq1GzBx4lR0/7I3GjVugmefex4vvPgyBg8ZjqPHTyMm3iNwvo6bITkSQghRGiRHQogbCnbjmzFjhi0Ewap2vuTD34OlvFmUoXnz5liyZIntOkgqSo4YsUZCUlKykJCQhu37j2PQtIVo1GcUnus2Fn/ptRA/7bkWPzLy8/Nmk/F/n47Cz5tOwE9bzMAvP5+IXzcYjl/XH4bfNBiKm+oNxM11++N3jYbhty0m4dY2U/HPVsPxasu++KznMMxYvgHh5+LteKeEpAwbSdyveQ0JO4fVa9Zjsjm3tes24nRIBKLjkostziA5EkIIURokR0KIGwqORWKxBla0Y+aI3eqqWzhyxFLoLDjBcyIVKUcMZpCSkzOtaASdCceBIycxZ+0OfDF6Pl7oNAL3NOmDvzTshZsb9ccvm47Gf7eYiv9qNgU/bjIeP2k8Br9sMhI3NR6IPzXohbvqd8Njzfrio17jMHjOGmzcfQSHj5/BmbBoJCVnIDU1G4lmXxQjFl9IM7LE8U+RUfEIPhOB0LAoexy+jrNgSI6EEEKUBsmREOKGgfJw9uxZjBo1ys5v9Nhjj1lBqm7BQhKcw6levXqYOXMmYmNjr5xfRcpRtPeVksS5kLKz8hARGYvN2/dh5oIVGDFtPr6athhdp69E88lrUHvMSrw9bClqDVmCD4YvQeMJK9Fu2hr0nLECA8x6Y2cvtd30jp8KQWZGDvJyLyI5JdMes695jJghSkzOQkpajhUnrld4ncIhORJCCFEaJEdCiBsGlro+c+YMJk2aZEt5f/jhh6hfv361izp16qB27dro0KGD7VbHroKkLHLked/TfY3rlUY4KCt8jY0zIhObZOdFijavkVEJOBkcjh37jyJg2z6s37oX23YfxOFjQQgJi0YUMz7edfkax3FD3JaJq+2f7zvh6/3C4Ryr5EgIIURJkBwJIW4YWM0tISHBznu0YsUKLFq0CEuXLq2WsXjxYqxduxaBgYHIyMi4cn5lkSOKETMxfHUEpaTyEZeQ6u0Gl4X0tBwT2UhPzUSyWR4bHYeoCCNDJmLPxSIxLhGpSenmfbNueg7SzLrMFDET5Wvb5RGSIyGEEKVBciSEuGFgae8LFy7YinVpaWl2Yli+Vtfg8VOMnFLenO+opHLkLD8Teg679x40ccj+zDE+2bmXkZl9yY7z4e8lzSgVDM/206z4MLiNkmSGyju4P8mREEKIkiI5EkKI64TSyBFFhWN3Dhw6hqHDRqJzly8xZuxErA3YhENHTiDo9FmEhccgKibRrusUR+BrSUWH7xcOX+tVZHCfkiMhhBAlRXIkhBDXCaWRIy5LzzyPPfsO44s27XHPPf/EH//0Zzzw4EN486230a59J0yYOBUbNm7DyeAwJKV6MkoZWReuFESgIBXerr+F5EgIIURpkBwJIcR1QmkzRyyNffzkGYybMAWf1KmHhx9+FH/+819w2+1/xL333Y/nnn8RH3zwEVp/0Q5Dh43C/AVLELB+C/buP2K74CWnZCHLdsG7eE1d8CoyJEdCCCFKg+RICCGuE0ojR444UBooOidOhWDr9t0YP3EK2nfojA8/qo0HH3oEt/z+9/jNb36LP/7pT3jiyadQ+5O66Nylu93+zl37TdsInI2Itdth+W1KFws7ONXvnO53VSVMkiMhhBClQXIkhBDXCaWVI0dmUtPzkHcBNgMUFh5tizMsW7EWY8dNQrfuvdCocRO8+urrePTRx3Hf/Q/grr/fjX/84x48+9zzqF27jpWliZOmYdOWXQg9G2273uWed5vXi0hJz63SjJLkSAghRGmQHAkhxHVCaeXICa5jJcKIEtfleCJ2uUs1YpOQlIlTwWFYuToAQ4eORKvWbfHGm7Vw77334dZbb8PNN9+CvxtZeuGFl9CwURP07N3P7pvr79i5D4HHgm1hB26XXe84zonbrSxhkhwJIYQoDZIjIYS4TiirHBUMp1sc5SUlLddmfvh7xLl4nAoKs5XsWMRh1er1GDFyHJo1b43XX38TDzzwEG7/4x/xu9/dhNtv+yOeeuoZNDHH8fWAIZg3f4nNRoWejboiYU7w2OIY5me+V96yJDkSQghRGiRHQghxnVAecuQr4hLSrSwx88P5j85fBLJyLtmxRtt37seceYswZOgIW7jh7Xfew+OPP4n773sA95n417/us2OXXn2tpjmuZujXfyCmz5iLzVt22rFO7ILn2d5l272vvDNKkiMhhBClQXIkhBDXCRUlRwxux4pGgawPpYnB7TMiziXg4OHjWLp8DQYOHIZGjZrg6aefxV/v+BtuvuX3uO22220VvBdfegWNGn+GrwcMxeIlK7Btx17sP3gUJ4PCEGm2EZ+YYbveMdi9z5lbqSzCJDkSQghRGiRHQghxnVCRcuQr2B2O4sJ5j9IyztvMErvghZ+Lw7Hjp7Fj1347qeyceQsxYNAwNGveCq++9gbuuedfuPnm3+MWI0wcr0RZatq0BYYNH43Vazbg6PFgs/1kK0bMJF1L5TvJkRBCiNIgORJCiOsER46aNm2OmbPm4UxIpBULhi9xKO9wRIzCxKwPu+DlXXDbLnjMKu3cfQAzZs5Dz1590bDhp3jllddsJunvf/+H7YL38COP4vkXXkbtT+rZSWg5t9KCRcuwfec+nDbnwmIOFy55quolGmkqiSRJjoQQQpQGyZEQQlwnUI4mTpyI+vUbYszYiQgMPGXlgJmdghmYWG8GxpdMXGtwu1ZIzD64L0fOmGXi+ywfHhmVgLMRMThw8CjmzF2EXr37oX6Dxnj0sSfw+z/caudVYhW8e++9H7XefhctW7fBsBGjsW79ZhwOPIkTp0Jte26r8P4Lh+RICCFEaZAcCSHEdQLlaNy4cXjzzbfQpk17LFq0HCdOhlgxYtaF3dRYmtsKUnzFCZKvoCw5GSUWYWA2idLGMt8HDx3Hhk3bMX/BUgwfOQYdOnZBnTr18dLLr+KBB1kF70+47fbbcf/9D6BmzTfRtVtPrF23yQqSI2O+9smQHAkhhCgNkiMhhLhOyM/Px8qVK9GsWTM0bNgI7dp1xICBQ8wD/3QsWrICW7btRuDRIIRHxNpsDscIeeYcojRlWIHxJRgVFY4wUZIobzl5+faYzoRGYuv2PZg6fTa6dOuB9z74CI8+9jjuuONOm1FikYfhI8bguBE/boeyV3jbTkiOhBBClAbJkRBCXEdERERg+fLlGDhwIFq1aoW6devh/Q8+RONPm6B3n68wecoMO0cR5yri5K5nw2OMOCTYLmqernAZiPeKEqMis0tWXOw+Pd3vmOGiLHEZjyc8Ms6ONWKBhs1bd2LK1Flo0bI1GjRs7Ok2eCzYric5EkIIUV5IjoQQ4jqCXeuSk5Nx6tQpbN++HatWrcKMGTMwZOhQdOvWHa1at8FnnzfF502bm997YPyEKVi9Zr0twU0ZYRaH3d746hGV8ptzqCTBfVF2WHCB8x6x+EJ27mU7GS274LE4Ayva7dx9EKFno60cFXd8kiMhhBClQXIkhBDXOexud/bsWaxevRqjRo9G165dbVapWbPmaNOmHb7s0QuDBw83YjANi5asxOYtu4wsnUDwmQgrHxQlZ86hb8YsVZYwfVPgwZNdyr5yHCU5BsmREEKI0iA5EkKIGwAKUnZWls0qxcTGIDIyEjt27MDECROtLDVq3Bgff/wJ6tSph7btOmLkyHFYtHiFLb9NSWKFOYrSFeHwdrtj8PeSiMq1hLNPChIzWiUVNNvOhORICCFESZAcCSHEDcrFixcREhKCbdu2YcnixZg2bRqGDh2KHj16okOHjmj9RVu0bNUG7Tt2weChI7Fw8XI7sWvw6XAjKql24tdvquBVfkGHkoTkSAghRGmQHAkhhLhCUlIS9uzZY0Wpd58+aNq0GerVb4Amn32Ozp27YdCgYZg02VP9btOWnbYMNws7cLwSsznsgueMV+LvTmbJl7hURkiOhBBClAbJkRBCiH8jNzcXCQkJCI8IR1BQkBGgQ1i4cBH69++PVq2/QN269VH7k7r4vGkL9Os3ADNnz8emzdtx4pSntLaTRSoYlBQnCgtMRYbkSAghRGmQHAkhhLgqHKu0d+9eLFmyBBMnTrTV79j9rmPHTmjfvqN57YJu3Xti4KBhmDFrHtZv3IbDgacQcS7edrtj9ztWn2O57sos6CA5EkIIURokR0IIIUqM2+2Cy+Wy2aXg4GAsW7YMgwYNQps2be2cSh/X/gTNW7RC335f2zLhCxevwEZ2vzvM7ndnbTnuqJgkb+U5z7xGFdn9TnIkhBCiNEiOhBBClIn8/MtITk5CaGgIAgMDsWvXLjsB7ZgxY9C1azc7XukTI0yctLVT524YO34yVq5ZjwOHjtkxSt+U5c74N0EqT0mSHAkhhCgNkiMhhBDlxuXLl3HmzBmsWbMakyZNsuOUunfvjnbt2qNd+w7o3LU7evXuZ6vfTZsxB6vWbMDefYdtufC4xDRbAS8tI+/fijpciyxJjoQQQpQGyZEQQohyhd3uWCY8Ly8POTk5iI+Pt+XCx48fj86du+DTT5vY7nf16jdEx05dMGLkGMxbsMRWvzt05CSCTofjbESsFRrKTXxShje75Cn0UBpZkhwJIYQoDZIjIYQQFU5WVhbCwsJw8OBBbN261Xa/mzBxIvr27Ye2bdvhs8+aon6DRmjRsrUt6jB/4VLs2LnfihKFKDU9FylpuaXOJkmOhBBClAbJkRBCiCqB5cJ37dqJ6dONpPT/Gu2MJLVo0RJftGmLzl2626IOw0eMtt3vVq4OwK49B3H8ZIitgJfkrYDnESZPBTxKVJnlqH5L1Hq3tuRICCFucCRHQgghqowLF84jIyPDlgpn97sTJ05g4cKF6NfvKzRv3hyffFIHH3/8CZo1b4mv+g/0lAnfsBWBx4Jt5bvIqHhb/Y4iRDmiJBUs7sDXouSo79AZ+HrkHPM6Ex81+AK13qtr5GiK5EgIIW5gJEdCCCEqhdOnT9t5kubPn49jx455l36buLg4HDp4EAEB67Bo0SI7r9JXX32FTp06o2WrL2yp8Jat2qBnr76YMnUWAjZsMbIUZAQoyWaSPBklT0EHO1bJCFJhOeo1eBr6DZuFQWMWGEGai48btsWb79bBhInKHAkhxI2M5EgIIUSlsGHDBrRs2RKNGze2kpSfn+99p3hY2OH48eNYvHgxBg8ajA4dOthtNGrUGG3btkfvvl9hxKixmD5zHlasCsCOXQdw9HgwQs9G24xSqhEldsM7eiocMxeuR+8hM9Fz0DR8+fUkdO4zFi07fo2nX3oXTz33CkaNHoPo6CjvnoUQQtxoSI6EEEJUCmWVI8Lqd2lpaYiNjUVERLjtfrc+IMDOqdSxU2c0aNQIH370sS3q0KXrlxg/YTJWrlqPfQcCER4Ri6jYZOw/HGQzR137TUDbbkPxeZveqN3wC7xeqzb+df+jeP6FlzFhwkS7DyGEEDcmkiMhhBCVwpYtW9C+fXs0a9bMVqsrjRz5ghmloKBTVrrmzJljxGYCBgwYYOSoG9q164A2bdqjQ8cu6NPvawweNhJ9vhqMJi064tVadfHsS2/jpdfexXsf1sXnTVugZ8/emDVrNg4fPmIr6wkhhLgxkRwJIYSoFMpbjnzBog6bNm3C2LFj0aVzFzRt2gwNGjbEe+9/gFdeq4lXa9bCm2+/jw8+YpGHFhgyZIidsDYmJsa7BSGEEDcykiMhhBCVwubNm9GuXbsKlSOSmZmJqKgoBAcH4+jRo1bKhgwdgiaffYbuX36JpUuX2vmWmHWKijqHjIx0b0shhBA3OpIjIYQQlUJlyZEvQkJCsHHjRhw6dAi5OTnepUIIIcS/IzkSQghRKVSlHBGXywW32+39TQghhPg2kiMhhBCVQlXLkRBCCHE1JEdCCCEqBcmREEIIf0dyJIQQolKQHAkhhPB3JEdCCCEqBcmREEIIf0dyJIQQolKQHAkhhPB3JEdCCCEqBcmREEIIf0dyJIQQolKQHAkhhPB3JEdCCCEqBcmREEIIf0dyJIQQolKQHAkhhPB3JEdCCCEqhS1btqB9+/aSIyGEEH6L5EgIIUSlIDkSQgjh70iOhBBCVArqVieEEMLfkRwJIYSoFCRHQggh/B3JkRBCiEpBciSEEMLfkRwJIYSoFCRHQggh/B3JkRBCiEpBciSEEMLfkRwJIYSoFCRHQggh/B3JkRBCiEpBciSEEMLfkRwJIYSoFCRHQggh/B3JkRBCiEpBciSEEMLfkRwJIYSoFLZs2YL27dtLjoQQQvgtkiMhhBCVguRICCGEvyM5EkIIUSmoW50QQgh/p0ZSUhLS09Nx/vx5uFwu7+Jv4LKsrCxwPUZycvKVn9kuLy/PZzu3243s7OwytcvJybmyfsF2aWlptl1Rf1Bzc3Pt+omJid9qx/dK2y41NbXYdjyWgu2ctmzHcyiqHa91SkrKt9pxWXHtLly4YLftqx2v9eXLl71r/jvFteNne+nSJe+a/87FixfttSvcjq/FteNyfsZs56zvvGZmZtrt+qIk7fj9KAzPu7h2PH9f7XidMzIyfLbj8uLacbu+2vE4+Pn6ane1e6ms92BR7XgM13IP+mpXWfdSwXbF3RNXa1fUPVHcPXi1e6ks7fjdrex70GnnrO+8FncPXu1eKuoe5OdTVDveS3yf7Zg5cuRo5cqVdnv8nIpqV9Q9yO/ttdyDhdsxrnYvFXcPFncvFXUPXu1eKu978Grtrod78Gr3UkXcg8XdS+V9D17t71JZ2/H90rYryT3o65642j1Y3L1U1D3I61xUO+Iv9+C13ktlaVcR91Jl34NcXtZ7sKh7gt9dnkdR1Dh8+DBCQkLswfm6gFwWFRUFrscIDAzEkSNHbJw5c8buxNcJ8UOMiYmx65WmHb/ccXFxdv2C7fjz6dOn7Yn5uhC8ceLj4+36hw4d+rd2wcHBSEhI8Hkh2I4X7ujRo99qFxQUZLdZ1AXkORw/fvxKOwbbnTp1yp4D/3HwBa/1iRMnvtXu5MmTiI2NLbIdvxzc9sGDB/+tHbcVHR1tb0hf8B84nouvdvxsedP5gl86XrvC7XjO586dszedr380uT1+xmzHa+m04zWOiIiwX8qi2vG7WFw7X//48R+G0NBQez0LtwsPD7fn76sdP9ezZ89+qx1fuZw3la9/jPj94/EUbOe88jh48/tqx+87rxv34eyH7RhlvQeLa8dzvpZ70Fc7514q6h7ke1zf+W4727javcT7uqh7sLh7qfA96LTjfcJ7id8NX/AzKuoe5DUr6l7iPch1SnsP8rtb3vdgZGRkkfcgl/Pfy8L3Etvxu8vt+mrH4y/qHuS9VNQ9yM+H331f7XgvOQ9KW7duvSJHq1evtvvj51vwXmI7voaFhdnrXdS9VJZ7kPcJ70G2c/bDdozi7iVuq7i/g/z+FnUvFXUP8vPh356i7qWy3IOkqHuwuL+DpKh78Gp/zyriHrza37Oi7sHi7iV+d4v6++n8PfPF1e7B4u6l4u7Bov4O8noVdQ86f5d83YP8XIu6B4u7l4r7O3it92BRf8943djO2Q/bMZy/S0X9PSvqHnSeDX3dg7zGvAeLalfUPUiKuweL+3vm6x5kXO3vWXH3YHHPhsXdgzz3ou5B5++Z047BdlxW3L3E72Bl3oNcXtZ7kN8pnh+vidOO19h5NvTVjtTYt2+fPVh+KEV9kbkRrsc4cOAA9u/fb4MXp6gvFm8mnizXK0073gD8h5HrF2zHn3kBi/pCOjcA19+7d++/teMFLOqLxXb8svKiF2537Ngxu82ivpA8B150px2D7XjheQ5FfSF5rflBFW7HD45frKLa8Q83t71nz55/a8dt8QtS1BeSNwDPxVc7frZFfSH5xeG1K9yO58x/TIv6QnJ7/IzZjtfSacdrzH80eWMV1Y7fxeLa+fqjwBuANw6vZ+F2/CPD8/fVjp8rb5zC7fjK5UU9YDl/hAq2c155HPyHylc7ft953bgPZz9sxyjrPVhcO57ztdyDvto591JR9yDf4/rOd9vZxtXuJd7XRd2Dxd1Lhe9Bpx3vE95LRT1g8TMq6h7kNSvqXuI9yHVKew/yu1ve9yAfXIq6B7mc/14WvpfYjt/dov4o8PiLugd5LxV1D/Lz4XffVzveS3yf7QrLEffHz7fgvcR2fOWDC693UfdSWe5B3ie8B9nO2Q/bMYq7l7it4v4O8vtb1L1U1D3Iz4d/e4q6l8pyD5Ki7sHi/g6Sou7Bq/09q4h78Gp/z4q6B4u7l/jdLervp/P3zBdXuweLu5eKuweL+jvI61XUPej8XfJ1D/JzLeoeLO5eKu7v4LXeg0X9PeN1YztnP2zHcP4uFfX3rKh70Hk29HUP8hrzHiyqXVH3ICnPe5Bxtb9nxd2DxT0bFncP8tyLugedv2dOOwbbcVlx9xK/g5V5D3J5We9Bfqd4frwmTjteY+fZ0Fc7UoPmzw+EJ+PrBuAyXkCux+CF5j9cDLbjQftqxy8yd8z1StOOB8oLyPULtuPP/BLTPH3dOGzHC+SrHb+ofK+o/6vAbZa2HeE58AvrtHO2wYdAnkNR7XiteYMUbsdlvGZFteMHzW3zy1e4Hb+svv5hILwxeC6+2vGzLeoG5z+avtrxnNmO7/v6YnF7/IzZjtfSacdXPnzwBi/Pdjxv/p8aruurHc/fVzteZ/6j4qsdl7Odrz9C/P5xuwXbOa88Dn6+vtpd7V4q6z1YVDue87Xcg77aOfdEed6DpLh7sLh7qfA96LTjfcJzL+qeuNo9WFQ752G+tPcgv7vlfQ/y4aOoe5DL+e9l4XuJ7fjdLaodj78s9yA/H373fbXjvcT32a5gt7pVq1bZ4+Dny3ULt+P2eL2Lupcq8x7ktoprx+9vae/Bq/09K8s9SMr7Hrza37OKuAev9vesqHuwuHuJ392i/n6yHb+LvuDystyDPP7i7sHi/p4VdQ86f5d8tSvuHizuXmK7ov4OXus96Oue4DJeN7Zz9sN2jKv9XSrqHnTupeLuweLaFXUvlec96LQr7l4q7h7kOZT3Pej8PXPaOfu+2r1Une5Bfqe4Lq+J046v/O4WdS+RGvwyMYpagfDGcNYrHP7Yjl/Ywu183dwOZW3HYymuXVHHqnb+0Y7w/fJsx7haO19tGNWlHd8rCqddUde0KHgsxbUr6ljVrnq181WQge+Xdn+kqHaMimrnqw2jrO34XlFca7uirmlR8ByKa1fUOaqdf7QjZW3H98uzHaOi2vlqwyhrO75XFNfarrTXlMvV7ttUdjuianVCCCEqhcJyxD9QQgghhD8hORJCCFEpqJS3EEIIf0dyJIQQolKQHAkhhPB3JEdCCCEqBcmREEIIf0dyJIQQolKQHAkhhPB3JEdCCCEqBcmREEIIf0dyJIQQolKQHAkhhPB3JEdCCCEqBcmREEIIf0dyJIQQolKQHAkhhPB3JEdCCCEqBcmREEIIf0dyJIQQolKQHAkhhPB3JEdCCCEqBcmREEIIf0dyJIQQolKQHAkhhPB3JEdCCCEqBcmREEIIf0dyJIQQolKQHAkhhPB3JEdCCCEqBcmREEIIf0dyJIQQolKQHAkhhPB3JEdCCCEqBcmREEIIf0dyJIQQolKQHAkhhPB3JEdCCCEqBcmREEIIf0dyJIQQolKQHAkhhPB3JEdCCCEqBcmREEIIf0dyJIQQolKQHAkhhPB3JEdCCCEqBcmREEIIf0dyJIQQotxwu924ePEizp8//y352bJlyxU5WrFihXepB5fLhby8PNuOPwshhBBVgeRICCFEuUExOnbsGAICAnD48GErOw7bt2+3ctS0aVOsXLnSuxS4fPkyjhw5ggULFtjsUnZ2tvcdIYQQonKRHAkhhCg3Lly4YKVoyJAhaN26NcaNG4f9+/cjKirKClO3bt2sILFbXUJCgl13ypQpNpvUtm1brFq1CllZWd6tCSGEEJWL5EgIIUS5wW51ubm5mDp1Ku644w785je/wWuvvYZBgwZhxIgRVoAoTaNGjcKECRPw7rvv4re//a2Nvn37Ij4+XmORhBBCVBmSIyGEEOXOjh078NRTT6FGjRr4/ve/j7vvvhtPPvkkHnroITz88MN47rnn7M///d//bdf54x//iIULF3pbCyGEEFWD5EgIIUS5Exsbi7Fjx+If//iHlR/Gd77zHRvf+973bDjLb7rpJnTo0AHBwcHe1kIIIUTVIDkSQghR7rBr3JkzZ/Dhhx9ekaCi4plnnsHWrVvteCUhhBCiKpEcCSGE8AkFx5blzsuzZbYZrCSXkZmJTBMcW8T3WJHuglmPVec45siB7QcPHozbbrvNdq0rLEXMHv3yl79Eq1atkJKS4m0lhBBCVB2SIyGEEHZuIcrNpUuXrOywYlxaWhqSkpIQFxdng13lIs+dQ9jZszgbHo7omBjPe/HxSEhMREpqKjJNO0rURbMdbotjj+rXr4+f//zn35KjH/3oR3jhhRdsCW9KmBBCCFHVSI6EEOIGh1LEjFCiESEKT3hEBELDwhASEoLTZ87YsUBB3jgVFIQTJ0/aOGV+53s2Tp/GGbN+aGiolSdKVHJKCpKSkzFp0iT8/ve//5Yc/eIXv8BXX31lBUsIIYTwByRHQghxA0Ihys3LQ0ZGBhITE63MUG5OnDqFo8eOIfDoURv8uWAcO378ShR+j8E2RwID7fsUrHSz/XXr1tlxRU5lOsYPfvAD3HfffVi/fr33iIQQQoiqR3IkhBA3EC632xY+SE1Ls1mikNBQnDRCdPzECRvHGAUEyIZ3ubNOwfC5vje4XXa/27Z9Ozp37oy/3XnnFTn6wx/+gDZt2tiiDUIIIYS/IDkSQogbBBZIYKYoxitF7CJHwXGyPhSa44wC8nOtQUHidlesXImaNWtekaPnn38eAQEBdnyTEEII4S9IjoQQ4jqHUsQudMnJyTaTQ2H5NyHyITXlGRyDxH21bdcO//u//4uf/vSn+PTTT+2YJnbvYwghhBD+gORICCGuY5xs0blz52xBBafLmxO+ZKa8w+m6N37CBLxVqxaeefZZ9O7Txy5jEYi09HRb2U4IIYSoaiRHQghxnULh4NiiiMjIK9kiFkzwJTAVGU6Fu02bN2PS5MkYMnQoFi5aZI+HRSCYWWIpcHWxE0IIUdVIjoQQ4jqDE7Gy6AK70VE8KCaVlSUqLihDBw4exO49e7D/wIF/OyaWAmdJb04sW3AiWSGEEKIykRwJIcR1BjMwsUY0KByOGPmDHPFYmMHiq7PMOTYGM0xR0dESJCGEEFWG5EgIIa4jLl68aLuoUYzYhc4fpKhg+BIkBo+Tx8v3oo0g5eXlec9ICCGEqDwkR0IIcR3ATAurvrErHcfxOMJRUECqQ7DrHQUpLj4eF1WkQQghRCUjORJCiOsAFl9ISU1FWFiYlYzqKEYMyhGPPfjMGZsBU5lvIYQQlYnkSAghqjtuN7Kzs+0cRhQLJ3zJR3UJShJLgLMMeb4ESQghRCUhORJCiGrOxQsXkJCQYAsaVEWp7ooIp3tdZGSkFT8hhBCiMpAcCSFENYaTvKakpNhxRtdDxsgJ51woSOpeJ4QQorKQHAkhRDXF5XYjJzfXTvJ6PYmRE8weMdhdMCMzEy6Xy3vm33DZyCHndMrNy0N2Tg6ysrJsMNvE33NMsLS55EoIIURJkBwJIUQ15YK3bPfpM2euSzmy52ReTwYFITomBheM5BBW5mPGjOW+09LTEZ+QYOdHoiSGhoXZCI+IQLj5nd3yOLlsWlqalSS20xxKQgghikJyJIQQ1RRmSMLOnr0iEoXl4nqJQG9xhszMTFy+dMmeN6Uw8tw5K0KUQ463OnHq1JU2nEeJv7NbHud8CjXtHVFiFoqSJIQQQhRGciSEENWQfJfLzml0PRVhKCqOmvMLMucZExODpKQkK0VBRngohE7p76uF00WP0sSsEsueszuer656QgghblwkR0IIUc1gtzCOp2FXMj7s86Hfl1RcL0G54StFMCg42GaDnOUFo2CbglF4PV4zFrCIjY21Y5MkSEIIIRwkR0IIUc3gwzwzKKfNA77z8F9YCK7HoAQyS+Zki3ytU5Jw2lO2KJgs2iBBEkIIQSRHQghRzbh06RKioqLsg/6NIkYVEZQkZqGivYKkQg1CCCEkR0IIUZ0wD/C5ubm2vDWzKJKjsgevnSNIsXFxdgySEEKIGxvJkRBCVCPyL19GamqqHTMjObr2sF31TLDiHbsqXtJ8SEIIcUMjORJCiGoE5/ZhloOFCa517I3im+B1ZFn0zKwsda8TQogbGMmREEJUI7Kys+1kp+wKJjEqv6BoskBDXHy8nSxWeiSEEDcmkiMhhKhGpGdk2AlR+UDvT3LEY2FQMpxgt7+SRsF2zrZ87aeiwtkfs0dp6emSIyGEuEGRHAkhRDWC442cLnWFH/ArKxx5KRhczvmDGMxqMZiJKRg8bicKv3fK28bZRnH7qajg9nksCYmJcKlrnRBC3JBIjoQQohqRkpJi5YHZFl8P+BUdjqQUzPRwOYUnNCwMEefO4VxUFGJiY5GQkIBEIxp8pXBQ7DIyMpCWlmaLH3CZE3FxcXbOoYiICISZ7bBAAmWJ23cySxUtSM4+eBwXL170XnEhhBA3EpIjIYSoJnCi0kQjFZUpR46QOILCZRQhdu1jOfFII0MxMTGINwJE+WFBA46Lys3Ls4Jx+fJl+8q5mQoWOuByLnOCZbSzc3KsPHE7lCcWnjhnts/9cH/BZr8898LCVPiYyxrcHiPcCFqOOQeWTRdCCHFjITkSQohqAiWDwuAIgq8H/PIKR4oKLmOXM0pKtJGhFCMw2UYgLlCA8vORb4LyRgFyorSwDbfB4PYYPGfO60Rhio2NtaIUfPo0TpprULj7XcFjLUs42+G4o/S0NLjM/oUQQtxYSI6EEKKawOwKu6tVtBxREJwsCru2sZtbdHS0zeZkZGZaWeF8QGURoLLCTNP5vDxkZWXZbnnMVLFqH0WJx2szSdcoSI4ccQ4pdgdkRksIIcSNheRICCGqCSwxzaxNRchRQSHi75QOZlDYZY5ZG86vxIyOv0BZoqg5kkShYWbLOQ++Fj7Hq4UjR+w2GGm2yfFdOTk5tosgrz1lyZ+ugRBCiPJHciSEENUAykB6erodD8MH+WvNkhQVzBSxsALn++HYoUsXL9rubZWZJSopFBVmsCguvDbMblHqeB5lkSMnKJ+snsdtOWOrWGSC2SR2JeT1EEIIcX0iORJCCD+GD/6cd4eywkpuVx7+Cz3QlzWYZWGXtJNBQVa84s1+KBrVbSJUihK7+yUlJ9siEcz+OJmwsogS5ZPXhcH2lMYzZ87YjBIr66Wmpdlsmj9KoxBCiLIjORJCCD+EmSJ26aKsMHvBbMa1ZEMKB7fF4HZZNpvlq9lNjfstK04hBXY/YyEFjpGiZF01zHpORTvuP99sp6zSwf0z48XCFbxuTle78rh2BbfDbnwc/8XqfDxuSZIQQlwfSI6EEMLP4MM2MyC2MluB8tXMZpTnQz7FgdkiVp7LM5JCKSkLlCJKTra3WALnNeLYKKcMNws6FBXswsdjsPMiJSYiOSUF6RkZNiuTX0ZR4/FQtlgWnMfhFG24lmybc80KZqN4/Tgui+OeOC5JgiSEENUfyZEQQvgRzLZwbAszE87DOF99PbCXNgpuj9tndiUzM7PUY2goH5QpZpooVjxeyg27s1EWThsZYTc07pP7OxIYWGxwHYoGM1ghXlni+CFKB4siXJGlUh4nZYVd7Tg3FI/LkczyuJ7chtPljvLFzFtZrqUQQgj/QnIkhBB+ArMv7EZ3JdNRDg/xTjjboyCEhobastzszlZSKBrs8sZjZEaGYsWsD6WG22QUtc+SROG2DG6T22f3OMqXMxaKx0FBKylcn+O2OGaLY5GYQSpqn6WNgsfP7fPaXEvXRCGEEFWL5EgIIfwAdgPjQH/78G4etpnhKPwgfi3B7Z04dcqWvWbXN3bdKykUkWyOf2LZbCMAlBUep5OJsXMMmVcnK1NQGEoaBds52wr0vvJ97o9Sx/1TlCg7pTkHTlTrjEVihsrZZ8FjKGs4x3zC/MyugsnJyfbzFEIIUf2QHAkhRBXDB2l2TWPGyOmq5eshvCzhPLgzA1Parl8XjXywdDUf9lnKOsgcn5UWrwyV5Di5TsFwxk0VDl9tnXDW4T4Z7LLHsUzx5prxfJhNKmkmiWODKHkUJLvNEuy/pGGviYmQkBB7zUojb0IIIfwDyZEQQlQhfIDmmJiK6ErH4PYoEyxMwPE3JSkaYMcUGYlwikJQrApur6jjLPheUevYLniFljGu1vbf3jO/czs8L6fLXVZWls0OXe38+K7TfdFmkHzsq6zB7TjSyC6HHI8lQRJCiOqF5EgIIaoISgjny+EDvvNg7euhu6zBbbI7WowRI5YFL4kYcRwSH+qZKaI8OF3nnIf+ovbjHD+7wjmZJWfMEMWPwfM8e/as7XrGghDOcs6xxPZsV7iLXnH7c7JsPEcWcWC1OwrgVTHXgedZuPCFr32VNgpui2LJMUjuUoyPEkIIUbVIjoQQogqgGPFBnmOA+EDtPFgXfNAua3A7DIoHx9hYYbiKGNn5gbzjiigx3E5RguIUNHAkhstOGUGhaFB8KCos400p4+S1LO3NYFczjndKNfLFrJSznMdIGWM7VpVzxImZoYL78XUsDOc9RwSduYeuRsHKgL62ey3BY6Ic8rw4XqskYiqEEKLqkRwJIUQVYLt2GTGgBDiCUV7hyALHGHE/V3swp6hRWignFAxug+19yUjBZU5miDLFbnsUHmcMEOWEVdtsGPFiUMC4L74ynOVch+uzHbvHsXw3i1Ow+AKvD/fja/8FlznLnfFIPBbKz9XgOhS4iijSwOD1Ybc/da8TQojqgeRICCGqAMqI06WrvB7IGc62KDnJqanevRUN5YBlvZnxKdiFztd2nW5vJ816XJ8P/Zy0lV3HmJ1iAYdr7UJGkXNEicUgmGWivFCUmJ1yjs/XNXOOkT/z2jIjxQp1FLKi4P54/BRDtvN17tcS7GZIedQcSEIIUT2QHAkhRCViH/4vX7aZEfswX84P49wmJYcP5JwXqDgoRhynU1z2ittz3rNZIiMdUVFRVlooMJUBZcnOrWRkjN3unGwSj41R1DHzeG23tmIEiZ8Hs1Xs3si25S1HznGwu1+JxkMJIYSoUiRHQghRiTB7kJGZaTMV9iHex8N9eQQFgt3TipICipHTra+447DyYcJmYoycUFLYtrKzIDwPljyn6HCcEqvBOWOSfB2zc04UE3YvpAD5gudB0eP2rpxvoe1dSzjb43XmmKvislhCCCGqHsmREEJUInzAZ3c0PrSX94O4E9wuMyvM8FAmCo45cpmfc3Jzr5SyZmbD13FwGSM4ONgWV6Bosbx3wW1VFZQzTgLL6+gUj3Aq1/k6B17rCHMOviaOZbEEnh/XKdi2PMOZSym6hGPAhBBCVB2SIyGEqETYtYpdw4qSkvIIRwqYrWChBFZvo1BQzJi1YiaFY5J87d9pS7litojd/3jMZc14UATYtnAwY8PXsooC21E0mI1hAQYni1TUOR0358PsENdnO14PjkeKMedHMSrv7nQFw5Ejp7S3xh4JIYT/IjkSQohKgjKQbh6OmbE5Ehjo80G6vMKRBEpQaGio7cYXGRlpBcHJWhUWCbvMSAJFg+uzuxmFqqwCY7vB5eRYIeP4p8JBUWA2iuuxYl1Z9sNMkJUcZuO8BRsKnpNzXrbboBEkXntKCoPXomB1vsLtyiuca819c4wXz1cIIYR/IjkSQohKgg/FdpyPeSB3qqpVdFAWnCpzVhKKyFg571GMIs+d82Q4jLCUFMqNrTBnZIjiw1LarDLHgggsdhBuZKRgUE5YgY6ZLTsXkpEGTj7LLBeFqbSlr9mGXQWdOYuKO0deiyPea+JLpso7uF8Gs3G8FrnmWIUQQvgnkiMhhKgkOP7Hjm8xAlIZD+VOOA/nThS1DjNKkUZmWHa6JFkcrsMuYpQiliaPZclt8/DvVJP7tzD7KBjcZ+F1mMVhl0NWduMYpxwjWqXJKFE+KWUch8Tt+TrXgtfB1/sVGZQxZo8ogEIIIfwTyZEQQlQCfMCnQNj5hMyDcmU/mBcVznFQTFgwgF3USjImhl0EORYpMSnJZprYdY9SxMyTk53ha5Fh9lvw94JZHB4LM0Ds2sdsEGWCklQSmHGiWFFCWCbdX64zIzAw0J4buytq3JEQQvgnkiMhhKgEKEfsNlZct6+qCDsWx7wy48Ny11fL0lCK2IWN50KZooTwXCg2fC3JeRW3jrMNR5YoEzw2TlTLzFtJJIkZJHbXu1Kkwcd+qiJ4ThRInsvlUnYbFEIIUTlIjoQQohKgdCSnpNiHYz4ol0QiKiOcSWiZoXFdJZvBbAcFyql2x65rbOsIjRPOtgsvvxJFvOernbOM+3OKRFxtPBKPk+sxS8e2jgBWdfBa8zwSVZRBCCH8FsmREEJUApQjTl5a1FiYqgpHjtg9rjgoJKlpaTaLw4wMsyAMX+fCZQW7yxVc1xlfxJ8LvldU5qngttiOFeZY1ILZq6JgdssZ38VtsG3BbVZV8Dg4ris2Ls4ef9lqAAohhKhIJEdCCFEJUI74UOw86Pt6eK6KcI6F2SAWVigMj/v8hQt2fiAWSyjYpmBYifHKDSWGGRJ2IWQbp0IdxyZxP+zyxp9t1TrzPgsoMKPmTMTqXCNfosTgtnkti5p/icfMohLMNDnbK7idqgoeB8WSFfw4tktyJIQQ/ofkSAghKgE+sFMKDh85YjMlvh6eqyIcAaHIsJw2J0ctCAWEIuKMlfIlLU7wwZ+SQ+FhxTl2bWPFuQsXL9pgVzJmoBj8mcvyzPY59xOzQRSn4irNMRxBokhRMihBhYsbcPvsJuhvXRh5HDw3ShvPmd8JIYQQ/oXkSAghKgE+CLNM9oGDByt8AtiyBB/aKSZxRoQoNexCx2wRBYSSwQf7wmJ0ZZn5mW1jY2NtOwoLpaqkFeaY/aGUUaQ4RxLFhlmlk0aAuH1GwWN19ksZYzc/Vqfj/ErcJzMyLHjA7ncF2/hDONeOosljlhwJIYT/ITkSQohKgA/CnPh0z969NntEGSn88OwP4XSHo+zwZy4rKETO7wyeA8UpnNXkjEj56pZXFihVnISWmSQei5NJ8nUcfOWxct0YI2fsrlewTcH1qzqcc2DWi+PPJEdCCOF/SI6EEKISYHaEcwHt2LkTBw8dslkPXw/QVRnOw3vB351xRIXXo3wwO8NCDrl5ebhUwixRSWFXOcoWM0nMDvmSHf5ul5n3KByUOX+8rgXDyYRR5HyNlxJCCFG1SI6EEKIS4IMwsyxbtm61Xev8+SH+inQUsZzH7pTVvniVstrXCq8bJ4Fl5TkKUFHH5UiHc4yF1/GXYJfKAwcOIMJcP00EK4QQ/ofkSAghKgE+5PPhOGD9euw3D8dOZbbqFI4YMZPDbm+V9XDP7mccj8RJZ53r5s8CVFSwEMe+/fuxa/duW7RCciSEEP6H5EgIISoBPggfOnwYK1auxN59+2wXMHYV8/UQ7W/hTNrqZIzY1a00D/aUG1aQY9EFVqlzqtaVdhssuMCxRSfM8TBL5OtY/TGcz5mf++YtW7DTyFGkEUx1qxNCCP9DciSEEJUARYDd6RYvWYIdu3ZZ0ahucnT6zBlbCa4kVei4DsciMcPEqnesQMdKeHy1kZBgt5VmRIuV5ihMxoC8rYuG658+fbpayZHzWbNL5YpVq2xRjsTERBVkEEIIP0RyJIQQlQCzBBxvsnjpUmzYtOlKxbrqIEgUI8oICzBQdtzFZDz4wM9CChyPxCwPhcqRA74WDlvtLiLCygK7zl0tm8RS3c5ktNWla53TFXDV6tWYN38+Dh06hKysLO8ZCSGE8CckR0IIUQlQGviQvGz5chs7d+26IgyFH6b9Lf5NjjIzi5Qjig3liWODWF6b58Zqdxxrw+A2Ap0osIzXgRLFUucsCc4ud0XB/Z8x264uYuQIMMeZzZ03D9NnzLDdAks6B5QQQojKRXIkhBCVAOUoNiYGGzdtwuw5c2wWgXJQXeSIQYFhd7jzFy54z+obOJ4oJTXVTt5KGaD0MHxtr3A48sXrwX0wi8QueYXH5FCauH8rXSXcdlUHx5YxYxgQEIDJkydbQeI1EkII4Z9IjoQQopJgQYFA86A8Y8YMzJg5E9t37LBiQJnw9WDtb8HjZEbIye5Q+JxudBxPRLHhOseMuDhC5Ws7vsJZn8EM27moKFvCm9ko7oNjkihf1alLHa8FRY5zW82ePRsTJ07Eho0bkZyS4v1GCCGE8DckR0IIUUnwIZ/z9cybNw8jRo7E4sWLbWlnykB1ECQKiSNInMSUksQsD0WGY4dstsgrOL7alyScDBKvCccicT8UL45fYre+6pBpY/D4GexOxyIcY8aMwaxZs3DUnFteXp73GyGEEMLfkBwJIUQlwjLYmzZtsg/L48ePx6pVq3DoyBH70F9dHvydLm3sMkYBcDI+hde7lnC2yXCEq7z3UVHhfJYHDx603Sf5OY80Mrx27Vpbqa80JcyFEEJULpIjIYSoRNg9LCQkxGaNmD2aNGkS1q1fb8elVBc5KiguDMpSeYtLwW07Ud77qIhgZo3CePDQIaxeswZTpkzBiBEjMHXqVBwxEqxCDEII4d9IjoQQohJh1zqWrN6/fz8mGjEaNmwYpk6bhgAjSCzvfSo4uFpJkq/lN2rYTJoJTva7bt06K0SDBg3C2LFjsXnzZjvfkxBCCP9GciSEEFVATEwM1gUE2C5XBQWJD9Z80Ha6ZlWHsUg3cvDzYTifFccYrVm7FtPM5zl8+HAMHTrUZgk51oxiLIQQwr+RHAkhRBXA7nVnz57FkiVLrByxix0zDRyjsmfPHhw/fvyKIPl6KFf4RzifEbNou3btwtKlS21XOooRP9c5c+bYCoUqwiCEENUDyZEQQlQRnBuI41MWLlyI4SNGYMiQIXYMEjMNGzduxN59++xDt1P4wMlO+HpIV1ROOFkifiYMfj78nDZs2ID58+dj3LhxGDx4sM0YzZw50xZl4MS4yhoJIUT1QHIkhBBVCAXphHnonjN3rs0eMdswatQom31YumwZtu3YYbvasbw1H8Sdh3NHlCRLFRPOtXWi4DXn58ACESy6wLmqli1fbid4HeHNFjFrxLLdzABqnJEQQlQvJEdCCFHFZGdn265XnP+ID9fMPLDC2YQJE2z2gV3v1m/YgD17917JJDEKCpITvh70FaUL51o6QsSsnZO9o6Tu2r3bjhdbtHixncyXk7uONJ/XwIEDrRixK92BAweQkpICl8vl/ZSFEEJUByRHQgjhB1CQmEFavny57VpHSWKlM3a145xIM2bMwJKlS60kMVux24jSgYMHbQnwghkl+yB/+rSilMFJbB3hpCBRgpixY4GF3Xv2YMfOndi8ZQvWrltnuz2ygMbo0aNt9zl+RkNNjB03DsuWLbMTvaalpXk/WSGEENUJyZEQQvgJly5dQmRkpB1vxGpnnDjU6abFrnaUpAkTJ2K6EaX5Cxfa4g0sEb3TPLgzq8QHeacLnqJ0wW5yFE0KJ2Vo27ZtVkRXrlqFBeZaOxkijini58DPxim6wJ/5uXCSVxbZYPEFjTESQojqieRICCH8CE4SmpCQYCcMXbFihS31PXjIENvVjhkK52GcD+kcl8Rud+zGNW/+fCxYsAALFy2ymQ1FKWPJEttNjtdw7rx5mDV7NqZPn27HEvFajzRyymvPTBGDnwcze5RWFtSgnMbGxNgqhEIIIaovkiMhhPBDzp8/j7CzZ7F161b78M0y36MKdONyRKlgMJOhKIcodF2HFbjmvP4UImaRKKUBAQE4efIksrKyvJ+cEEKI6ozkSAgh/BR2s+NYJHa14xw6zGqMnzDBPpyzYAOj4EP9vz3Q+2HwGJ1j9vW+v4RzPZ1rzEwdg9edmTxKEbszhoSEID093VYcFEIIcX0gORJCCD+H41dY+YwP44cPH8aOHTuwevVqW/570uTJthAAiwPwQZ5d8Fg1bcCAAfbVn8KRC76yW5qvdaoqeL3YTY5yNHrMGEycNMkWXZg9e7btdscMEQWV3R2Dg4MRHx9v5VUIIcT1heRICCGqGcwmnTt3zhZf2LptGwLWr7fFADhGieNmWBLcH4Py1rdvX5uF4VgpX+tUZXAS16VLl9prycp0O40MsUBDUFCQlSEWWhBCCHF9IzkSQohqCAs35OTkICMjw5aNTk1NRXJKCpKSkmxBB38LygXH63z44YdWko4dO+ZzvaqMxMREO2krr2W6ua6ZmZnINteY47/y8/O9V14IIcT1jORICCFEpcCudM8++6yVI4qIEEII4W9IjoQQQlQKHNPz4osv2m51cXFx3qVCCCGE/yA5EkIIUeG4XC5b9OCFF16wBRkkR0IIIfwRyZEQQogKp6AcsbIexyAJIYQQ/obkSAghRIVDOfr666/x/PPPY8yYMbYAghBCCOFvSI6EEEJUOJSj/v3747nnnsPYsWNVkEEIIYRfIjkSQghR4VCO+vXrh2eeeQbjxo2zJbOFEEIIf0NyJIQQosKhHHEC2Keffhrjx49HSkqK9x0hhBDCf5AcCSGEqHAoR3369MFTTz2FCRMm2IlrhRBCCH9DciSEEKLCoRz17t3bytHEiRORkZHhfUcIIYTwHyRHQgghKhzKUc+ePfHkk09i8uTJyMzM9L4jhBBC+A+SIyGEEBUO5ahHjx544oknMGXKFMmREEIIv0RyJIQQosLJz8/Hl19+iccff9zKUVZWlvcdIYQQwn+QHAkhhKhwKEfdunXDo48+iqlTpyI7O9v7jhBCCOE/SI6EEEJUOJSjrl274pFHHsG0adOQm5vrfUcIIYTwHyRHQgghKhzKUZcuXfDwww9j+vTpOH/+vPcdIYQQwn+QHAkhhKhwKEedO3fGQw89hBkzZuDixYved4QQQgj/QXIkhBCiwqEcderUCQ8++CBmzpwpORJCCOGXSI6EEEJUOJSjjh074oEHHsCsWbNw6dIl7ztCCCGE/yA5EkIIUeFQjjp06ID7778fs2fPxuXLl73vCCGEEP6D5EgIIUSFQzlq37497r33XitHnBRWCCGE8DckR0IIISocylHbtm3xr3/9C3PnzoXb7fa+I4QQQvgPkiMhhBAVDuWoTZs2+Oc//4l58+Z5lwohhBD+heRICCFEhUM5+uKLL6wczZ8/37tUCCGE8C8kR0IIISocylGrVq3wj3/8AwsWLPAuFUIIIfwLyZEQQogKh3LUsmVLyZEQQgi/RnIkhBCiwqEctWjRAnfffTcWLlzoXSqEEEL4F5IjIYQQFQ7lqFmzZvj73/+ORYsWeZcKIYQQ/oXkSAghRIXjyNFdd92FJUuWeJcKIYQQ/oXkSAghRIVDOWratCnuvPNOLF261LtUCCGE8C8kR0IIISocytHnn3+Ov/3tb1i2bJl3qRBCCOFfSI6EEEJUOJSjJk2a4I477sDy5cu9S4UQQgj/QnIkhBCiwrl8+TI+/fRT/PWvf8WKFSu8S4UQQgj/QnIkhBCiwrl48SIaN25s5WjlypXepUIIIYR/ITkSQghR4Zw/fx6NGjWy3epWr17tXSqEEEL4F5IjIYQQFU5ubi4aNGhg5Wjt2rXepUIIIYR/ITkSQghR4UiOhBBCVAckR0IIISqcnJwc1K9f35byXrdunXepEEII4V9IjoQQQlQ4WVlZqFu3rpWj9evXe5cKIYQQ/oXkSAghRIWTkZGBOnXq4M4778TGjRu9S4UQQgj/QnIkhBCiwklPT7dydNddd2HTpk3epUIIIYR/ITkSQghR4aSmplo5uvvuu7F582bvUiGEEMK/kBwJIYSocFJSUqwc3XPPPZIjIYQQfovkSAghRIWTnJxsCzL885//xJYtW7xLhRBCCP9CciSEEKLCSUxMtHJ07733So6EEEL4LZIjIYQQFU5CQoKVo/vvv19yJIQQwm+RHAkhhKhw4uLi7JijBx54AFu3bvUuFUIIIfwLyZEQQogKJyYmxsrRgw8+iG3btnmXCiGEEP6F5EgIIUSFEx0dbbvVPfzww5IjIYQQfovkSAghRIVz7tw5K0ePPPIItm/f7l0qhBBC+BeSIyGEEBVOZGSklaPHHntMciSEEMJvqXI5yssHks4D2Ze8C4QQQlx3REREWDl6/PHHsWPHDu9SIYQQwr+oUjnKuezG2hg3ega6MT/cjfQLbu87QgghrifOnj2LevXq4cknn8TOnTu9S4UQQgj/okrkKOcycDwdGHfahZc2unDLYr7mY3SwCzsT3YjOBVzyJCGEuG4IDQ21cvTUU09JjoQQQvgtVSJHCXnAvAg3Ptjuwp+W5uO3i1z43/n5+MuyfHxolo097cahFDfSLgKXXN5GQgghqi0hISG2W93TTz+NXbt2eZcKIYQQ/kWVyFG6kZ4jKcDKKDdGGxFqvNeN25fk43sz8/G7hfl4fJ0LjXa7MDLYbTNJKepuJ4QQ1ZozZ87YzNGzzz6L3bt3e5cKIYQQ/kWVyFFyrvlDaeQoOQdIPQ8rQINOulFnpwvPrM/HLYvzbSbp/tVuNNvnxpRQN/YnA3F5yiQJIUR1JDg42MrR888/LzkSQgjht1SJHAUbMZpzwo0lwW4ciXcjIgNIMsIUlA5MD3Pjwx0u/H2FC3cud+HeVS48vd6FT/e6MclI0pEUNzIvaUySEEL4G26320ZhuCwoKMjK0QsvvIA9e/Z43xFCCCH8iyqRo+OJwPADbny9x41px9xYF2rEyCyLzwLOZgJ7kt2YddaNToddeGGDC39elo+/r3Th1U0utDngspmkvcmeEuBCCCH8g7y8PKSlpSE/P9+7xIPL5cLJkyetHL300kvYu3ev9x0hhBDCv6gSOTplxGb0QTf67HSj/243BpgYe8iN5WfcOBwPpOQCGUZ8jqS6MdWIUPuDLny8Ix9PB+TjvtX5tsJdx8NuzA1342iaR5Iu/PvfYiGEEJVMTk4OwsLCsG3bNtt1LikpyfvON2OOXn31VQQGBnqXApmZmThx4gT279+P+HjzB0AIIYSoQqpEjk6av5ejDrjRe4dHjr7a5cbX5nXoPjcmHnFjxWk3Dsa6EZYOxBlRishyY0u8kanjbry1xWUkyVMC/L3tLnQwUjWLkmREKuuS+toJIURVwYwRJahly5Z4/fXXMXHixCvC44w5eu2113Dw4EG7LCUlBYsXL0arVq3Qpk0bjUUSQghR5VSJHB1LAIbsdePLbR4pYny1y4XeO13o5RWm8YeNJJ0BwtNMA+M8zAydzgRWx7gx6JTLFm940kgSxyPVZdujLiyMcOFIKpB8wbMfIYQQlUtcXJyVndtuuw2PPvqo/Xn69OlWgihHrFY3cuRIzJw5E+3atcNzzz2HBx98EO3bt7cZJCGEEKIqqRI5CkoGxh50o8d2T/aoj4m+Rnb62XDb6Ol9b/lpN+KzgSwjPNkmMi+a9hluLIo0bY678PleF97f7kLNzS58ssOFvsdMmyiuA2SYdS+qup0QQlQa58+fx5o1a/DGG2/ge9/7HmrUqIG77roLderUwYsvvoi//e1vdq6ju+++277HoDBt3rzZthVCCCGqkiqRozgjO2tCPV3r+hoRYraIItTXSpJHlrpvdaObiQWn3DibBhuHYoGDcZ5qd7E5QKSJrQluDDbrNNztwttbjSAZwWq+34X+J1xYes6NE+lGrC57dyyEEKLC4Vij3r174z//8z+t/HznO9/Bb3/7W/y///f/8OMf/xg//elP8d3vfte+94Mf/ADNmzdHQkKCt7UQQghRdVSJHGVfBEKN7ByIdWNtqBuTAz3jjrpt8QhRj20eOeLr4iA3QlI9XfEWnoIt3DD3hBuHjSjFZQLxRpBOmG1tjPOU+mahBpYCf3+bC60PuDDCtF8T48ZJI0nsbqcS4EIIUfEsX77cZoe+//3vX8kQFQ6+x3mPlixZ8q0Kd0IIIURVUCVylJoHKzzRRm5isoB9McD8k26M3OdCf3apM2LTaZMLXTa5scAsD01140QSMM9IUR8jPl03uzB4jxtzjrux45wbkeluZBrxiTKitN5I08hgNzofdqGF2V6TPZ7y35SkALOfULPP7EvAZXW3E0KICoOlu1mY4ZZbbvEpRgxmkwYMGICYGPOPsxBCCOEHVIkcsVvcfCM6K4zEHE9w41yGkSQjLccT3Vh1Bhix323kyI32GzxZIooUK9zNPQGbTWprlnfe7OmKN3yfESizzp4oIMysF5NtJCkXOJDixrQwjyR9tpdZJCNdgW6MP+3Guhg3gs0+KUlCCCHKH5b1Xr9+vR1f5EuMGA888IBdh/MgCSGEEP5AlcjRgVigl5GcrkZwJh12Y3sEbOaHcDzS/lg3lhpxGn/IjZVn3DhtZOpoAjDnONDTtKM4dd3iRhfTvv1GI0Dm94G7jUgdd2OvkaQYIz4p54HQLM+YpDnhbgw55ZkvqdV+F3odNeIU6sa2eLfNJKVeBC6ru50QQpQrLNXN7NFPfvKTK2OMnLj99tvRs2dPREZGetcWQgghqp4qkSOOF+ptJKd1gAvtNrjw9U63lR+SZUQl3YhNUg4zScAJE+HpbhyJA2YaqWGXurbrPULUeRO733lkqYv5udsWT7e8aUeYSXIjORfIuwwkmu3tSwZmhbkx6ISn7HePQLPf4y6PJJl9Rxopy83XmCQhhCgvLl++bEt2P/7447YQgyNGLNDA6nVBQUEaaySEEMKvqBI5ouj02e5Gy3VuNF3tRseNbuyPAXKMGAXGu7GbXeTSgBQjN5fM383cS0aUjMBMPAS0NULV3LRpt8FIkTdrRDnqYH7/IoDCZZaZ5VONIJ0wbVj+m4KUYLbFMUknjGitjHZh+CmPIPUxwjU6yI2FEW7sSHAjNIuTyXoPVAghxDURERFhM0S/+tWvrojRTTfdhCFDhqg7nRBCCL+jarrVGRFiZTqKUbM1bnTf7DZS5JGhJac8XeSmG2nZec6NqAw3UvI8k8FuiwBmHXNj2B7TxrRvbeSq5Vq3zSRxfFIHI0X8mZI0aJcbG8KAs6nAmRSzz2gjPilmW2YfkdluHDQ/r4t1Y2aYG4NPuO38SCzawPLf+5PcCMt024wTJ58VQghRdjiu6N5777Vy9MMf/hAffPABtm/f7n1XCCGE8B+qqFudpyJdszUufL7Khc4bXTgc57ZV7Fi6m93jOpplPbe6MO6gC+uNwIQYwckwssKuckfMutMDKVUufLGO3excaBNgXk2wq14rs2zgLpeRIyM5RoK2R1KoXBi11ywLddlJaFPNttIueiaUXXrOvBfkwggjZizYMOmMC1NCXFgd5UZ4liaSFUKIa+HMmTNo0qQJfvSjH+H3v/89Jk+ejLw88w++EEII4WdUiRzFZLqxPNiNAUZgmq32CM6+aDfSjLCwEANLeDdb7UYTI058r98ON2YcBXZGeiaDTcwBIjOYgXJjsRGaAbvcaGFEq/EKF5qa7bVc48ag3W5sPOvpnrc+DFa2mprt9TVSNvUwsMW8d8ZIUmw2EJ3rtpK0I9GNueFGpE56xiM5le1Y2CHnMqDhSEIIUXrOnz+P1atX47XXXkPNmjVx8OBB7ztCCCGEf1ElcsQxQOHpwI5INyYedGP4Xs/4IGaFWOK7/Xq3HVfELnPsOtfCyE5zE102ujHhEDNBnvmRWOGOZcApQRPMdvptd6PjBjc+X+W2BR8oRZSjzeZ9dt1rstKzXW6vqxGw8abNhlBP17v0PCNdeW4cSzPLYt1YYo6Nsd78fMxsI9mI2yWXBEmIysTtdiuugyBJSUmYM2cOxowZY8chEV/rKq7PEEKI6kKVyBHHEIWkuBFrBIdyczTejTSzLMnIEctxt1/vQrNVLLzgshkh/vzZSk+WqV2ACz22uDDugKfbHMcTUarizLYOx8EWYmhn2rNL3roQT7e6TWa9rhtdaMTMktkWu/Jx2+yG12OzC2P3u7D2jMsImhuJuW6kGukKy3LjVIbbzpkUne2228++aIQsKwvR0dEICwtDSEgIQkNDFQpFBQXvMUX1D/57yc/zwIED2LVrl50g1td6iuszCt/XCoXixgnn34GEhIRqU4SnSuQoKAmYd8JTMCHUyE28EQ+S7/YIzsRDLnTa4ELj5S40WOYRI8oMgz9zGd/rudWNzeGwY5UY0ZmwGahtEW6sPO3G+lBmpNxGfNxou86Fuks9gkXh4raamG01MtuhMHH80vgDPCY3TrO7nZGj5DwjS1kuHIq4jAPnjLxlA/v27UP37t3w8Ucf4b333sP777+vUCjKOThgv2HDhmjevDmaNWumuA6iRYsWaNeuHTp06GDnPvK1juL6C97DHG/28ccf+7zXFQrF9R38e16vXj2MHDkSwcHBuHjxoueh34+pEjnaEwVbhrvtOrcVEnZ7O5cOZF3wzHFEoVl40o3+O9xoH+BGy9VuI0VufLrC88pucw2XebrILTwJnDKyteucG5vOum3Jb86RxLFJ+2I88rXbiE2fbZ727FrHcLbT1Bufe39vt96NsQeAQ0bSotLc2HHmIsZuzsX8w25Em2PcsD4A7777Lu7461/tJIYKhaL8409/+hMefPBBPP/883juuefw7LPPKqp58HPk56nP9MYJfs4vvPCCnefqb3/7m897XaFQXN9x66234he/+AVefPFFLFu2DFlZ3oyIH1MlcrQ7yo1Wa134ZLHLvvbc4sbofW6sPu3GmWQ3Mo0gsesdM0wrg4GBRpLYta7eUhcaeTNJ9c3Pn61w2W54JxPd2BJupGa/y5b55rglylJIqht5lzwFHFafcdtiDMwSNVzuyRix/edmW9yek6XiMXUwgrQlAjgZm49pO3LQZWEmJu84j8gUF2JjY7BlyxYsWbIEixYtUigUFRCLFy/GqlWrEBAQoFAoqnGwjPuaNWuwdOlSn/e6QqG4vmPKlCl49dVXrRzNnz8faWlpXhvwX6pEjvZGe7q51TYiQiGh9DQ0r53XuzD5oBvbjOicNWLDIglxmcB+s/6ik24M3c1Mkmfdd+ebV9OOckShYnGH/ts922JWiPMcrQh242g8EJnuySTZ6nZmOxSoNmb/Dcy6dZYY0TLboxw1MbL0ySIXWqx2YV0ocMLI0YydOei+KAMTt2QjPEmTHgkhhBBCCFESOM6oT58+tosd/8en5KgIdkcBrda48dFCj+g0Wua2ksSs0OcrjLisdWHILiMoZzgJrKe6HccUBcYB840M9dnqRqPlbpv5mWd+5xghzmU0cKenu10dI12UnRar3TYrNfuYG4djPYUbknM4zxLsPEndNnvW+dRsi8fRYCmPyY3mq1xYc8YIVbILG47nYdCqTEzYnI2wRHMgQgghhBBCiKvCbnTdu3e34/QlR8Ww04hM05UuvDffkzmiFDGLU3eJC7UXufAxpcn83mm9y3a1Y3GE8DQ3QlPcSDByQxmafwIYZGRo2Sk3TiV5utVZOTLtuA1mgLid+mabXxjZ4roLTZsD0bDbikgHDsZ6MlJ9trqMIHnavTPP09WO3fAiU/Kx7VQehqxKx9gNmQhNuOQ9AyGEEEIIIURxpKSkoEuXLpKjq3Ekzo3um1w2c/TBAo+U1DMSQ0HiWCIKzUdmOd8bsceFQzFuW4EuIMSN44meEuCcJ4nbOZ1spCnVvBfqRs/Nbnxo2rxvpIuixW1xux97RanxMjd6bfF0rUvI9hwLxYvd+GYFuvHVNrdnTNMKl52k9mxSPjYey8WAZakYvS4dofH+X2FDCCGEEEIIf0ByVEJiMoGFxzmpqydrVHeJpysco+5itxUbytGHC90YudeNo0aCWOFulPmZbcbud+NQLJCaC+ReAqLM9ig4zA6xix5FiIUVPjHb4ivlq/Yit33ldputcmNrOHDZZeTItA1LNdvI8FTRG7HHI1DrQsxyI0frj+bgqyUpGLkmDSFxkiMhhBBCCCFKguSohHAy1RBbYtuN+cc8MlLXSMxbc1x4b54RGWaU5ntEZtReF47Fu7E/Ghiww22zScwG9d/uxpyjnqwPt8WKdCcTgXnHYCd2Zdbo7bmeYIaK3ey43TdmufCu2ceqYLcdg8RqeCwCsd1s53g8xyO5cSDGk5lit7oNx7Lx1eIkDF+VgjNxF7xnIIQQQgghhCgOyVEJYbc4jv0JTjICYq7Rjgg3xu5zo91aFz5d5pGi12e6UMvI0vDdLhw1crQvyo1hu92oZyTKSo9XpNqvc9kiDZz8lVkgihK3N/Uwu9m50GylC3WMGL3jFSXKETNLm8LciM6A7UpXa7YLHQJcmGba7DHCxjmXsi8BcelGjo5mo8+CRAxZnozTsZIjIYQQQgghSoLkqITsOQf03uzG6L1uHI5xIz7bI0y7IoHx+91oscojRrXmuI0cebrV7TXSMnSXk2FyG9ExUmPWoeiwmAIlaYwRrN1mGxxPxIlgj8Yxk+RG1w1ufLLQbQWpppEjjkva4JWjvkaOXpruwvtmWWMjZl02uDAz0I0w89klZOQj4HAWvpwTj0FLE3E6WnIkhBBCCCFESZAclZANoZQVIzZGSPptddkCCXFGji7mA6EpwEYjLhMOuNEpwLwaWToS6zbi5MaQnW6bBaIcfTCf4cK7RniYZXplhstus+8Wt80ksSJeUKJne/uiYPYBDNrBMU0uvDHbheVBbjv26esdbrxs2r5pllGcXjPbopxtDgeiUi5jzYFMdJsZh4GLEnA6SnIkhBBCCCFESZAclRCOE2JFupenmzBiwrFAm40Q5bs9WZ9wc904fmjtGc+YouAkT7W6fls92R+2YRc5jh1i1zoKEpcz2EWOY5e+WOPCUiNd8V7pyjhvtpngxvTDbny5yWXHGEWlAz02ufHMFCNHRozY3kqWEbAlQUasEi5h9f4MdJ0Wg68XxCM4ymxECCGEEEIIcVUkRyVkWziMHLnxwjSXFZN35rqxKQxIywPWnHbbAgnrQylF5qLmerrc7YiER46M+Lw03W2zR+xWx7Y2bDc8F16d4dkuJ5NlcQaKVUSaG2eSPeLFIgyUr3SzL1ao67LeyNFkF2rO5DgmdrFz46MFnP8ICIm/jJV709F5ShS+mheLU+dMIyGEEEIIIcRVkRyVEIoQu8VRSp4zckQZ2REB27Vu1B43Ghpx6hzgxowjnipyR+I8maTd54C5Rz0ZpAZmnReNBD03xY3XZhpZmu3JGtWc5bai03q1GwuOw3bJYzc+jm+aHehGYJzbChe55AKWBbEQhBu1F7jwihGjxyZ4ZMuRoxV70tBh4jn0mR2Dk5GSIyGEEEIIIUqC5KiEcDwQq9K9bOTmqYkum/XZctZty3GzIMNH8114fYbLCk/T5S4rNizWwPeZXWKBhokH3Gix0oUP53kq171m1n+F3fRMvGp+brnKZedSOpHgxpKTbtTnWCMjTW3XuKx0nTKylX4eiEgHNoYCI3Z7tkex4tilxaeA0/GXsGxXKtqNj0CvmVE4GeG1KiGEEEIIIUSxSI5KyNlUYNJBN5obgXlhqme8z8ZQt60wxwIM7xvhed4sf3qyR3RYhKH9Ok+Rhu0RQLhpz7LdFB8Wc+gYwOyRC08a0Xp+CrvdudDciM4CI0ccZ7TwhGebj4z3SBRFqdsGI1jmGFj8gV3ueEws482Kd322urHGCNOp2ItYvD0FX4w5ix7Tz+FkuORICCGEEEKIkiA5KiGpxjEOxbqxLsSNkXvc6LvFZbu/UXhYrptzEVGanCwQf35qkqcqXetVbkw1UnMoxlPhjuOH2G2OGScKT52FLttdr64RqrnHjBwlegSK3eaeNtt4yWyL22N3PmacKF3sqnco2m0r27H8994o4IzZ7um4i1i4NQktR4ai+9QInJAcCSGEEEIIUSIkRyUkMt3TtS4k2SM3FB12l2PBhHHebnWUGAoMReYF7+uLJl41wsRMU5OlLozczfmPgOQcI1ym/bF42MlkGyx2oekKF+YY6TkW78kcsfvdExPNdqd5gtvk9th974O5lC4Xxux1Y9tZtz2+rEvm2BIuYf7mRDQbdgZdJ4XjeLjZkRBCCCGEEOKqSI5KyN4oN/pscdniC1vC3AhOdMPlBsx/CIyDlZ56i9x4ZpILj45z4VlvxofBZY+Pd+Exs/wDIzzM+pxLd9tucScTKEhu7DvnxoogI0XHPZPHciJYjmt6xLRhEQcrSGZbFCRu+6kJnu54H5ntdVznwpRDbpxIAkLjL2HB5gQ0HXIanSecxbGzxt6EEEIIIYQQV0VyVELWnXHjzZke0WmxwmXHGXGS10gjOawkxzFALKLQZ4snC8RCCizcQCli1ziKzGPmZ8oNBWu/ka1lp9yYaqSGXfXYPY4TwO6M8MyRtN4sa7TEI1qPmnYcm/Tc5G+yUdwOs1SOjL3rrVYXFHMR8zcl4LNBwegwLhTHwiRHQgghhBBClATJUQkJMHL0xgwX7h/tEROW4G681IXB2z1V6zhxK+chYve2VcFufLnBhXfMOs8YqaHAMB4ay6xPPkbudtnxSyuMHHVY5xlz1CnAhbmBLhyM9oxLOhwLDN3p6a733OR8255tnzHBzBFF6Vnvch7Tq9PdmHMUOBV9AXM3xKPx16fQbvQZHA01Gyszbrjd+XDlX0b+pYu4eNFHXLqEi5ddyHczjWbWd3nDu4XqA8/VZYKv3iXO+fDVs6h8MdfWfbnwNb1kJxauNlTJZ24+J3PdLhW6bpeq5fdOCCGEEP6E5KiEMJPDzBFFhBmgh5nRMUFh+mK1C+P3ua0knTNyFJflxrE4t5WkgdvZ3c6FJye4cOcwts3HiF1uW9p7tXm/6Qq3laYnzPsNzHr9t7owO9DIWAjsfEmUMm6bRR1enJqP+0bl48ExnkySFSYjSfzdytExjxzNWR+Phv1OoM3I0wgMzfSeQem5nLgHQWs6Y0zPFmj9WUM0alAf9esXipZdUX/mbqyOjEF66F7sGL0ACybtRGDiRVyLllU2F5JO4PSaQVi2dIH53FKQmB6FiA2rsfjrxVi75Swi8wHzXzmSjrTtw7GwZ0M0uXJdG6Dhpy0wck0gTpbvziqIFKSH7EbAsHnmM9+BIwmXUPZvW0k5j5zDk7Hqq0Zo0eib61a/wafoOCUAa+KpuUIIIYQQZUNyVELYrY6FFe4Z6ZEjyg6D3eaeMMFsDjNAw73ik3fJM78RxyMtPuFGj40u1JrlwmtmG6N2u3E4xo2VQW60MtLD7ncUJMoWJanWLDe6b3Bj+Sk3TpiHvaOxwLKTnm3Unu9CTSNkFKOHTRtK2r2jXHhl2jdyNDsgDvX6HEPr4cEIDCn74+r5Y4OxtMP3cc8dP8ePbvor/vK3u3DXXYXiiTdwV+8VmBh0BBFrh6LHn99ErQf6Y+rxbJjDrjZkBi/Emi9uw6eNP0LLVaE4ec6IXtdWqPe7emjXewt2m8/zonfda8OFy5nRiDo2G1O6PoN3Hv0L/n6ncz3vxN/v/hNqNeyOiStPISL1PC54W/knpxG5eiBa/74maj04ANNPZCHByEtuYiyiTkQgOjoDWUbyXN61rxV3SgzidszDzC4v44On/4x7/l7ge3jXH/Dgqw3x6dBtWBmcBHMbCCGEEEKUGslRCdl81o3353oyR48YKaEgPT4uH4+OzcfDY4zcmODyV6e5MHqPC6cSPOOKDkR75kKKygAWHXejzyYXZh9x2TLcS43wtFjptoL1wGhuJ99uh4UbXp7iwicLXOgc4MaMQ247FomStDEEVq7qmPceM/tn1uifIzgOyY1ZR4GTURcwa10M6vY8ilZDTuHI6WuQowM9Ma/Tj3Hru2/hH18uxoK1W7BlS6HYtR9bzsQjMisI59YMRofb3sDbD/bHtGomRxlB87GqxU2oX+89NF0RghORu7GtYzN8/L8fo3WPTdhZbnKUjcQtX2NSh0fxYOPPUHPIUqzc4FzPjdi4ejBGvf0suj7zMcYsP42j573N/JIzOGfk6Is/1MTbDw/BrKAMpCMCp+aMRf/Xe2DwsB04mMdcT3mQgJj5/TDy8Qfxr+fq4JmB87EgwLlum7Fl8xhMqmOk6a/P4r42s9DnaDYuKoUkhBBCiFIiOSohUemeuYVYGe7tWR4R+tfIfCs1VpaM0PxrpAv3GFHpsNaFrUamOKZo4gFP4YUjMW6EJrtxOsmNiDS3Lb4wz2yv3kKP3PxjOLeTb4TLk0G6b5Rne/yZZbv7b2VXPeByPhBnfCfgtBuDtrvw+VJvJbzxbkw4CJwwcjRzTQw+6R6IFoNOXpsc7e+F+b1vwV8698Rbmy5fJYuRgayIw9g+bRXWzD+IUymXjQZUHzJPL8a6dn/B55/VwRdrwnAqah92ftkGDf/QEB37bcWecpEjPq1H4NiAN9Dprl/g8S+m4+sIzzvfEIdzX7+JLx//Ox7usRqDg/x5nqpcXDh3GDunrsTqBUdxJsNcJATh4NDOaPA/H6BZq7XYaZZccw/BS+nICR+BqV88iId//xTubbkY47513XKRuawTBjzwd9S4qRXu7xOIM+YDK6+slRBCCCFuDCRHJYTd5Fh6e3OYG2P2uNFqpQtvzXTh6QmerNH9RmbuGe7CvUZouq53YU+kGxtD3Gi3xo2Xp7rQZIkLS064cTbFXHTzvOtsi5PJcjvsTseuddwOs1PMCNlucyYoXJSm2YFu5JunPbbnfEuUpVVBbnRa50b9xW7MO0E5Oo/pq6LxUZcjaDbgBA4HZ3jPoPRQjhb0vhl/6dgNb6wzD5/e5b65hMu56UiOjEd8TAayL+TDnZ+LnJxMRKVmIj4+EvFnT+D0qbMIj836RpyyU5EWfAohJ07gxImTOBF0BjHp5qHbvunCpYxYZCScQ1buhQKZABcupichMzwCmSlZOG+We95yw5WXjdzIBGTEmWMw18o+HF9MR15sEMKDuQ/GKZwKjse52Iu2Lak8OQrC/q6vo+stN6F+96WYb74H/85l8yFOxqLJ7fHUqHXos6/g52eOIDcWMeFB3vMw1+tsEqIzrlyYAlyAOycaUWHOuqdwMjwF5tJ7OY/c9FRERaYhPuV8gXO7jPzzmUiLSURirPM55iE3l59jFuLMZxEfftJ+jpGxyUjNTEdiVCKS4lORmZuK9IiVWN66Ad7+v1fx4ccTMOtoNM6lJCEqPRPh6ReQc7ngsbKLYYYRH/N5Jecgx/m8CuFKOYzgsfej8dt/xR3N5mLY3jTzbfNBzh4EzhiIVx4biHfb7cQhc9PmX8pGZnaWOQZ+B8MRF3YSwaciEBGfY3TKgzvTnEfQCZzxXtOTp8OQkHmBn4QX893LSkPyuUQkJ5rv15Wugub7ZrafHRuFlBhzDnmXcdl9CRfMOaVEpSA7OQ1Z6fEICwn2bvcszmVcvLJfIYQQQvgfkqMSQhnhuB8Kz+lkN47HA3OPwpb1fmFyvpGifNw1LN9mgboEuLDXyNGmUDe+WOXCA6OYYXLhvTkutDG/j9vrmdfIPGdZSVpwDGhvJOqlqaa92Q6zSGxD6XpwdD7+OpjbzcccI0esijdxP6vhubHylDmOODcORAGbwoBTSSaMHE1eHoX3Ox7CZ18dw6Gga5CjA0aOehk56mDkaG02it9SPFKOrcO8diMw+quN5vwycDn9EHZsXoh6w2ehY69G+Kr+o3j96c/QbOBuHDBP427kIGX1WEx75nG8/fBDeOihh/HwMy+j4/StOGjeZ+4pZk13rBzcCAu2n8SxKw/2STi7aDAWvvcBpo5diz3pfHwlGUg+uAEBdQdgbp8A7DXXl1PgXjg5BwHdnkSd57kPxhN45Imu+LTTQexP9eQ1ss8swfoKlyMSi9NjP0L3J36Nf7Uag45HXd8WgsvxSEg8gy1n43EiqcBec48jJqAL2tZ5Fg/b83gcD9cejFYLw3GucN+1rEOIWNkezT982nvOT+PhuiPRYUU8ki5zj0dxcO5kNPhwBrqNP4GzZolHW8xD/onVmNmsP75utwxbQtJwMeMo9m9fiIYjZ6NdryYY0PhJvPHsp2gzcA6WblmPKV0mY/qopdhybCvWfNkYrW75LW7+/v/h1795GW981AfTF01B+zkrUHvKEeyIKphPTMS5lUuw4oOBWDBxLw6bD/HbXfAuIOvMIqx68yZ8+tjTaLIgCvuKnNc4DxdSo3Fweyj2H0lEyqUcuOPNMQUsxMdDpqNrj7ro88ljeOXZlvhi5CFzBUg6EhYNxYTHH0ZNe50eweMvvYme8/cW6NIYhrMBszGqTn8MH7gZ+8y/kZ5DuIC8mK3Y2rY+xjftjcWHk5FwycjQ2gUYX3cw5vefiAXzhuD9918z230Yj778HppM24+NibaxEEIIIfwQyVEJ2RQKNFnqRtvVnrFCgbFGRMxDDieEnXHYhR4bPBkgdodru9pl50DaaOSo41rP2KQ7h7qM5LhwhxGdl6Zwfc92Dse67USwFJx55kH5y40ufDzPhSfGuWwbrv/nQflWkrg+Ja3hYjfuMu81XuIp7rAm2HM8CeaJ7Uz0eUxaFom32x1A4z6BOHjSmEMZOR84AEu6/QL/eO0p3FHnS3TrNxADBzoxCAMnLMe0nVGIzKZgnEXU2kFow8H5jw7H3GNJOJ8YgLmD6+IXj5r2Lz2Bz+u/iY/e64yu4wJxOCMW8cfHYFnXmqh/93N45fmaqFnzWbz6zD14o1ZvfDU1GCdikxC+tCHGNr8H749ZjTEhZj/uy+bADmJv31po+Lubcd8nw9Hp+AVksP61KwTHFo1C/TubosnnK7E3LR3ZMTuwYtJnqPX2Q3jmhVfMPsx+Xn0Oj//lUTzzYhcM2hWNCPMQnBuyBJs7/LUS5Og8MgLHGel8Av989hXc9WF39OhvruXQURi/aCO2R7t9ZBbMnnOjEbh4Cnq9/w6eef4FPM/zeP0VvPDC83i6fXd8uT8Mh21qj+tG4cjc8ej13tt49sUX8aI955fx3IvP4Mn2fdB9y3EcC1+FtT1a4aafdsDjTbbgkGnpkaOzSNgyHB3+9AbevHcgph1IQF7KViwf1QC/MnLypxfM59jwHXz8fkf0GjcVC2cNxmd/fB+fvNAXU3Ztw7qhHdDtzj/hz/91M267/X3UbT0cC1aPwmfNeuGh5yZh2tZYbwaSn+NhBAzuh/f+1BId+2zBUXPo3+66mYT4PWMx7K4H0OyRVph6+DzMrVJC+H8fZmFkr4/xXw8+iXtefRKf130LH73/JXpOPYnjWecQe3QEFrariXp3P49XX+R38BG88OBf8WCtPmg58wyC0pijOo7AcV3Q4OdvoPbbU7A0jkpFcpEZPB3T//krNPnji+i7Jhpnz0fg2Li2aPjz+/DUX2vhzTZd8OIntc12n8Pzj/8Dj7zcDB1H7UBQksuonBBCCCH8DclRCWHZ7ecne4TluUkufLGK2R/zfGee8djN7VA0bHe7z4ywcCzQbiNHa02bNmY9FmxgO2aVGPeNZEbIU+WOgsOMUKiRngTzLMeM1PyjHgljcQd2q/vbEE+7BWY5M03Nl7tx+wDPmKRHzLY5BmrgNuCIaXsmOg+Tl0XgrTb70LDXERw4WfYP9PyJ4Vje6b9w/x0/w3/9+g/4/a234/bbnfgjbn+iKV4Zsh+7EqkN5kFz4wh0+dt7+Oj5sVh4KhUXUrdiYZcX8bvf3YK7P+mHmUeTEZWSgYzsPKSdDcDGzk+ifeOP8MWCM9gRlYWsrHAkH56JkW/WQ5OX+mPS5ghEHp2GhaPq4M4+89Bom7nQl82jdcwC7BhdG29+8AF+XG8C3l2ehMQc81idvgLrpnbCP+qNRYNZkUjNisKlI8PQb0xPPDV+B+YdSzH7yEBmwh5s7vYk2r35MOpN3IvV5prmhi7Ftk53VIIcGQnJj0DczhH46rVH8eDNt+LW227F7Tf/Crc/8jJqDt6ExccTkZye/U23LlcCXKcnYeCnbXD3/WPQde5JRGWZ65UZjegVn6Bnp0dwd4+F6LeP803FI//0RHT5sCVuv2eoWfcowpOTkRwXhDPz3kXHHq/gsdErsWDHMmzq3xF33vQlXmy1A4FmNx45CkfSjrHo/o/38cHjwzD7SDLOZ+zBqt6v4w833Yy/vd8Dk82yyJR0ZGafwNk1RqT+9j4+fm4k5gUlITnrALb1bo36N7+Pxp8vwvr0LKTkHcPm1m3Q/a7PMGL2MZivu9lZJtxnp2Ls4I74a/3p6L4qHLlmuecYChKKqPXme3XXB6j7/HDMDz6PBO87XNt1wQhwajTiYs21iIlFbLy5dmmpyMzLw4XLOXCfW4LxLZ7E//7mVjz4mWl/Mhmx5juYmXMeKcGLsbb9vWjZ8CM0n3sG2yPMdUreg6AFXfHGg2/irpcGY4yRw0xXGE5O7YUWt7yPhh/PxEpzn3myqHnIOjMHcx65Da3ufhMDA2IRfiEGZ6Y2QePf/Bw//eVLuL/HZiw9nWC2a0RrRQ90fegPqPXcJ+i/OQXB3zZBIYQQQlQxkqMSwrLbLHzwu375uKV/Pp6Z4LKZoSzzgLM5DFh6EnacEQsvnIj3VKlbeMyNZss4Dold4zxSxJ85Numvg1z444B83D8q33a3Y4aJ3eW2h5vHwRSPJK097cbX29y2ct3fh7kw/aAb4ebzabnCjVvNMfzFZpU8Gam3Zrqx5BRwMjIPk5aE483We1C/xyHsP/mtQS0l5vyRAVjc/Ze4u+ZzuLPRV+g7ZBRGjSoQ09di7t4YROUwcxSBmI2j0O0fH6HOy+OxOCgFF9I2Y0G7T3Dbr97By5024rBns4ZEJG2bjiGPfoJW9SZjxb/1pUpByPC30b/+q+gwdz8OHd6EDXO64o/tpuHNJcnIzjWPxicHYcfipmg2fgKebroEX445ax54zUPyyY6YM/gZPDNgKfrsvwT35Sy4Ew/jYMgZbDTX7ZtxKqEIav8o2t19J94ZsB2L040chVWeHFkFyIpE2LrFWDZ+NEaPGIhRrZ9Drcd+ix/ffh/ueuoN1P2ih5G5NBhnNuueRPKqN9G15Qd4sUcwNhTsluVehG3Dm+Dlx0eiy4RExOQE4ty6N/H2B6/j5w02YGawdz2SvBnHDi3C7EPBOBW8Ehv6d8Zdv++BV9vstF3MPGISgaSd49Hzvo9R++mRmBuYhPOZO7GyewP8+Ve18GzrNdh7pR/gOSRuHImuf/8Qn7wwDotCc3CBBSfG9UGrWxujQ5fNOGLWcuE8kid/ipkf/gsdJqzBYnNS+TkxyNr0MQb2q4mnRuzC1FPf7lDnIRiRRsDa3dUAH780AQtD8pDkfQfuC8g6PgorB76I2rVexIsvvoSXX30DNd97H21HLcCmsDScj1yDKU0/wM2/+hBv99sFc5t6SULcumH4+oGHUPeD3hht7rsrOdbY9ZjU4FG8/mItNFt4HMdSwhA8ox/a/qk2mtSdjdXmK3hFjkLmYd6Tf0Gbe9/BkA1xiLgQh6Ap9dH09z/G3Q80RovV6Yix6xoSNmFrm1tQ641/4bHxh7E82tOlUwghhBD+g+SohFCOnjJCRKG59et8PDzaZbuzRRj36LnJjUaL3Zhi5OWQeRIKN8tYle5IrBuTjPAws3PHEBduG0CRycc/jOj8y2aR8nH3MI/gcJvsbsfxSGzPjFSmEa8QI0pzA93oudGI01m3Fae6C9z4VZ982+WOonX7QE8xh4kHgcDwPExYFI6aLXehbveD2H/iGuToSkGG7ngjIPcqk7qGIXrDKHS9IkdJRo42YF6HjvjjzYPwyVdH7bgWy+VAnF7QHx//sR5eeqgL+kybgWmzZmLmzNmYNW08Rrf6I+p8+Cfc13855h48iMBl/5+9s4Dvo0jfOHfIcYff4VKhSqEGNequFKrUXam7UHd3d3fq7u7uTS2ppEk9laRNmuT57zPJhsCV+yMLye+3z5fPkF/Xd3Z25n123nlnKL4tOQg1+x7GscvncHVZO6yZ3w6DN21Fr1azMbfXOhy6eAmnltbB9PaZ0XbeViyJiSP+ENfPH8L6JXOxYPYM6xwLMHVUf/TIlRzl02VGueG7sdKydH+fOHqA4GvHcXjFIiyazuuPSovXbcPRa5bh/rToAr/E9fXYNqEBvi2aA3nSf4DP02dEiXbrsOBsEG4H7MSRUWnQsnoaFGozHN3GWPlkzjUVM2b3QNdyVZHz2YZo3H4/Np9fi00jPkWlxkWQa8ZpbLRE9lO5twore7VD8g87/z/iKNASR5uwtEt7pPioD8p2PgAfsx05hytrLVGWxnrmhUZjvs9dq4ycxN5B36N+wqpo0nwptlhlmLIn7EhnLB+eFUX7T0eng48RdOssrkwuhOEdiqL9ynPY/ovF9DKubhqO7qkKo06u7ph9MhQxtxT5CPcOD8KinjlQunAO5MjxJTKlToBEzzyDTAUbYfjOQNz1XYvJjVvj4wRDUH/ESVyJ3hVhe3BwQjeU/ug7lKu8EBspkKNXRdw/iiMDs6KTJZCqTtyJDX4+OD29F1ol///Ekb8ljq7g6LjGaPxxOtSoMRyLrHIYE8jkwXncWlYS9TsUxnv91mPccXUdCSGEEPENiaNfCcUR3eAS9Y1Agj6WGLHEEV3trlpWUo+N1roxEaY3qercCAzdHoE9lyNxx7K2fG4AI3dFCSQKojSWmEljiSOOGWJvEBN7fpJaAqf41AiMssSRmR/JSgzowJDfdNujyx0j5vlZz6feIksQWULrU0twpbaOk9C6pkyjIjH+QJQ4Gjv/Ar5quB1VO+zD3mN/QBzZARlaf4+vV1hG+n/7PMXil8RRG0sc9UXlXoesLaIJ3o8TM5sjV/JP8frLCZE4eTIkS5YUSZMmQ9Jk1u+P/4MEGbLj3a5LMfGKLwK2zcLEbN+h53dTsGDvASzp2wnzhg3ErH0HMbvXAMzr2Q8L9h+wlvXC5GaNMHX7WRwxH+UfIMJvCWb0qII0qZIhuTlHXqRMVhqFMr6HktWzocLUvVhlCc7f51Z3Fdd3jsOQb3Ijd1IeOyrlr9wMI3fehd+PXVXRWBkY8QShTyKeMrbmMULvBeCK70lcWNcZA6sWQ4qk3VBjyHEc9N+CLYO+QM3P/4m3EyVBoqTJkSz6XMlSJMXHH36Cj96ohPoDt2H5/sVY3NG6jwalUXPZVez/pcdPcdSzHZJ92BXFWu7AUWtR1OP1w80d49AtQ2VUiRFHmy1x1M4SR71QptM+nDHbkf9fHG20yq6511srsGteO2SuPxpVZp+Az+Uj2DuwGca274BZx27h/C8Kyfu4dXgypmRJgUZfVkD/zUE4E9PhEonwkOu4G3AWF8+fxdlzR7Dnhy7onfQt1MpZF6N2BOC67xpLHLVC4gQDUW/48R/HK93fgG1DvsfnH3yPwnU2Yp/1rOzDhgcdwWEjjrKj6iSKozNGHLVMXgX1qs/CSuudjBJHj3D/3FzMs8RRKyOOrlriyA9HxnawxFEpNPxuDtZboismBEXIFTze0hytetfGB/03YexRW44JIYQQIr4gcfQroRCiAHq/Rzje7haODMPDsdxaxjmHem+iy1w4EtHVbUA4CkwIN1HppuyPxLaLUT1IHIM09UAkGi+JROYREfigZzgSWtuz9yeVlfi31PQIjLXE0U7fSMw6FIEGlghicIe5RyJwPMAyzi3r7fETWOeNMK51BSZEIEX/cPy7a7gJ9815jg5fDMaYeedRpP5WVG6/B3uO/hFx1N0SRx8iZYs2KLYoEP7/05b7JXHUyhJHPVGx5wGcjd4SoQdwek5XlExSGlk+q4nvOndGpy6d0dn627lrL/QePhHD567F+P1+OBn6EA9PrcbuejkwtWd9jFi/E4NbTMacASuw78J5nFrcAxvGfIeRyxahZasp6Nl0KjafvmWM19Dbh+AztTzaVsmGtKWaoFoLnmM4uncZif7fpUOzJllQdepuLLME7O8TR5YYuLAdG8cMxmBee3QaOmUBtlwIRnQgvB95Yj2Ly1sxd9V6dFh+EUduxYwq+ikRG7C5RzMk/mcLFGh6EFv9t2Hn2M/RokwSZK/RCvXadkNXc64u6NxtAPqPmIhJs9Zi++mrOHd8OTZ0T4pKjYuhyPzz2PZLkdEeWOKoe3sk/qA3irbeG8vd7DJu756M3pmqoIYljubEiKM2ljjqhtId9+BU9Ja/ShxZysA4zIVfwPkN01AvRye0ajIRaw5uxMjulrDs/AP2BYRER397GuF4fGUddjZNgOoF0iHv4ANYHtMr+BT8F2Fl1uTomKsuxlniKNCIoxaWOOqLOsOOWtIvmkc7sHd0ZxT+oClKV12ObdZ12oI14v4xHBv8JbrUyooqE3Zgvd8pnJraC82T18B3NedhnSWmo3pRQ/Hw4g9YnOcTfG+Jo8HrOOboMo6Ma26Jo6yoW2ssVljvbUzPUbAv7q+thEZdSuCdvusx5tgvuRIKIYQQIq6QOPqVHLwaiQ5rIlB8SpSYyTAiHEtORuKqZfn03BBhCZ5wpLSEEcVRsn5Rf3OMjkDTpRH44ViUqxy33Xgu0to+EuVnRSDfuHCkGRyODy2hxPTVlChxtP9KJMbvYe9UuBFRucaEo5klhhjy++BVmDFNDCk+fHukmT8pp3UeCqVJB63154Mxcs45FKyzBRXa7Mbuo5Yl9zv508QRLuLy2kno8UU9NK48HSstw/QnOuLSKVzbZwmby/dwyxIlYQG7cXFGFowenw9VJ85G7cYrMWfiOdwOuoUnZ0bh4Kyq6DysFwo2mIUmffZb+RNldAZfWIrVTROicuUiqLDkFg7ZJ3m4EyvaZ0GlIplQYfQurLLK/F8SkCHMUirnpqN7ywb4uGA3NJx7Ej5P86zym4RZrSri3VTdUaL/JZy+fQQXV3+Fri1KocTA01h/LXo7wwOEXDuPQ3sv4ZRfCEJv7cGFuXlQsmpRvNNiC+aei96MRF7DjaunsOOEL85dWI7V/Zrji/fqonjDNSZaXRTncH1NTzRKUxJF8o7AjMPXEfqrxdEdSzQcx+5+7VD7g5po3na9GZ8U1SN1H3ePrcKiQqXRJ/fXaNKjAwo0moJmww7D7/5/dbH9lIe+CNhQBd9X/wTJ8rRA9QnHcCSmOyYWj07j9OwGaPfByyiVrY71fgTghu9aTHmaOIIvLiwZgM5p86FauYGYfMnuDbK4sRXzm2RFpa+Lou7sw9h3/RLOzuyGdgmLoEbZ8ZhvCZ6oEmbl97FxGJQ5EcqmK4t+6wJw+fE1nJxQAw0TvYbsRdugm/VOxlSpN3diX/cU+LbCF0g/YjfmXfwFcSyEEEKIOEPi6Ffy0LKMfa28oXtdg8VREeJWn4nEFcui6rY+EhmHRyB5/whLGFnJ+pukb4QlkCLw+dAIE1CBUevmHImaH8nfEkmH/SMxelek6S3iPh/1ijDiiMsYzIHBGdjD9Fa3qON9McwSU+MjUH1eBAZvi7REFnDMMpLpvkdB1XkdsOQ0sO9sMIbNOov8tTahXKud2HXEDOn/XXDM0dyu7yN5s1YosvBXiCMayqnLo3KhMVhgxNFazG7VAh9/0APle+yPJY4eI+jUMiz7Lgea166LzluC4GPbx+FHcOD76uhXpDI6TTuCLXct4/rBWTxcXxsdOmfGOzUbIN138zFp+W2EP7Yu6Poi7J9UDbXrVUWmZjPReukdXH4YZY4/9l2OdS2TomDJnEgz7iRWmk40K/OPj0KLognwVrJMKDBoF9ZZi0LOLcTmtilQr25lNF1BcbQb2zo1Q40ENdCm5ybsdEIcRVpKKHgn1rctixJvp0GiysPRctcd3IutDEMv4cLsamhTIT3eqT0OjTc8RsiTawj1GYqeNRvhs1yzMWD9rR/d8vx/wMq+bfBN4bFoN9EPN8MvI/TkADQvXRfvZRiPXquuRAcasNTE0XGYMvx7FOw0D6M2rsGOqU1QO9knKFmqG6Zb5cnI6NvrcHhMJeRLmAup8o3C5CM3EH5vE5Z0boVkH3RFyQ67fyqO1gxD+8+sZ15gFOZF9xztGdgedT+qjEZNl2CDlbdRxSYSETcO4sSA7GiZ4RW8lTQZXio1BFUW++Pm46jn9YtEhiH84TZs7/Mtqn/wCRJ/0wu1N1rl8SfC8g6uru+JoSXeQZp/PovUxVpj1O7rCPJdjUkNmyHhh31Qa+iRWOIoFLePzMTCOp+iXo3qaLn2Do4bwXUWNzYMQOVsRfBpro7ox96nsGBcW9kLw5MnQ5nsjdF+80OcY2GIPIfLy9qi5Gdv4OMMZdFtXSACLHF0dnIdfJfgdbyaviryzvHDEdPNdAM3tg1Bv1zv4ZtcX6PNygAcZng+IYQQQsQrJI5+IxRJdJFbciIS529F4pJleXJCVgZZYCS7hL2jRBFT8v7hlugJx/s92dvEXqcIdN8QaXqh7obAuNstPRmJkTsZAjwSNeZHYMj2SGz3jcSEfZEm6MN7PaLGFyXsHXUcBoTIb4kkutUxeMMaS6BtvRiJnZcseWJdy5GLwRgywwd5qm9E2eY7sOtwTGyv30zIrnaY3vafeLtuQ2Sfcw1Xftn3ycIHl1b0R7MEX6Fk1iGYdTwQj26vwNSG9fHvf32Pr77fg9iB057ctwzrbW0xsUURVM5ZBZWrN0TDht+hYe0iyJ0uK74s1Bp9l5/HYRqs4ZbZfmo0elf7FK9/kAwfVBmHwXtCERn+xFJwm7C1b02USlEY+evPxOhzkTHubOFBx3BxTg1ULZkGz6QrjhyVrHP0GoCmA3uhaqkESJctMRJ1WYYxfhEI9pmLjU3eRZVKJVFnsQ+O+W3HppZ18e0r36JRh3XY6oQ4MtzB3U2zsbJlNVQoXRC5K1VHne9479Hpu8qoX/tb1OraE99vOIqNRttaKuChD7aMH4EGhSqiUKmqqGq2r4eGJXOj0BelkP3b2Ri4KsASQo8sNWJtO3IIGlnbFvm2GmrY235VCkWLt0GpMduw/MR5+O8djpnl/oGv0iREhtINzTE7DW2KLp1qotB/CqBI5oGYejAQj4PWYUGrhnjrX21RoPl2HDf3Qc7g0vJ+aPqR9cwz9ce0Uw+su+MEvT3R7fOkyJUiP8p0HILp+wJhArOF+ePerrpoUeB5PPPcs3izykh0OxqCB78qcEU4Qg6swtbOLdCsXjF81agSajeKlW8Nq6N88fzImqswyn7XBv3mbMTeq7cRenEuhlWri1de6ozyfQ/+GBTEIuzuKfhtbo2xjYuhct7qqF6LxymF6kU+xxcF26JS/33Yc90SZta2wacXYnu9L1A6bQp8lK82vq1nbTuoF+p2a4giX76EQsWLoPt6f/g9vIozU75Ho0SZkTbtV8jZugOqt2ppHbcKqpX4ErlylkejLouw93L4j+52QgghhIg3SBz9QQLvA9MORKLKPCDTKJjAChQyTB/3jRIzduJ4JbrbdV0fYVznmM5Y2oVzF63xiTShuimWuHzM7qhxTP/uEo4E0cdKwmQdxyTr9+dDw1FxdgQGbY/AhvPAtWDLXL1siaPpZ5CzynqUbrodOw/9fnH0+PgYrB6dB8X6DcJ362/h+v8cInEZgTtnYVjJ1mhXbx7WWTcVem8nVg4agMJ5x6L12BOxvtrb+OH8zJ4YnCY18qZMiZRMqdMjZe2BqLnqKi7F9FRZ4iBoJzZ0q4rvsuZD1W6LMfsizWV+eT+Og5OHoHPedujddxN2WwLux8k1LWV1aQVm9q6BtJ+kxCdWSvl1U2QetAKTJtfHxKFfo+iE1ZagCsejyxtwaGhxdO/WDn23Xsb5gKM4OKIfOhXohEHj9uGwpcP+H+ev30T4ncM4NK4i2hZJidT2vTN9lhYFW4/DiAOP8V9Dkm7uwanZDVCj+Bc/bp+yCIpUGotph+4gIHZHROBWHJ1WBxULW/lptkttpQao0HATNt8Mj3JjvHMA5+YWRdtv7WOlRL5mDdB0/AwMLtkTU2vPxEafWwh+sA+bRg5C0byj0XT40VgC45L1zGdiaAnrmdeagZV+YcY1LeTsIqz+PgtKp/kEmYtWRtdlF3HKZJ71PK7Mw5AqWZHozTQo1W0ZNlll/zfla9hN3NzSFKMbpUTmdD9et0m5v0PR/tuw+ardpWQVhoCVmN29H/LlnYjOM3zw38OVzuPM+E7oa5WNnNHHSZ0pOxqNXoctljCNEcQhl3B3a2/0qZfzx/NVaoasA8ZiYOdv8MOQFph7+DouPzyPoxP7ommSymhQsDpad66KHHmjntenWfKh7MC1WGhlYOzOQiGEEELEHySO/iChlgFLN7n1ljjpsgEoMikSKSyBRDc59iLRvS6plT620n+6Ri1vvzqqd4hCaNiOSIzeHWlc9C7cisRtSxBcvhsVAjzPOAZuiNonUZ+oY3xs/U1oJXs5e6Q4oWyVudYxzgEn/R5i2PTTyF5pLUo23oodB3+/OIp4cBk3L+3DgYu+OHkrDKH/8wv/Izy+ew1+h87A50QAbgaHIeLJXdzwvYj9+y5bou1BLNHyI08CL+LS+tXYunIFVqyw0uoNWHv8Co4aFycby+qPuI+gc8fgs2M3jp8LxDVLqEVpgYe4d+USzu3ygZ8lyLjbTy4z/J51Dcexff0arF1lHX/rYaw7dwsB10/jpv8B7L98HRcfRCLi0S3c8zuI8+d8cPHOIwQ/vo97ly7i7P6z8L0chPvWyWJrjz+OJVCuHbTuZyVW877ttGottp68hstPFaIPEXn7GI7sWodVZvuVVn7twq7D13Drv6ztewi/eQQHd6zFSrPtamvbYzhw/P6PzyEyGGG3rWs4tAHrVq8wx9x46DCOWHly5bAvbhz3x+2HoQgPD8LtS744sO8STvvdjwl5HfXM/aOeubXtjZDIKKHz+AbuXNiO/ZvWYuPWXTh+1XpGJvOsPe9txJz6LVHyo9boNekwzlvX/ZvzNfgkrh1dhfXWNcfkm5UXq7Yex+7LobHKmXXwx9dx7dxF7Nt3Bef8OQ/TfxN29Rwurl2JzaYMrsbqjdtw+tq9n5VX60UPvgzfkzuxcY31zLjtriPYcO4KLl88jKArpxF4PwQhT45g/+geaJC4OppVH4V5B/Zi5aY11nFXYfWmndh/5SGs11wIIYQQ8RSJI4cIvHkXa49cx5Q9Iei8PtJMympc7SwR804362+P6PFD/SLMGCVGpJt2MCowA6PgfbcwAjMORmCPH3uTonqPZh2ORAdLSH0zNQKfDeJxwvGWJbB4zMSWQGL60BJI/+pAERaJkXuAwxceYui008hWfg2+brAF2/+AOBLCWSxpcn0qxrTvjDxFFmLC+kAvcy2jLN+HvSM6oV6iymjQcCk2O+OLKYQQQoi/CIkjR4jE1i2bMWvWDFz09UNAMDD/GNBsWVQUuc8GhSNR73C80TkcCXqFo+OaCDNuieKn7IwIs+yDHuHIMCwclWdHBWXgeKRr9zmZLMx2TZZGIO/YqEh5iftERbejmx73e61TOD4ZEGHE0f6zDzFoyil8+e0qfFV/E7Yd+KVYzkL8VUTgycPruH16E04wCETHDsg05iAWn/uffpoeyBOrKtiHPUPbo9a75VCn9jysCYrt5imEEEKI+I7EkQNERESgZ4/uKFPyKxzau80s48StDLnN6Had1kag8MQIvNs9Au91D0fbVRHYYeYyikSZGZHWsgi83CEcb3ULNy547Emqu9ASSbuB7b4ckxRpJpNdYR2L4cSLTmJPUTje7Mp9IvBqpwh8MihaHPk8wMBJJ5G59EoUq7MR2/ZLHIm45i4CtvfHpFrZ8VXyEsj93WwMvHgPl0O8zb+M4mgvdg9qg2r/LoUa1WaZCIkKvCCEEEJ4DhJHDkBxVLNmTSRKlAjLly+PXhoFzT+KpOkHI9FwUSRKTI3AwK0RZnLYSfvoMheJ93tEGKHDOY3etsTO652tv10jkGFYBOr8EIFpByJw6GrUnEonAyOx4FiU4OKx0g2JEkcf9Y7AoB3APkscDZhwHBlKLEeRmuuxbV9g1IUIEWcEIXDnYExrWgoVig1Gt/EXcTV6jXfBAVQXcH7tfExsNBKTJu7G0Z8ECBFCCCFEfEfiyAEojurWrYtkyZJh5cqV0Ut/JNxSSMFhML0/DAG+4VzUmCIKptLT2aMUjtc7huMdSyBxXNHb1l8m9jIxFHiaQeGoMCsCq30i8SQCJgz4qeswk8t2WhOBHKMZuS4Cw3cDey1x1G/cMaQvvhQFq6/D1r0B0VchRFwRgfCQO7h34xqu+d/D3fu/Kna3h/IET0KC8eD2fTx48Bih1ruv+AtCCCGE5yBx5AAUR9999x0++eQTrFq1Knrp0wmyhA1d7m485HxJQPNljEAXjn+1D8erdK3rYoklSyAxvWn9prvds20skdQzwvQ03XsMbDkfJbLYI8W5lvh7wNaoaHV7zzxAr9FHkbbYYuSvtgZbJI6EEEIIIYT4VUgcOcBvEUexoUhadjISzZZGIv+4cHzSn71HEXiloyWUrPSfzhF4q2s4XrSEE4XS+D2ROHfLElTW9kUmRGDEjggcvAL43ASOBgKX7wNHzj1Aj1FH8GnhhchbZRU2SxwJIYQQQgjxq5A4coDfK44iIoH7jwFfK88XH49Ey2WRyDk6wkSie6NTVPp353A81zZqMtiJe6MmjS0/IwL/aheOzwaEo5z1u+/mCKw/B9x4BJzxe4Ceow4jZYEFyFVxJTbtvhZ9NiGEEEIIIcT/QuLIAX6vOIrNA0skHbwKzDsSifarIlB4QoQJ//3P9uF4plk4XukQbtzqOG6p9LRIPNMkHH9vzd4lSyQNCketBZHYeoni6D56jTqE5PnmI2e5Fdi0S+JICCGEEEKIX4PEkQM4IY5ic+FWJGYejESTJRHIPYbjkOhWF91zdB0oRXHUPBwvfR81TumZVpzvKCqU99HzD9BvzBFLHC1A9rLLsVHiSAghhBBCiF+FxJEDOC2OyJ1g4PxtYOmJSNT7IRK5RkdgzuFInLoeiW+mROCZplG9Si9bAok9SxyTNGA7sPf0ffQccQhJc83Fl6WWYsNO/+gjCiGEEEIIIf4XEkcO8GeII5vQJ8CeS8DsQ1HR6c7ciETJqVHi6JkWUZHsnmkeYXqOhuwGVu+5hYpNNuL1JOPxebFFWL/dO2eUEUIIIYQQwmkkjhzgzxRHNpHR86X43wO6rYtAhqHheL97OF7uQKHESWQjMXQPMGPVFaTIMxfPvDwEOcouw459ilYnhBBCCCHEr0HiyAH+CnFk8/gJcPZmpIlu12ZlhIlu90KbcLzRGRi0C5iw2A8ffTkT/0o0FvW/344z54Oi9xRCCCGEEEL8LySOHOCvFEc27EU6HgBMPxCJmvMi8M1USxgdBGasuYaS9daiaouNWLPlMoLuh0btIIQQQgghhPifSBw5QFyII0JXO/YkMbz3itPAVj9g89F7mLn0PPYcCkBYWITZRgghhBBCCPH/I3HkAHEljmLDyWRvhwA37j3B9VuP8ORJRPQaIYQQQgghxK9B4sgB4oM4EkIIIYQQQvwxJI4cQOJICCGEEEIIz0fiyAEkjoQQQgghhPB8JI4cQOJICCGEEEIIz0fiyAEkjoQQQgghhPB8JI4cQOJICCGEEEIIz0fiyAEkjoQQQgghhPB8JI4cQOJICCGEEEIIz0fiyAEkjoQQQgghhPB8JI4cQOJICCGEEEIIz0fiyAEkjoQQQgghhPB8JI4cQOJICCGEEEIIz0fiyAEkjoQQQgghhPB8JI4cQOJICCGEEEIIz0fiyAEkjoQQQgghhPB8JI4cQOJICCGEEEIIz0fiyAEkjoQQQgghhPB8JI4cQOJICCGEEEIIz0fiyAEkjoQQQgghhPB8JI4cQOJICCGEEEIIz0fiyAEkjoQQQgghhPB8JI4cQOJICCGEEEIIz0fiyAEkjoQQQgghhPB8JI4cQOJICCGEEEIIz0fiyAEkjoQQQgghhPB8JI4cQOJICCGEEEIIz0fiyAEkjoQQQgghhPB8JI4cQOJICCGEEEIIz0fiyAEkjoQQQgghhPB8JI4cQOJICCGEEEIIz0fiyAEkjoQQQgghhPB8JI4cQOJICCGEEEIIz0fiyAEkjoQQQgghhPB8JI4cQOJICCGEEEIIz0fiyAEkjoQQQgghhPB8JI4cQOJICCGEEEIIz0fiyAEkjoQQQgghhPB8JI4cQOJICCGEEEIIz0fiyAEkjoQQQgghhPB8JI4cQOJICCGEEEIIz0fiyAEkjoQQQgghhPB8JI4cQOJICCGEEEIIz0fiyAEkjoQQQgghhPB8JI4cQOJICCGEEEIIz0fiyAEkjoQQQgghhPB8JI4cQOJICCGEEEIIz0fiyAEkjoQQQgghhPB8JI4cQOJICCGEEEIIz0fiyAEkjoQQQgghhPB8JI4cQOJICCGEEEIIz0fiyAEkjoQQQgghhPB8JI4cQOJICCGEEEIIz0fiyAEkjoQQQgghhPB8JI4cQOJICCGEEEIIz0fiyAEkjoQQQgghhPB8JI4cQOJICCGEEEIIz0fiyAEkjoQQQgghhPB8JI4cQOJICCGEEEIIz0fiyAEkjoQQQgghhPB8JI4cQOJICCGEEEIIz0fiyAEkjoQQQgghhPB8JI4cQOJICCGEEEIIz0fiyAEkjoQQQgghhPB8JI4cQOJICCGEEEIIz0fiyAEkjoQQQgghhPB8JI4cQOJICCGEEEIIz0fiyAEkjoQQQgghhPB8JI4cQOJI/NmwjD169AhBQUG4e/eu+R0ZGYknT54gICAAR44cwf79+2PSyZMncePGDbM+NDQU/v7+OHr0qFl35swZ3Lt3zxw3JCQE58+fN8uPHTtm9rG5ffs2Dh06ZNadPXvWHIc8fvwYvr6+OHDggDkvz8/rCw8Pj7kWruN5WKFwOc/j5+eHw4cPm3U8Z3BwsDker4Xb8jynTp0y92fD43E5E/fnPZOHDx/i3LlzZvnx48dNRUZ4jZcvX8bBgwdN4jb379831/fgwQNzXnvdpUuXYu6J+584cSLmXrkt4fm4nX0N165dM8sJr5PXy+WnT5/+SZ5euHDB3Cfvl3nFZbwG5gfv1c47Ho/5w3WBgYExz5H7MJ9JWFiYuSYu53Xb90pu3rxpnhvXxc5T3rOdp3zuV69eNffK8sBnzPLBdcw7HsMuS8w7PnMm7sNrI8xvex+ej8cnvG7eA++T18ZnZOcpy4+dp/zL++M5eD/cx75u5h3LNWG5tvOO1339+nWznDC/eR7uw3uz84fn4zOy85tlPXae8jhcx/PwmriO5+E+9vFYTniPhM/ex8fHLOc9cx8bHo/LmS5evBiTP8z32O8R85TwXq9cuWLyk/nD58hywmvj+Xiv9jrmnX1PLCd2fvNa7PwmfEb2NfAZ2TAPeY9cHvs94r3yWpkHPBd/83p5DdyHx4+dd3xGLA/Me7vO4D4sw4Tr7Xvlfva9EpZNlimu473aecpnZNdBLOO8B94r84/72++RXQfZ5ZH7MG+4LvYz57XY+/CYdvnhfrHroNjvUew6iOfhdnw+TPxtX3fsvOO+3IfLmZgPzDfCc9rvK/Pdzh8ez66D7PfIzlM+R+Ydl/P5Mr+YBzwP97GPF7sOil3XMTFPbJhXvE8u53F5HsJrYdnict4rnyWvm8mug3gN/Mv7sMsj74/L7bxj2SHMD7ts8b5iP3Pen31tLOs2LOex3yPbuOQ18rpZJ/BcvG6em9fAfXjvPAcT84T5SZh3PBefB89v1zNC/Bnw3ZQ4+oPwpZY4En8WdoO2d+9ezJ071yQ2eGw02GhNnjwZefPmRbp06WJS+fLlMW/ePNPwseEfNWoUChcubNbVrFkTu3fvNsdmQ9SqVSuzvGjRoliwYIFZTlavXo1s2bKZdSzfPA5hA9itWzekT58e+fLlw5QpU0wjygaOv7ns888/R40aNbB+/fqYxr179+7IlSuX2Y/nZMNMeF+8Jp6nYsWK2Lhxo1lOJk2aZJYzcX+7oeT9N2nSxCwvUaIEli1bZpbTeO3Xrx+yZMliUrNmzUzjTGOBDXGLFi1i1vXp0yfmnlasWIFSpUqZ4zVs2NAYKYR536tXr5hrGD9+vFlOtmzZgsqVK5vl1atXx65du8xy3mvbtm1NHuTIkcPkFfOZBinvrVatWvjiiy+QJ08eTJw40RhBbOinTZuGAgUKmON17tzZGO+Ehk2jRo3Mcl43r9Vm4cKF+Oqrr8y65s2bGwOGME9r165tlhcsWBDDhw83goTlgc+YFT7XFS9eHEuWLDEGGkXAoEGD8OWXXyJr1qxmH1vw0XC09+H5mKeEz515kjNnTmTKlMnkFZ8BDUGWn9KlS5t9SpYsiRkzZphyzPsZN26cKW9cV7VqVWzfvt0cj8ZZu3btTBlhXsyaNcssJ8y73Llzm32YhzScCJ8hz5shQwZTvsaOHWvKHK+N5+RxeLwqVaqY+pnraPjx+dvHa9q0qblHwnJSr149s5z3vGbNGrOc8HhczsSGk8ciNKhbtmxpljN/+FyYB2xghwwZYt4j5g/LFssJyyPLMMsJ8ztjxoymfNvG5bp162Lym9eyb98+s5wMHDgw5hpGjhwZvRTYuXOnKYdcznLJ8kl4rx07djT5kz17dvOb18vyuHXrVnN8ruMzHD16tCkjLA9z5syJqTPat29vjFjCOofvEZdzP96rDd9Dvo9cxzLLeyQ06HlslkWWe94D75UGL8tfhQoVzD4sE/PnzzfvA6+D9RbLPNexPNv5w3esUqVKZjmPyXsnNLxZB/EcvLauXbvGvEd8B3v27GnKSJEiRUy9yefDxN98F3g8XsumTZvMPjwfnwuXMzHvbMHAMmu/ryxbdv7weLw/Pm/mN98jlnvWJRQdzDu+X3y+S5cuNe8/r5HvXv78+c3xGjRoYEQcYblkPWZfA/PRhu8y6xIuZ53KPCPMH75HXM575bOkAOO123UQyx3/btu2zZRHCpgOHTqYa2bederUyZQdwnLC95THY1mN/cx5f/a1DR48OHppVB1Up04ds5z3yjLNPOA10tgsU6aMeS943SwnvAY+R947z8F1fHdsIbZjxw7znnN71guxRaIQTiNx5AASR8JJWJ5ogNhfmGko0GBjw0xjjgYLjTQaNzRoW7dujWeeeeYn6T//+Q969+5tDFF+QWT5tNclTpzYGCSERhcbantd3759zXJCA9Ze/umnn5rjEBrgNADtdTTwaCSy0eNve3miRImMocLl/Ar4zTffxKxjw7dnzx5zPBpUvCYuf+uttzB9+nSznLAhtPfh/vZXYBp+FB9c/uKLL5oGmrAxp3Fj70MDhe8kjbC1a9caQ8tex0rPvicaHP/617/M8rRp08YINBqJNPDtfWik2MyePRvvvfeeWZ4wYUIsXrzYLKdwoAFm78O8Yj7zeVIAffzxxzHraFCz0qVhwIrYXk6DhsYK4ZdSGhj2OhqMNgMGDMDf//53szxz5swxonf58uVImjRpzD5169Y1xhu/2PIZv/7662b5c889ZwwQik6KJxpA9j40RtlAEBpH9j48n13P8bkzT+x9KDD5DCgMWH5efvlls/yf//ynEXwUMrwfihF7nw8++MAYxISilIatvY7GrQ3Lhb2ceUgDn/AZxn5GFM0sc7w2ntNe/v777xvhxHeLvQ18/vY6Gpi8R8JykjJlSrOc9zxhwgSznMQ+Hj8C2MYoBQ+NTS5n/vC5MA/4pZsfCex9WLZYTlgeN2/e/JNywvJti1sa63Z+81pWrlxplhMKH3uf+vXrRy+NEsosh1zOcsnySXivFBD2PraYYHnkhxb7Xpko3lhnsDxQFNjL+fGFdRCh+I39HvFebfge8n3kcpZZ3iOhMKHRa+/De+C9sv4aOnQo3nzzzZh1FK004llWY9dbLM/2BxXWJ++++27MOttYZ10Zuw4qVqxYzHvEd5Ai3V7Xpk0b83yY+PvZZ581y3ktrF8Jzxe73mLe2YKYZdZezrJl5w+N9tjPiO8eyz3rEn4wsPOOz3fYsGHm/ec1xn73PvvsM/NhibBcUqzY65iPNvwQZC9nPc5nR5g/bCvsdT169DDtBa89dh2UJEkS8xGN5ZFij+LM3oftjC1uKa74ntrrYj9z3p+9vFq1atFLo+r15MmTm+VvvPGGKdNsz/hc+/fvj1deecWsY1vA+pzXsGjRInPv9vFYvpmffK5jxoxBmjRp8O9//9t8TLOvje8ZRSfzi3UL81mIP4rEkQNIHAknoOFPA3XDhg2YOXOmMdLY2NFQoDFDA/D55583RgG/MrKhY4M3YsQIU/bYqNuJxgx7XWh8sPGnwUHDjOKDX0jtr8pslGm8cTnFBsWMDQ0OChwKrbJly5rjEBq/NIi5T6pUqYxBROOeX0D5m8vefvttIwrYQHI5DSF+MU2WLJnZj42b/aWejT+viddNgzO2IWgbTrwG9oywkSRsDNnLxHU0NmjkETakrNASJEiAjz76yHzR5RdH5hOFAxtvLmeiEWV/iaahQ+OCx2Ovm/2lng0txSfPz3X8ImxDQ4fGEpfTCLMNQRrt/GLKPKDxwbxiPvN5sdfn66+/xjvvvGOMUgoTGql89uwFoAhl/jRu3DhGuLFM8Jp4DbwvW0gQCgYaTtyHxpVtMPBrMI06Lk+dOrX5Ys6eFgoDPmMa5VxH8civsPzizi+0/FpMA5vPnQYVtyc0trgPr4HnY54SPnfmCQ1XGk8Us3wGNFhYfvgVmuehcKBxwwaH90PjiuWN62iE2YYg3XBobNnXTYFlw3JBY4vXwDxkLxNhueQz4nvB8kXDi2WO18Zz8jg8XqFChUwjRyOMxjqff4oUKcw69kLwHgnLCUUenyvv2Ra9hMfjcl4DDTeeh1CAsNeG65g/fC7MA76/FHjMT+YPnyPLCcsjyzDLCfObxjXLt/2lnj0KPDePx2uxe9YIP5JwORM/gNhQ0LMccjnLJcsnsYUJ84dGMX9ThLI8so7h8bmOz5DCmXUGywNFoV1nsHfJFm5cz/eIecD9Yn/M4HvI95HXwI8UvEfCssc6iM+C5Z73wHuluKSI43vP89h1EN9zlj3uwzLPc7E80/glvBb22nA5j2l/zKCoYx3Ec/DaKMLt94jvID9GsIywJ5HChM+Hib/ZW8FriF0H8Xyst3g/PBfzjuWKsMzyfeVyli07f2j88/74vJnffPdY7lmXsB5n3rE88PlSdPD95zXy3bPffxpk7HkhLJcUW/YzZ57YTJ061dQlvAbW43w2hNfCssVjUaSyh5rtCK/droNY7pin7NFheWRPFe0Yfqhi3rHnjz1QhL2nfE95HpbV2M+c92dfGz8e2LBeZy8il1OosUzbH/4o0NirznxgW8Bywmtgjx3bGuYdRRLrf94T84h1Jd//l156yeQH3znC9ezx4j3xfaC7ngSS+KNIHDmAxJFwAhoQ7MFgQ0sjgcYXe1dY0dOIpwFIY5vGBw0INnYsezSIuR8bBho3/JrIRpNfMtkY2l8FadjRcKQxbBthbMjZi8Tl/Kpuu3IQGvlskPgFmQY5j0PYuNHw4j406HmNNKZo0PA3l9H45Xn45ZXLaXjTEKPhwv14TvsrJw0QbsvrZqNJY86Gx+M9sQFmA203ejSwaXxzHzb8ttDiNdJQ4nXTxYNfIm2/deYhDV0uZ6Jxw0aX0HDicXg8VoS2ywbzl8YD3TlolNiuc4SGA78wcx9ev22s814pCpkHNLqYV7xX5gPvjQYR11HU0hCnMGL+UZCxV4j5w3rErox5T3SfoVjhdbPxt6GBQLc27sN7tfOUbjo8D5ezbNBQ4b2yzPAZs/xwHfdl+eF92sYJ846J+3B7wi/f3IcughQstksbr5t5wvukYOcztssJyw+/FvM8zFvbvZHruQ/LG9cxD20Dlg0S886+btu4Jsw75hnLI+8tdv7wGTFPWb4o3JjXfOY8J49jn4fXxHU0qPj8eTyuY1myXSxZTvg1nc+V92wbvYTH43I+CxqZPBZhbwrLNNcxT23DjQKEYoj5yfzhc+S7x2tjGeO92utYvm0xyveG5+bxeC22axhh+ea7zvJIEWzD8me/RzRebTcv3iuNfeYPjU1eN++V185teHy7rDLv+IxYHmiU23UGeyJt9yau53vEPOB+9r0SvodPe48oglgH8Vkwz3kPvFeWfe7D957nsesgvucse9yHZZ7n4jO3e+p4LbxHlgUe0373eN2sM3gOXhvfPbucsK6z6yCeh9vx+TDxt/0exa6DeD7uY9dBzDuWecIyy/eV18CyZecPj8f74zNlntpua7w2vjfMOz5zPl/eO/OA18h3z37/Wd/aH6NY1/Hdtp95bKHMvOJ9Mn9Y/ngeYtdBdp7yWfK6mfgBgnnJa+BflgGWR5YJ3h/LCI/JMmOLLW7De+R5eF+xnznrCV4Xr8/+QERYr/P4LAu8V5ZpfjDgc6U4Z93Aa+B18x55DXyOLI985ixH3M7OH747FHwU8/wgY78T3IbumOydppDm87XrICF+LxJHDsBKT+JI/FbYGLDxZWNqu+CwAabbAF0K+LWdjRVhGWMjy0afDQ0bJ1so8C8bfhp1NEbY0LBxpLHL/biejQUNZ67jS28bdWwsaaRwOddzHxs2Ymww2cixkbTPx3143fY+/HrO62fiby7jfjwPj8Hl3IfGOY1I7seKhvdP2PhxW/u6bYOcMG94TzQqeE4ei3BfHoP78N5to4DXaJ+H18BteK/cj395r1zOxO3se+L+PM7Pr43wvDw/n4/dU0B4nfZ18y/vg9h5ynPwOrg/j8dr4D7MS3sdj8dnxHW8V/sZcR/72viX+/A5cD/7XskvXTfvlftwOY/J58/j8Dx8xsxnruO+9jPndXA7XhcTf8fOb+5Dw57Hs8sP1/Me7PyOfd2819jn4f3Z5dEuJ1z3tLyzr5v72PB4PM/PyyP/8ryx85TX9fM8/bXlMXbe8fpj5zePx+U0zHiddv7Evu7Y5ZH3y/Pw2ph4XLs88nzcJ3be8Tgkdt7Z+9jweHzXWR5jG4E/f49i52ns/OE57fLIbXj82HnHayYsF3becR/72rie+fVbyiOfkV0H8Ty8Bx6Px+I+9nVzPc/La2PiPjzH0+og3iOXcx/7XskvlUc7H7gudnlk4m/7uu1yQrgvr9Wug2I/c56T5+Y1cJ/Y+WM/85/nKZ8j84XL7bLFdbHzh9cQ+5nb+zztmTOv7Pzhtdnn4bXw3zwW7yt2nvLeeHxeA//yPrjcLo88np139j1xG94jyz3XxX7mvB5eF68v9rXZ+/AaeK92nvJcvB4u47HscsLl3Me+Ni7n+e3t+TGKQowfQvhBh8+M6/ihhQYsXffYS0VByO0JP2xwe/61zy/Er4FlV+LoD8IKSeJI/FrYELIB4BdAfiVj5c1GkY0gvx7SfY4uLnQ3sAcaEzYUrODZgNgNvhBCCOHNUATZIpLtoC0C+W/28rF3jO64dIGkgOI2NGbp0kqXPhq5FFQ8jhC/BokjB5A4Er8FvmR0eaBPPsd82OMQCL/ccTwQfff5RYxf14QQQgjxUyh22IPEHi2617GHiD1e/PhIlz62r/TC4Dgzuk3aPZlC/H9IHDmAxJH4LVAA0TWO/tGsuDmOiBW5EEIIIf4YNGw5Jo1BJNjO0kWdY8liu3navU9CPA2JIweQOBL/H6yMbb9qlhcOALYjtDG8LF3r1OUvhBBC/DHoVscxUBREjBzIvxyXRZd0/mUgHAaz4HgstbviaUgcOYDEkfhfsIuf0YYYfceem4W9R4wARV9pRs3igFYhhBBCOAPH8jI6Hw1dwkAPDGrEsN8MqU6jl22xED9H4sgBJI7EL8EXikEXOO8Q57DgXBZ2mFh9sRJCCCH+GhhOnMYu3dn/9re/mXnZYofJF8JG4sgBJI7EL8H5cziB4quvvmpmzs+aNetPJvEUQgghxJ8Pw4HXqlXLiCNOJtu+fXt5bYinInHkABJH4pfg/BicpJCzgbPnqHHjxsbfWQghhBB/HTRwly5dirZt2xrDlxP82vNJ0Y7jVBn8K4TEkQNIHInYcDAo/ZjtifIYWnT27NlmNvATJ06YZUIIIYT466Aruz05LccjcdJaGr1sl2m7cUoNrhNC4sgBJI5EbDjXwtSpU81XKXuwJ18szgauyVuFEEKIuCc4ONhEiqX9ljFjRtSuXRsHDx6MXivcjMSRA0gcCcJQ3YxG17NnTzOvQrFixYxIunfvXvQWQgghhIgPUBxxPqSkSZOacUicE2nmzJlmYlnhbiSOHEDiSBD6K69evRolSpTA888/jxdffBH169fHtWvXorcQQgghRHyAbnYbN25EoUKFzJyDuXLlMuJIHzSFxJEDSBwJwnLAUKEc7JkkSRKkTp0aAwcONPMcCSGEECJ+wVDeFERjxozBihUrcPHiRU2zISSOnEDiSMRm//79GDp0qJn09fjx4zHRcIQQQggRf6A7PMcG0/PDhuODOXZY7nXuReLIASSOBLvh6T734MEDEw2HlSr9mRWAQQghhPAMfH19MWLECLRr1w579uwx0WeF+5A4cgCJI3dz48YNE3ihadOm5i9DhAohhBDCc7h8+TJatWqFFClSGNf4vn37GrEkNzv3IXHkABJH7oU9RIsXL0a2bNnw7LPPomDBgiYoA7vqhRBCCOEZ0JWuVKlSePXVV/HOO++gZcuWOHbsmLHxhLuQOHIAiSP3EhgYiN69eyNhwoT429/+hkyZMmHGjBk/8V8WQgghRPzm5s2bxvujWrVqqFq1KqZNm6Zosy5F4sgBJI7cC8carV+/Hi1atEDp0qXRvn177Ny5Uz1HQgghhAfB8UUUQxxrtGvXLly9ejV6jXAbEkcOIHEk/P39sWXLFhOdjq528lEWQgghPBPadQyqxN4kTsfBQEvCPUgcOYDEkSB0pVNkGyGEEMKzYQ/Shg0bzPxHdK87d+5c9BrhBiSOHEDiyJ0cPnwY06dPx5w5c3Dw4EEEBQVFrxFCCCGEJ8IPnZs3b0bt2rWRPn165M+fH+vWrYteK9yAxJEDSBy5k8GDB+Pjjz9G6tSp0blzZ+NSp54jIYQQwnNhO04xlDlzZjzzzDNImjSpiUord3n3IHHkABJH7oTBF1hxMlWqVAknT540ZUEIIYQQnglF0IkTJ0yQpQQJEqBcuXKmJ0mTursHiSMHkDhyH6GhoZg8eTKyZs2K5MmTm/kQGNZbCCGEEJ7N/fv3sWjRIgwfPhwbN27U5O4uQ+LIASSO3EdISAguXLhgutoHDBiAZcuWGcEkhBBCCM+HEeo4/ohTc7B9p7udXOvcgcSRA0gcuRdWmoxqw1CfQgghhPAOKIQoiugVcujQIZw6dUoTvLsEiSMHkDhyFxREnPvA19cXly9fNhPBaqyREEII4R2wl+js2bMmGm2HDh3QoEEDTJ06VVFpXYLEkQNIHLkLvjR0o+vWrRt69OiBJUuWmElghRBCCOH5sMdo165dqFWrFt5++228//776NKli2n/hfcjceQAEkfugmONGKmOgRiSJUuGRo0aYe/evfJFFkIIIbwARqY7evQo6tevj9deew3vvvsuunfvLhd6lyBx5AASR+6CM2U3b97chPhk4kRxO3bskDgSQgghvAC25zSQ6RnSrl0741q3Zs0aBAcHR28hvBmJIweQOHIXAQEBxveYPUZNmzbFxIkT4ePjI3EkhBBCeAm07RjSm20+E39zmfB+JI4cQOLIXTC855UrV0zkmjNnzuDq1av6miSEEEJ4IXbUOrra6SOoO5A4cgCJI3fB5815jvgViYmhPTVzthBCCOE9MBItxxNPmTIFY8eOxfr16/Hw4cPotcKbkThyAIkjd8EKc/fu3Zg3b555afibs2fri5IQQgjh+bA99/PzQ58+fZAyZUokSZIEdevWNfMaCu9H4sgBJI7cBaPVderUCV9++SVy5cqFjh074uDBgxJHQgghhBfA9pzzHDH40jPPPGNSkSJFzNyGwvuROHIAiSN3wbFGnPvg9ddfN+E9a9Soge3bt0scCSGEEF4A23P2EtGlrmTJksiWLZuZ15BGs/B+JI4cQOLIXVy6dAkDBgxA8eLFUbp0afTr1w/Hjh2TOBJCCCG8BAZfYk/R/v37sW3bNtOTxMAMwvuROHIAiSN3wQGZFEMcnLlx40bzmy+OxJEQQgghhGcjceQAEkfugiKI0enCwsJMUnhPz4DvKZ+V0o+JeSKEEOK/YbvOniJO1cEItexJUlvvDiSOHEDiyF3QqGRlGRQUZBJ/P3nyJHqtiI/cvn0bp0+fNoEzmA4dOuTqZOcB84TRF4UQQvwIRVBgYCDmzJljxhVXq1YNQ4YMMW2J8H4kjhxA4shd3LhxA0uWLEHv3r3Rv39/LF682IT8FPEL9upxgt49e/ZgwYIFGDFihBkfxsTn5uZk5wHzZOnSpSbICA0BCn8hhHA7FEf8eMTgS3a0usyZM8PX1zd6C+HNSBw5gMSRu2CFyef93nvvIVGiRKhXrx527typ7vZ4BF0hTp48ifHjx6NJkyaoWrUqypcvrxQrlStXDhUqVED16tVNIzB79mycO3dOvaBCCNfD9pwBGJo1axYjjgoXLmwCMgnvR+LIASSO3AWNbnaxv/jiiyacd+XKlbF161aJo3jCo0ePTHShgQMHGlHEBq1AgQIoVKiQmadCKSoxX5gnzBtGXqTIHz58OHbs2IG7d+9G56YQQrgT1oNbtmzB4MGDTXtCL5H79+9HrxXejMSRA0gcuQt77oOGDRuiadOmmDRpkvnCJHEU93DALMfT9O3b14RZpwD4+uuv8c033yj9j0RxVLRoUZQpUwZdu3Y1eageJCGEEG5E4sgBJI7cBcey3Lx503Svcw4E/mZvhYh7Ll68aL7ylS1b1hj7xYoVM8Z/iRIllP5HooBkXrEXqVKlSpg5c6b5CCDBL4QQwm1IHDmAxJEQcQ+jrq1du9a4h+XNm9f0hjxNCCj9cqKbHcVk586dzTg69sQJIYQbefDgAY4cOWIC+tBDZPv27Sakt/B+JI4cQOLIXXCwPyPWMWoNo9Txt3qO4p7z58+bAAwcD0Yjn70hTxMASr+cvvrqKyOOGKFp1qxZCvMthHAl7DWnZwg9Eb744gt89NFHJrgPo3oK70fiyAEkjtwFRRHDeBcsWNAYk7169TJfl+SCFLccO3bMDJqtWLGiCTggd7rfnigo2eNWqlQpDBs2THN6CCFcCdvzn0erY7tCwSS8H4kjB5A4chccrJ4vX76YCjNPnjzmuUscxS2HDx82gRgYnprjjSSOfl+i4KcRwLzkeDohhHAbbM85T97o0aONm3bOnDnRvn17XL9+PXoL4c1IHDmAxJG74DxHdevWxVtvvYUPP/wQtWvXNuGPJY7iFvbecXJT9hxJHP3+RHFEt0T2jtJlVAgh3AjHF9Fdm+G8OZ6V3gkah+kOJI4cQOLIXXAcxt69e80Ls2jRIuzZs0dGZDxA4siZRHFEl1G6i6pcCyGEcBsSRw4gcSRE3CNx5ExSz5EQQkTNm3flyhXjSs9IdefOnTMBmYT3I3HkABJH7oMudLGTiHskjpxJEkdCCLfDdt2e8J0BarJnz25602k0C+9H4sgBJI7chV1hNmrUyESymTx5solqI5EUt0gcOZMkjoQQboftOXuKWrZsieeee84EX2IkT0WrcwcSRw4gceQuaIQz5LEdrY7G5Pr16yWO4hiJI2eSxJEQwu2wPb948aKZEPvtt9/G66+/btoWRrAT3o/EkQNIHLkLRqwpU6aMEUZ/+9vfTJf7xo0bJY7iGCfEEfeh8PX0xPv4veJQ4kgIIWDqv4ULF6Jhw4aoUqWKCevtCUay+ONIHDmAxJG74ADNMWPGoFq1aqhTp46pMBneW8Qtf1QccXvuV6BAAeTPn9/89dREccN7oVB62r3+ryRxJIQQMMEXAgMDcerUKRw6dMi41D158iR6rfBmJI4cQOLIXTCCjb+/v6kwz5w5Y34HBwdHrxVxxR8VR+wBrFSpkpm3ql69ekb4elri/FtMNWvWNPdSunTp35wPEkdCCBFl27G9v3//vjGOOe+RPETcgcSRA0gcCRH3/F5xZLuhcb+ePXti6dKlZgzZihUrPC6x/lm9ejXmzJljIiuxd5Ni59f2IDEfuH3hwoXRp08f3Lx5Mzp3hRDCXTx48ACHDx/G3LlzMWHCBGzdulUfQl2CxJEDSBy5C1aYR48exZo1a7Bu3TpjlN++fTt6rYgrfq84YgQiblu9enXMmDHDVIr8QsjJfj0t8QsnyydndZ81axbq169v8oL3+LR7/3mSOBJCiCjoQj98+HBky5YN6dOnR6tWrXD9+vXotcKbkThyAIkjd8EINt26dUOOHDnM2JQuXboYf2R1t8ctf1Qc1ahRw1SCYWFh0Uf0XNiAcyBxgwYNfpM4YpJbnRDC7bA9ZyhvCiKF8nYfEkcOIHHkLk6cOGHGczz77LN4+eWXUaFCBWzZskXiKI5xQhxRUISHh0cf0XNhj8+iRYskjoQQ4nfA9tzX19d8CP3ggw/wj3/8w0Ss4xhj4f1IHDmAxJG78PHxQdOmTZEkSRKkSpUKTZo0we7duyWO4pg/Ko4YxGDJkiXRR/Ns6GLHsVMMQStxJIQQvw2253fv3jUfPgcOHGgMZX5wouuy8H4kjhxA4shd0GBkD0P37t2NAckXh1+YJI7iFifGHDGQARs/Rijy5ETXDw4iZr0kcSSEEL8d2nYM581xnEFBQXj06JHaeZcgceQAEkfugmNSGICBgzU5WzZ/0yAVccvvFUd2JDe6R9KFghUhe10WL17scYk9X0wMLEHxrmh1Qgjx+7DFESPUsTee7bzEkTuQOHIAiSN3wTEp7F3gy8PE394wiN/T+b3iyN6O8xxVrlzZRHjjWB3+9bTEeoiJcx7RP75MmTLm/n5LXkgcCSEEjEHMaR3Yi87AS/PmzTMiSXg/EkcOIHHkLthTxDDeI0aMwOjRo81v9iLpi1Lc8nvF0c9TyZIlPT497b5+bZJbnRDC7bA9Z2Tazp0745133sG///1v07bQW0R4PxJHDiBx5C7Onj2Lli1bmuedLl06tGjRAnv37pU4imOcEEd0P+P4HAoET068B3ty26fd5/9K3F/iSAjhZtiec7641q1b44UXXjChvFmn8kOo8H4kjhxA4shdnD59GnXr1sWbb76JDz/8ELVr18aOHTskjuIYp3qO3J4kjoQQboftOes/Gsa07+iiPHLkSI8wksUfR+LIASSO3AW71ceOHWtCP9erVw9jxowxgkniKG6ROHImSRwJIQTw5MkTYxT7+fkZjxFOru0N8+CJ/x+JIweQOHIXDOdJX+SDBw/i0KFDuHDhggnKIHEUt0gcOZMkjoQQQrgZiSMHkDgSIu6ROHImSRwJIUTUtB00kvkBlCkgIMD0JgnvR+LIASSO3AUrTIY4vnTpkplsk7/ZmyTiFokjZ5LEkRDC7dAThC70jEibN29e5M6dG+3btzeudcL7kThyAIkjd3Ht2jVMmTIFjRs3NpHq+Jv+yCJukThyJkkcCSHcDsXRyZMnzXxxjFTHxOi07EES3o/EkQNIHLkLVpg1atTAyy+/bCLWVatWDdu2bdOYozhG4siZJHEkhHA7bM8phDp16mTaec5zVL58ec1z5BIkjhxA4shdMDIdo9S99dZbJpR3nTp1FMo7HiBx5EySOBJCCODBgwc4evQoFi5caAzknTt3IiQkJHqt8GYkjhxA4shd0GBctGgRunXrhl69epkXh6E+JY7iFokjZ5LEkYhLOH7z8ePHCA0NfWqicXrv3j3cvn3b/P2lbbmcx1K9LIT4rUgcOYDEkbvg82ajy69KTPytuQ/iHokjZ5LEkXAaChTWmwxm83PxQrETHBxsxA6nR1i/fj02bdr0X2nz5s3m75o1a4yxMnPmTPORauPGjdiyZct/bc/EY+3fv98EzeE5mHi+2IKK18T6WyJKCGEjceQAEkdCxD0SR84kiSPhFEFBQTh//rwRPRs2bMD06dMxfPhwDBs2zLyrjP7VsGFD037Wrl0bpUqVMmWvcOHCKFiwIAoUKPBfKU+ePMiaNSsyZcqEbNmyIX/+/E/dlsfh8pIlS6JWrVrmHExNmzY1vf68hhEjRmDChAlYtmwZ9uzZgzNnziAwMDD66oWboVhm+aXL/KhRo9CjRw+sWLHCfBAV3o/EkQNIHLkLfn1kI7p9+3bjg8zfrERF3CJx5EySOBK/Bfa8sNeHUxucOnXKCCEalMuXL8eYMWPQsWNH1K9f3wifzz//HAkSJMAHH3yA119/PSYK2F+dXnzxRXMNiRIlwqeffmrEFIPstGvXDgMHDsSCBQtMkB0KJo45OXfunJnjRuNN3APFka+vrxFFLCcvvfSSKSOMViu8H4kjB5A4chcM292qVSvzvBnak+G89+7dK7eMOEbiyJkkcSR+DZwM09/fH7t27cK0adPQpUsXYzyyt+azzz7Dxx9/bAQIA9e88cYbJrrnc88991Sx8vP0j3/8wxikadOmRerUqc3x7MR/M6VJk+ap67g8efLkJsLY3/72t6ceP3b6+9//jn/+85947bXXzD7vvvuuOTfr9y+//NL0PDVp0gRDhw41vV+MVqaJQL0ftucUxS1btowpt6wbObeh8H4kjhxA4shd8MsoXTvsxjVXrlzmuUscxS0SR84kiSPxS9Aw5FieGTNmoH///mjUqBHKlCmDLFmymMidzz//fEy9GDuxlyhx4sSmlyZHjhwoXbq0eU+rVq1qjkEjpHv37ib17NkTgwYNwuTJkzF37lzMmTMHs2fP/lWJ23Ifuu9x8k7WB/ZxO3ToYM7FqRcqVapkroHXwg9cvK633377qdfORHHHbfhuNGjQwPQmjB071rjjsd65f/9+dA4Jb4K9hSzrFSpUMOWc5YlGs/B+JI4cQOLIXfBrUtu2bc1XzYwZM6J169bYt2+fxFEcI3HkTJI4EjZ0I2PvEOd2W716tXm/aCSyh4ZuRrEFBP9NgfHRRx+ZXqNUqVKZMUEUIc2bN0efPn1M7wsFDN2RDx8+bFzWKLj+Cnc1Bn+4cuUKjh07Zs7NHi8KKYoojj2iSx3vjdfMXqhkyZIhYcKE5p7Y6/Xss8/G3Ct7pHif+fLlM2OYpk6digMHDpiopRJK3gMDdnAMGt1F2b7QdZRupML7kThyAIkjd8GGnIOM6UrHSEgUSwwpK+IWiSNnksSRIDQGGAmOk2CyTPBjEMcLUSjEFkVMSZMmNe5nDLDAwevz5s0zkeIoGE6cOGEm06TIoqF59+5dY3QyQhzbzr8anpPn5jXwWljGr1+/boQNr5XXzDFTHHzPYA22gZQ+fXr861//+sl9v/DCC8ZtkG587IVizxTHK3GsSlzcmxDCGSSOHEDiSIi4R+LImSRx5F7Y68EgBOwJYSAFCp7333//J4KA43I4rofvGCPMUTyNGzcO69atg4+PjzEivGVqA+YH74muhHTV47x2nACc+cLxSOxZip03FE90uWZv0siRI424pGuW8EwYfImTvrPXlKKXwpk9kML7kThyAIkjd8HBuPziyKg1bPjsL6EibpE4ciZJHLkPGoHs7aAByKAKHD9EY5/uYwyO8Oqrr5rgChxfyeAENPw57xDrP7oZsU70Zrdi3pvd28ReJrpRz5o1ywShYBQ+jkf697//bQI7MMAD847//vrrr03EProPyrvAs+AzpxsmXS6zZ89uegfpQs/nL7wfiSMHkDhyF3S/GDBgAIoXL2786TkwmX7sGnMUt0gcOZMkjtwFpyFYuHChmW+IcwfRqLd7QuhClzNnThOxa8qUKSa8Nb+k88MQJ1J1K2zzGb784sWLxrWaYcsZSIJ1DkWknX8USxx7Va5cOUycONG0HcIzYHtOl3lGo7WjHhYrVkzR6lyCxJEDSBy5Cw7mpfFoN4CcI4OztkscxS0SR84kiSP3wB4NBkngpKuc+8eu0xhwoXz58ujcubMJWsCADApf/b9hLwPdr/ixrEqVKsicObPpcbPzlMKTropbt25V0AYPgO05e1Mpehlpke6lNWvW1DxHLkHiyAEkjtwFDQWGg+VXQYZ4ZUPIBk/iKG6ROHImSRx5P3QRY283AwjQ6GMkNrqDca6f3LlzmwhuDKJAI549RKrbfh10u3vw4IExqikq2TawJ4n5y8T8pRve0qVL8fDhw+i9RHyFvYMcS9etWzfTe8pw8XKPdAcSRw4gceQuGHGJ4WgZzptfAllh0pAQcYvEkTNJ4sj7YaTNxo0b/yTYQtasWc1X8rVr1+rruANwLCrzmWNWGMDB7kWiqyLfL3obiPgNe0vpdspeQbbxN2/e9JpgI+J/I3HkABJH7sKuMCmSmPhbARniHokjZ5LEkffCuovjZNjo25Oecn6i/PnzY9KkSaY+E87CngbaBZw8lqHQbTFauXJlM6G4op/FXyiE2MNHUcTgI3yWtPeE9yNx5AASR+6CLiZ85qw4mfhbbidxj8SRM0niyHvh82RPxueffx5jpBcpUsS4eXlC4++pcG48umM3a9YM//nPf0y+v/766yYIBgf9i/gJP3xu377dvDMM487AG3SbFN6PxJEDSBy5C7pLsMLkvBcM58rxRvziKoEUt0gcOZMkjrwXzvTP94LBFzgGhs968eLFGv/yF3Ho0CETCt2OCMiJdTlZrnoj4h9szy9dumQCbHz22WdIkiSJ6f3TvFXuQOLIASSO3AW/9HG+A85twS+wHKjJeS8kjuIWiSNnksSRd8Jebg4uZ71Fw5wTmPIDj5tDcscFDIfOCWQZHvqjjz4yE+hqkH/8g+25Qnm7F4kjB5A4chcnTpxApUqV8Nxzz5nBtRUqVMCWLVskjuIYiSNnksSRd8JnOWrUqJhxLzly5MCOHTui14q/Ch8fH1StWtVEO6WLXatWrUyPnohf/Lzn6J133jF2nnqO3IHEkQNIHLmL8+fPo127dkifPr2Zy6JNmzZmIkCJo7hF4siZJHHknTByWu3atWNcuhiEgcvEX8vZs2dNpECOOaJ7Y/bs2TF//ny51sUz2J4zlD2DZtB9nuHtN2/ejODg4OgthDcjceQAEkfugi8J/cTHjh2LCRMmmN/+/v4SR3GMxJEzSeLIO1m2bJl5rvZkrxkyZFDPURxw+vRpM/+RHdr7zTffxIABAzTJbjyF7ToT3VLVxrsHiSMHkDhyF6wkGbGGE8TxheHvsLCw6LUirpA4ciZJHHknK1euNM/2X//6lzHKkyZNaj7siL8W9kRwol26ZfM50LWO9ZbEUfzDnraDHz/9/PxMm8/2X3g/EkcOIHHkLiiEOO8B/ZE5OJMvkeaqiHskjpxJEkfeCcdFsseC7lw0yt944w307dvXGH7ir4FuWgyCkThxYvMMmPh7+PDhEkfxENZ/CxcuRKNGjVCvXj2MGTPGI4xk8ceROHIAiSN3cf36dcybNw8dOnRA165dzW/Onq0u97hF4siZJHHknezevRt169Y1blw0yhnKm0EZOPkrv46LPxdGBVy7dq0J5sNAPrY4ot1AF231SMQv2J5zfHHbtm1Nbyt7+kqWLIkrV65EbyG8GYkjB5A4chdnzpwxk/cxDCtdUzj3wa5duySO4hiJI2eSxJF3smfPHvP1+6233ooxzF966SXzrPmBR+Gk/zwofDg3Xo0aNUzUMzv/GSKakdDGjx8vcRTPYHvOj54dO3aMmbi3XLlyuHr1avQWwpuROHIAiSN3YYujDz/80EwMx2cvcRT3SBw5kySOvBP2HNWpU8f0HPEr+D/+8Q9j8PE3nzejcR0+fNi4fglnoKsc24s5c+agevXqMZECGcab+f/3v//dzDslcRT/YHvOMUacG6x79+5m8t7Zs2frI4JLkDhyAIkjdxEYGGgau/bt26NTp06mwpRbXdwjceRMkjjyTiiOGMqbX8HpJpQoUSIz7ojudc8//7yZFJYG/NKlS00dx7GVbNvEb4PtAEURRebOnTvNhOHsHWKUQIoh5n+6dOnw/vvvm3/TbpA4ip+w/IeGhuLhw4dGFHFssdp5dyBx5AASR+6ClSWNB86eTVHESeFCQkKi14q4QuLImSRx5J1QHNWqVcv0XlAcMWIa3eyKFCkS4+bFYA1c3rJlS0yZMsX0iN+9ezf6COL/g8Yze984b1GXLl1QvHhx435t5y/nxqtfv76xF1KnTm3c6lKkSCFxJEQ8Q+LIASSOhIh7JI6cSRJH3klscfTCCy+gTJkyWL16NRYvXmyCBDBqGo11GvHsTWLvBsfIjBw5EmvWrDFGP8MZUyypRykK9igw2t/Jkyexbds2TJ482UzwmjNnTjOeyxZFHGdUsGBBjBo1ykwkOmTIEHzxxRdmXfLkySWO4in86MkPoFu3bjXp+PHjJrCG8H4kjhxA4shd8OsgjQQa40ePHjW/OdeRiFskjpxJEkfeiS2ObFc6NvqHDh0ydReN+z59+sQY7Ewci/Taa6/hgw8+QKpUqVCqVCkTnZO9Iqz33NyjxDaARjPb+8GDB6NmzZrIlCmT6SVi/trjuZgSJEhgBBONaxpcHNBPwZkmTRqJo3gM3efYtvO9SJkyJZIlS2aiPV67di16C+HNSBw5gMSRu+DcRsOGDTMvTeXKlTF06FCcOHFCvshxjMSRM0niyDuJLY441oU9RxQ5Nr6+vmb8JMfIMGQx3b24nW3kM3FcUq5cuUy916pVKwwaNAgzZ840cyjRzdgbgzmwp4Bz2jH/OOcNA1dwrCnHbxUuXNi0+xxPFDufKCgLFChg7AL2FnHiVxsaXWw/GIiB20ocxU/YnvOjAcu6/VwpaCmKhfcjceQAEkfugkKIFSa/rHK+igoVKhjjQOIobpE4ciZJHHknPxdHpUuX/onRbsN53FifDRgwwNRz7BGhKGIggdg9Ikys/2gwMsQxx9hMmzYN69evN++ij4+P+fLO8ZnsZaKLUnwUAGy/KYA44J7lnfPYUOjRhYqucgxzzt4D9g5ly5btJ6G4mWL3sHEc0ddff23mwGNgCxrSP5/clWNU+UGNQRq4v8RR/ITtOUVx//79zXNl7ymn7eDzE96PxJEDSBy5i7Nnz6J58+ZmjiN+/WvatKmZQ0TiKG6ROHImSRx5J79WHBG6jdF96NSpU8YdjBPFMpRxnjx5jAiILQ6YXnnlFRN9jYZ+2rRpzeSy7H1q1KiRERYUTZwAle8oBdPNmzfNOeISGjv0ArDHC9FdkGOB2CPGD1758uUzboZs1+kaZ7sjxr5vjt+ieGSUP/aicQzXsWPHjFH9S71ozFeJI8+AZZTPku07E8OyMyCT8H4kjhxA4shd8CXZuHGjadBoNGzYsME0eBJHcYvEkTNJ4sg7+S3i6OdwXBIDMixatAjDhw9H27ZtTbCGYsWK4fPPP8d7770XE8whdmJPE3udMmfObMoVRQRFFqdB6NGjh+mdGjFihKlLZ8yYgQULFpgelxUrVpggEOyFYgADiheGxd67dy8OHDhgroXvO8dM7du3z0TV4zbclvUxhdjKlSuxbNkyY9jQ9Y91NV3i6NLGeoKTe/IjF+d+ooshgyhQqLz66qv/dR9MFEL8GJY/f37To8Z9ef10ReS1/doeBYkjIeI/EkcOIHEkRNwjceRMkjjyTv6IOLJhW0c3Mbqh0f2M7ncTJkwwYqls2bKmp4W9LG+//bZxw2NocLrecUwO51L6+RgmJi7ndhRRdNH78ssvjVChCOF7zDLJYzOiHgUZw48zwAFFFifj5j1VqVLFGDHsrWL55XgfhiTPmjWribr38ccf46233jKTr/78/Lwme1JcRpijOGIecbJcij66U/GYPB+FFdt4ut1RMDIvKGp+y4cxiSPPgeWd7qB0C6WxzOiEXCa8H4kjB5A4EiLukThyJkkceSdOiKOfQxcjjlGiWOCx2HOzfPlyM0cS30X2rlDYcKxOkiRJjPvdz8XJ0xJ7oejCxpDjFDQUWLFFC8UXx/5Q8LBHh2N+uA3nb6LIodh5mhB7WqJw+/DDD5EhQwYzXojii+OnxowZY3rK2HvFHqvTp0+bsN00kP8IEkeeAQUvDWTadOxl5PxU06dPN2PThPcjceQAEkfuIigoyLhR0J2Cg3V37NhhDAQRt0gcOZMkjryTP0Mc/RI0LDmuiGOWNm3ahDlz5hj3OYYCb9asmQluwCAOFCPs5bF7eCgU2IPE8UsUPxRCvF4KI/bq2MIn9nxMXEZRROHFHij2WHFfHoO9WBwbygH1dO3jmCm6AtKNjq5xHGBPw5fhuGn40pWPecJxJn/WmCiJI8+AZZgBNWggs1zxWVHoMxS78H4kjhxA4shdsMGnkcEK89133zWuHtu3b9eYozhG4siZJHHknfyV4siGdSJdzyg0goODTZACflyioUEj044Ixx6aiRMnmshgDJPNoAgMdMN2lddctWpVlC9f3sy1ZJdPTqpKoUNXOgotutZRdLHnhy5wLVu2NMYNyzHHGvFDFscjcZwSg0LQ+KG7FK+JvUG8xrCwsD/dbUriyDNg2T1//rwZH0fhTRHOd4bupML7kThyAIkjd8HGlf7wbNiY+DWSUYokjuIWiSNnksSRdxIX4ujXQFHA8TvsfWePDaOBMoIchRPfaV4jgy4wWhh77O3AC0yMpMeee94bt+G2DNbAiHE8BsOJX7x40QRLoCiLD5HGJI48B/Z+MkBIixYtTORFjq9z8+THbkLiyAEkjtwFvzryC6f91bJv376mMZY4ilskjpxJEkfeSXwVR25D4shziC3c2dNJYfRn9yyK+IHEkQNIHLkLul7YbiEcoHv79m0TvUnELRJHziSJI+9E4ih+IHHkOfCDJ+07uoay11HPyD1IHDmAxJEQcY/EkTNJ4sg7kTiKH0gceQYURoxMR3fNqVOnmmfGMWt/NFqh8AwkjhxA4shdcN4DRrHZv3+/MS74+5dmQxd/HRJHziSJI+/krxNH93Dn8F4cXr8O69etwzqm9buxebs//OM0CvIjhN4NwOVj53DhdABuhUQgLHrNX4nEkWdAcUQXerrNp0yZ0kRBZLCPXzvZr/BsJI4cQOLIXTCCDV8aTnjICQvbtWtnhJLGHMUtEkfOJIkj7+SvEUePEXxuOVZWLI4an32Kzz79FJ+a9BUyZRuPEauuIe5K1GUE7JyN4WXbo1OD2Vjj+xi3otf8lUgceQZszzl/F4Mx8H3hs+I448uXL0dvIbwZiSMHkDhyFz+PVpc3b15Fq4sHSBw5kySOvJM/XRyF++PMkhGY1rAk2hcqj7qVapnzmVSjPqoVaoSvKzdH85EzsfXCQzyI3u2v4wx8l/ZFkw+/QqksfTH1RDCuRa/5K5E48gzYnjN64oABA5AmTRokS5YMDRs2VM+RS5A4cgCJI3dx5swZM3kgJxn8+OOPzczZDDErcRS3SBw5kySOvJM/UxxFhgUg+NRYjK2aBWU+L4j243Zix+0whO960UAAAKxVSURBVIaFmQA2YSEXcH3jADQonAQfZy6A6tNPYOfdv1oMnMWlVUPQNlV5VMk/BLNPhSAwes1ficSR52BP+M55sti2rFy50kSvE96PxJEDSBy5C859wEqSs6oPHz7c/FZXe9wjceRMkjjyTv5McfTQdyV2D86JJpULo1L35Vh5/jFCotfF8OAYjkyojJqVCiFl83noteM6/toYn+dwafUwtE9dEdUKDcOc0xJH4n/DZ8LJixmRNjAw0Iwtpr0nvB+JIweQOHIXfN4M68nADEx/xazq4v9H4siZJHHknfx54ugOrqwbjJGFPkXNup0x4CQQ8NROdGvhjflY0r8BvsjTDXVHnsTZu4G4fnYxzpxaiq17N2PluLEYPWAShq84hYM3WKdagiHkJLasmIYBfXqjj1Ume/cZgMETZmLZiWu4+vOIChFXcGb1HMzsa287AePnHMTpezxWAK6tHY6On1WIFkePYomjh7i9dQU2DOiNwdZ5evfuh2GTZmOL330ERW/hFBJHngNDeNMoticnZn2o5+QOJI4cQOLIXfB5UxQxzCe/JPG3Ksy4R+LImSRx5J38OeLIEh0Rh3FogiV2Pq5gHX82Vt4Gnh6709o28iD2juiAekkqo0nrzVhxci/2zMyNYV2zoXy9pqj4RQ5k+6w4srRdgZk+DxD24DxuruyHxqVy4YOPk+DjJEmQJEkCJEufHfk6rcDUo6ExvU8Rj/xwd9dIjC2fH/kScTsrfZwJmXJ3R+f5Z3H2ji/Orx2BTukqRYmjM6FR4ij8HkJvLMeaxmVQ68MkSGWdh+dIkyU3Ggzbhk2XHiOUl27O8seROPIcaCDTpuvYsSOaNGmCGTNmGFc74f1IHDmAxJG7oFvdsmXLjCE+aNAgLF261LjVacxR3CJx5EySOPJO/hxxFGYpoXVY37c9srzbFt823oyDlo3/JHrtT2H9eAVnpnVEv4Tp0ar2dEzZvR3rR36CulnfRpJUrVG7xWiMnbwQM7acx8nbV+G7cgbmF6iKBiVa4LuR4zHSEhHjRzZD+2plkDxzP1TodRxnzbEfIHDtEKz4NivalqyFxn3GYfi4cRg3rAVaVWiMDLlHo/2opVi/aji+z1INNQsPx/xzT0y0upBzi7F3XGG0rVkO1RqPwYBR1jnGd0KfxpVQNVcndOy6GftvRcCp2W0kjjwDtue+vr7o3r07EiZMiHfffRfVq1c3E78L70fiyAEkjtzF0wIy7Nq1S+IojpE4ciZJHHknf444egxcX4ol3Vrjow96okjbPTgZvebp3MLFBe0wJuk7aFNtCMZu3oW1Y7KgXNZU+KjAXIw9FFsgBMJvzUosqz8DG5f7x3Jv24dT41oi7TvNkbniRuyOCLUa4dPY2qkWqr+cEQ3bLMLmmMP44NzqOWhQZRq6jZyPdSuHoS3FUZFRWHDhkXXMe7i0sA9GFs6FJj1mYl5sBXRmCWaUKILGFb/H6MMP4OvQACmJI8+A7bkdyvtvf/ubeVYK5e0eJI4cQOLIXZw8eRJVq1bFiy++iNdffx2VK1fG1q1bJY7iGIkjZ5LEkXfy54gjS5jcWoEVPdoi2ftdUbzVThyzlnKEz9O5jvNz22N4koRoXWMkJmzagfVjMuPb+nmQrM9uLL0UvZkhAmH37yDI9wpuBtzG3ZBHCHkUjLCL07G8Y3mkfLMxctTehQOP7iLy3lJM+K4hkn3YEd+NPIofDxOByEcPEOh/FzduH8NZBmRIWwnVi47FD+fv4kHkcewa0Av1ErdA285rsf3uI9yzzvPo0X3cObUcm7p9gqZNvkGdRZew+3r0If8gEkeeAdvzq1evmkh1uXPnRqpUqcychqoT3YHEkQNIHLkLdrX36NEDefLkMUZkt27dcPjwYYmjOEbiyJkkceSd/Dni6AnwaCu2De6Aou81QZX6q7HrkbUoeu1PoWQ6j+MTOqHzR3nR4rsfMHfvdmyekBFl2xbGJ5MOY82VqC1tIoMO48LqNhjaqgoqWddbunQptKpfBNWKfo1332iFok0P4ND9AIRdGIJejevg7eLT0W751V84vx/8KY4YkOGr8VjkcxuPHmzFyq61kfb1bEibpgi+Ll8aZcx5vkXp4rlQNMMz+DhfTiQfcgArLv+y5PstSBx5DhxPzEAMGzZsMO7zbGMeP/5rYyyKuEHiyAEkjtwFAzHs27cPixYtwpIlS7B3715jREocxS0SR84kiSPv5M8RR6zzzuP0nF7okDofatcajZn+wN2olf9N6FZsHdIaJVI3QYMeh7Hr7Dbsm/I5SjcrgJQj92OFny1ALKEQeh1nVgxG1yKfIPsnqZA6QwZkzJARVap9hSql6+LdtzqhaJP9OHjPH6E+A9CzaU28W3YGOqy2/h19lJ9yCdfWDsP3qSmOJhhx9PjeFizvVgXJX0uFBB+lxRdZMiJjxgzIYJ0n05c5kb1gMeRv1BeVF53G/psSR0K4BYkjB5A4chd83o8ePTKTwTHxtxq2uEfiyJkkceSd/DniiITixt4JmFczJWrX/Q5t1t3BmafNkxl5H5FHh2JMpypIWW40Wiy5jesBW3FqalqUaFwAKUbEFkchwPXVmNOhFdIkbISSzWZj+dEjOGoln0PT8UOP1vjkow7IU38XDoXcROStORhRvxE+SjkQjSad+e/5i6w6OyLCB372PEdFx2HhuTt4+OQgtvTuggofNEHDJrOw+MhRHDx61JznqPl7AsfOXsGZm8F48MSZj18SR54De4kYgIFlYf/+/cZrhFN3CO9H4sgBJI7cBStMDso8fvw4Tpw4YX4/fOhULCPxe5E4ciZJHHknf544suTR7f24uLg6OpbNiOJlOmHs9hs/EyiW4e+/HNObZcaXubMhS59tmHXFEiw3tuDspNT42hJHyX8ijix1dWkKhtesjhdf64LyI64iOHoNro7F/FrZkPCVesjx3X4cjnwEPDmEVa1qoviL+VG/01rsj96U0fRCz+7Fqp5TsXDKFCydOxRN0ldHrSKj8MOFYAThBs5O741+Wb9Bq34rsSF6ryiuIWjWaKwbMxerTtzHtad3R/1mJI48A3qC8FlNnToVZcqUMe0J60RGqxXej8SRA0gcuQt+SWJjVrt2bfPcx40bZyLYya0ubpE4ciZJHHknf6Y4Mj09tzZjebsyaPzll2jWciwmrdmB7Tt2YAfTliVYObANSuTNiM9L1Eb/jYEwMb/81+PEqMTIXzc7Phi8B0su2uLoMXBjA37oUhvpEuRDjkoDMW7XPmyz0q6ptdExf0IkeqYU8lfZgG3WpmG4A985nTAlexq0rNQOvRftwHpz7imY3aMF6mVqjG7tBmHylIGo+0lFVMk9CLPPhplQ3vePTMG67l+i8Xf10Hj4Nizfugu7dm3A6omt0fbzdCiTvym6rQnACYe+f0kceQZsz+1odXxf+KwUrc49SBw5gMSRuzh9+jTq1q2LN998Ex9++KERSTQAJI7iFokjZ5LEkXfy54ojEow753Zh/9TvMSRnTpT6NC3Spo1OaQrgi1TtUKfbfCw8eBJX74WzLwm4uh5HRyVFofq5kHDoXizztcWR9Tf0Ns6v6YdeX72LTIkT4uO02ZAmbR206vg9+nZqiFIfWiKn1FQs9Y/EXUa2u3EQ/gu/x8DiuZA7ZVqkNudOgkxZ86JGh8VYe+goDiwZijaflkflvIMx63TUJLCRIZcR5DMGs2sWRfkEafBFau73GVJZ+79VqDmqjt6BY4GPcO/pkzf9ZiSOPAO2535+fqYe5ITCr776qnl/+PyE9yNx5AASR+6C0Wv4NSlFihRIkyYNmjVrhj179kgcxTESR84kiSPv5M8XR9E8OI7DfdqjX6WKqGS9i3wfK1Zsg1oN12HNiZ8KgMi7Pri6sw/G/zAaPbddxsnbP61Dn9zYj9MLWmJwi+qoWrG2dZz+GLtoK3Yc2o+lA+di4YStOHQjEvfN1ta+j45j17ie6FrZPndVNOo0AAtOcUYjIOTsdqztNw0zx2zFwcAnZlkUN3BlzihMrVYRdcx+lVCpQXvUnH8ESx1+BSSOPAO250FBQWYOw7Fjx6Jv377GvpMLvTuQOHIAiSN3wZdm5cqVGDx4MIYNG4YVK1aYrnaJo7hF4siZJHHknfxl4sgiMvQRHltGJA3JqBSC4JDo3qLYREYgMjwMT56EISw8EhH/VYVaC8IfI+xRMIIfBlvHeYzQJxFmu4gnTxAeZh3T+h17t4iwx3gcbJ83GCGPQxlwPIpIa/uwJ3hi7cdjxN7PWogwa7/g6GsODnkM65L/+5r/IBJHQsR/JI4cQOLIXTyxGuW7d+8iICAAgYGB5ndoqEOjdcXvRuLImSRx5J38leJI/DISR0LEfySOHEDiSIi4R+LImSRx5J1IHMUPJI48h/v375t3ZNasWZg5cyY2b96M4OCYuInCi5E4cgCJI3fBuY2OHTuG9evXY+PGjeb37du3o9eKuMIJccR9vCk97R7/vyRx5J1IHMUPJI48A7rJX7hwAe3btzfBGF566SUT0vvKlSvRWwhvRuLIASSO3MXFixfRvXt35M6dGwULFkS3bt1w+PBhjTmKY5wQR19//TWKFy/uFYn38nvyQOLIO5E4ih9IHHkGbM9PnTqFqlWrmufElD59etP+C+9H4sgBJI7cBSd/rVChgqksX3zxRZQrV850t0scxS1OiKNSpUqZr4Oenmj48l5Kliz51Pv8X0niyDuROIofSBx5BmzP7TkN2Z4ULlwYnTt3Vp3oEiSOHEDiyF2wq52VZJYsWZArVy507NjRGBkSR3HL7xVH9nYUFXXq1EHbtm1NpdiuXTuPS3QBYWrZsqWZi4vC/bf0IHE7iiMaAn369NFs8F6ExFH8QOLIc2DwJYbzpisdE+tDPSd3IHHkABJH7oKDNA8cOIClS5eaMN78zRdJxC2/VxzZ4qFy5comPDsn9N27d6+Zu8rTEq+bac2aNRgyZAhq1qxpxA7v8Wn3/vMkceS9SBzFDySOhIj/SBw5gMSREHHP7xVHHJ/DbWvUqIGFCxea99nTYcW+aNEiNGzY0OQF7/Fp9/60JLc670TiKH4gceQ5hIWFmQ9E586dw8mTJ82zY2+S8H4kjhxA4kiIuOePiiP2sixevDj6aJ4NK/IlS5ZIHIkYJI7iBxJHngHd5K9fv4558+ahdu3apvedk757gpEs/jgSRw4gceQuaDDSpY5uRwMGDDBG6KVLl6LXirjCqZ4jbzBS+LWTPUcNGjSQOBIGiaP4gcSRZ0BxxB6jVq1a4bnnnjPPivWoQnm7A4kjB5A4chec16hs2bKmsnz22WeNkcH5jhSQIW5xQhzNnz8fjx8/Nsfj8/TUFBAQgAULFkgciRgkjuIHEkeeAetRhu3u2rUrPvjgA7z99tuoUqWKiWAnvB+JIweQOHIXNMKLFStmGjamIkWKYO3ataYyFXHH7xVHdkCGatWqYdKkSfD19TWi4OrVqx6X2HDT+Dp69CgmT55sItaxrCogg5A4ih9IHHkONIg5TQc9RHr16mU8CxiQSXg/EkcOIHHkLmiA0vDkV/kmTZpg4sSJ8PHxkTiKY36vOOJ2TAx7zTDe48aNw9SpUzFhwgSPSyyLFHj0jee9VKpUKaZn7Gn3/vMkceS9SBzFDySOPAe26QzA8OjRIzx48AChoaFq512CxJEDSBy5C1aObMhYaTLxtyrMuOf3iiM7ccJUGox0mWSFyL+emuyJYDUJrLCROIofSBx5DrTtKIzu3buH27dvIzg42CwT3o/EkQNIHAkR9/xRccTt6YJGYVCwYEHz1xMTr509P7yX35oHTBJH3onEUfxA4sgz4AdPGsQcT9y3b1+0adPGjOOUW507kDhyAIkjd8GvSPv37zdhn5ctW4Z9+/bJ/Sge8EfFkVJUkjjyTiSO4gcSR54BxREDMnTp0gXvvfceXnjhBTNRuAIyuAOJIweQOHIXp0+fNs+bFWaiRIlQr1497Ny5U651cYzEkTNJ4sg7kTiKH0gceQZszxnKu3Xr1kYY8VkxsM3ly5ejtxDejMSRA0gcuYtDhw4Z1yVWlkz58uXD6tWrJY7iGIkjZ5LEkXcicRQ/kDjyHBgBdNSoUciVKxcyZMhggtxwYljh/UgcOYDEkbvg1yRWkmnTpkXGjBmNLzJd6ySO4haJI2eSxJF3InEUP5A48hwYoY7zGtI4ZgTTHTt2ICQkJHqt8GYkjhxA4shdBAUFGTe62bNnY968eeZ3YGBg9FoRV0gcOZMkjrwTiaP4gcSR50DbjpOCMwjD3bt3jTDSR1B3IHHkABJHQsQ9EkfOJIkj70TiKH4gceQ5cF4jPq/jx48b7xA/Pz+EhYVFrxXejMSRA0gcuQtWjpzzgAMz6ZPMl4hfl0Tc4oQ44oBbigNvSLyX35MH3FfiyPuQOIofSBx5DhxfNH/+fNStWxcVKlTAiBEjPMJIFn8ciSMHkDhyFwEBAZg+fTqaNWtmItlMmzbNjENSd3vc4pQ4Kl68uFck3svT7vH/SxJH3onEUfxA4sgzYHt+4cIFdOzYEW+++SZeffVVlC9f3nwQFd6PxJEDSBy5i1OnTqFmzZqmsnz77bdRvXp1bN++XeIojvmj4ojGIp9lkyZN0KJFCzRt2tTjEgU7U8OGDc29lC1b1uTDb8kLiSPvhGMja9Sogddff13iKA6hOBo2bBhSp05txFGSJEkwZswYiaN4BttzfvRs1aoVnn/+efOs+NHpypUr0VsIb0biyAEkjtzF08TRtm3bJI7imN8rjmzxwP26d++OhQsXYsWKFViyZInHJU5KzDRjxgxzL1WrVv3NvUgSR97Jnj17ULt27ZieIwpnTksg/lpsccSeo7/97W/Gbpg4caLEUTyD7bntJVKuXDnkzZsXffv2NUaz8H4kjhxA4shdcKzRkCFDUKZMGeOHPHjwYDNgU+Iobvm94sgem1OtWjXjIknjhWPKWDl6auJExWzUOUFxsWLFjEB62r0/LUkceSeso9gjyg86NMrZ6B8+fDh6rfiroFtW//79kTRpUjO5KOfQWbRokbEjRPyCY4nZHhw9ehR79+7FxYsXFZDBJbAdlTj6g0gcuYvg4GBjfLK3iPMesCeJYT4ljuKW3yuOKBy4LXsDaaR4A6zIFy9ebNzrmBcSR4KDy9ljkSBBAuMiRKOcBp/4a+HHtcaNG+M///kPXnvtNePqyF49IUT8QeLIASSO3AWfN78oUSQx8bdcIuIeiaMfYc+XxJGIDestuovagQA++OADzJkzR3XXXwifAT+qUZjyGbz77rvmPbt06VL0FiI+wfbdx8cHGzZsMLYd25hHjx5FrxXejMSRA0gcuYuf9xzxt3qO4h4nxBHH7XgDnKh46dKlEkfiJ9CNLl++fMYwp0sXxyApKMNfB92zOMCf0c/4DOhaR8NLBnf8g+05gy+MHDnSiNls2bKhbdu2pgdWeD8SRw4gceQu+JVv4MCBxpDkoGb+PnbsmMRRHPNHxxwxeMG4ceNw5swZE8L1/PnzHpd43UycsJDhgevUqWPGHCkggyAcYN6jRw/Ta0TjPGHChGjTpo0Zj6SxFH8eT548MR/ROnToYKLTMe/pVkeXupMnT0ZvJeITbM/Pnj1ron/yeTEVLlzYuEUK70fiyAEkjtwFxxhxvhCGxKVbBBs4hfKOe36vOLK3YyXIMN48BgUvB017WhowYIBJjFTH0N4MGGKLv5/f99MSt6M4ohHQp08f3Lx5Mzp3hTdAFzr2XjRq1AivvPKKCcyQOHFiE6iBob5DQ0OjtxROwTzn2C72OnBOI9vQ5oe1TZs2qdconsL2nEKIc1JlypQJiRIlMkJJPUfuQOLIASSO3IU9MRwrzBw5cpgX6MCBAxJHcczvFUd2KlmypIlAyIn+KCr419MSr5uJoWdpfJUqVeo35YPEkffDXgwKIfaUvvjii8ZQf//9983zHzRokHEVVi+SM3CenClTppg6ib10tjBiWGgaXCEhIdFbivjIw4cPceLECeNuzekROJGynpk7kDhyAIkjd8HxHOwpYmU5e/ZsM/YoMDBQ4iiO+aPiiIn7sKfFG9LvuX8mudV5P+wh2rJlCypXrmyi17EHiUb7e++9Z8beLViwwPSQ8ys52zfx6+H4U7q4chB/ly5dkC5duhhR9O9//9t8eJg1a5Y+PAgRj5E4cgCJI3fB582vR/fu3TOJv/k1VsQtEkc/TRJH4n9Bdy6+M3zOsQ14hpf+9NNPTQ8kB6NzPJLc7f5/2NtGUcQIgA0aNMCXX35p3K454S7zlWOM6I69evVqE01SCBF/kThyAIkjd8EeIvqRUxAx8fmr1yjucUIcKUkcuQ1fX18z+THd7GK7fjGlTZsW1atXN0Ec2Jt06NAhlYlY0O2K4pFh8+mSSDuAkc04nsvOwzfeeMN8rOBYwF27dkloehA0iNkDyLqwZ8+emDdvnvkgKrwfiSMHkDhyF3SbiO1Wx990qxNxi8SRM0niyH3YQQMYTY0hixnN7tVXX8Wzzz5rDHy63WXIkMEEchgzZgw2btxo3O6uXr1qjAhOb+DtcD47ulQz4h/HnVIospeoZcuWJs/Y42YLon/+85945513kDJlStSvX98Y2NxfeA784MlodZyw136uBQoU0JxULkHiyAEkjtwFB9ky/C0nU/ziiy/MvBUMnazeo7hF4siZJHHkTugWdvHiRezZs8eEgWePEd3rbMOQ6a233jIR1yiUihQpYqI7MprXypUrjWDwxjqQ90SDeOvWrZg6daoJxsNAJxREbANiu84xUSSx/mH0SOYLpwbQIH7Pg8+d4dc5F5j9bOkqyZ5W4f1IHDmAxJG7oBsF/fFZWfILISODbd68WeIojpE4ciZJHAm6izGi3YQJE0z4Ygoh9oI8//zzMYYiE6Pdsd3jXFrcjq5l3Gf+/PlYt26die7F0OEUFzxmfIXi5dq1a6angPUIvQE4ifLkyZPNPbVu3drU85kzZzYCMXYeMH300UfGna5atWrG/Wr58uXmeMJzYXvOgCR0J2XvX7169cwYPE8wksUfR+LIASSO3IU9CSz9yBn6mb7kFEwSR3GLxJEzSeJIELZrHB9DA5G9JqzzGB4+TZo0RiBwXA0/Dr3wwgt47rnnTO8JE5clTZrUhKvmu8jeJdaRixYtMqKDoZHpjkf3NLojMzgBXZWZ7t+/b1z0GCzCiUTR8+DBA+MOx+PTwGGZ5rmZ/Pz8cPDgQSOERo0ahU6dOplgCqVLl0b69OmNa6HdK8S/vNd//etfePnll/Hmm2+anjUKQxpRDPfMXgWeVwF6vAO26XQ5Za8qnyl/q513BxJHDiBx5C7Y4NK1ju4n9NPn10YN0ox7JI6cSRJH4ufQOOSEmHQfXrNmjRlvySANfNcyZsxoIrH9vDeFiSLi7bffRrJkycy8cHny5DG9UCxnnFeMocTbtWtnjsUel+HDh2PmzJlGaCxbtsyIlj+SFi5ciEmTJpk5u7p162Zc4tgDQIOH5+cHLo4jyZIlC1KlSmXCmvNe/vGPf/zXvVAcUQxRILZv3x7jxo0z7T2DLLANoLATQngHEkcOIHEkRNwjceRMkjgSvwb2vLBHiZOcdu3a1YSp5juXL18+I5g4NonjcdjT8nOhETvRNY89UQxgwH0oVPLnz4+CBQuavxQv/M35gSisfimxzHJbex8mijH2AHGSW84xRLH2tGuwE3vAeC2JEydG6tSpzbgi1iV0qWvevHlMMAqOzVLUOe+HvYDsDaQAZlANjkHSc3cHEkcOIHHkLtitzi52VpJM/K2u9rhH4siZJHEkfi3sUeJYIrqscVJTBmWgIckxR0OGDDGR3MqXL29EBgXHSy+9ZMYtMQoeI+Ax0VWNicv5l2553C52osCiiGKPjr197MTl/2s/+9hMPDd7gfiXYoiCiT1GnOuJZZ9ugCz7DErB9pxugHQtpPsfXfRkHLsDtun+/v6YOHGiKRfs+eRHAE3e6w4kjhxA4shdsMLkQF36prMhZeXp4+MjgRTHSBw5kySOxB+FbsZ0w6OwYGAHRm1j2GvWlWPHjsXgwYNN2HCGSeZgdwa4Ye9Q9uzZTc+RnRgdjEEQGBXODi9uj/mJnegKx3FONGCzZs0asz/35b/Zm0SRRpe6hg0bGrc4BlpgTxCviVMycK6iTZs2mQAS7BmiIGLPgXAnbM/pLskeQ7tnkT2ULNfC+5E4cgCJI3dBI5yDcGNXmGvXrpU4imMOHz5sxhbQCKJxTyO/ePHiSr8xsTzTmOQYEIkj8WfAupJueQxzzfmS2NtEcTJr1iwznonjjpjsf48ePRrdu3c3PVFNmzY1BisTI+TxL8ctUexMnz7diDB7f+7LYzAYxI4dO8y5eE5GklN9Lf4XLB8MvsQPbhxrRpdPCnmWW+H9SBw5gMSRuzh27JgZlEthRNcMRjaiH7oa27iForVv375GHHF8Ag19DrhW+m2JvW4cr9GrVy+JI/GnwjqT7Sdd1eiexx6npyUaJuzJYa89I939PFHs0N2JUekYGOHn+9vucDyX6mnxa2FZOnDggBHZ7GFkO++GCY+FxJEjSBy5CxqMjITEXgqGqGVkJc2aHfcwnPqwYcNQp04dU6HRva5SpUpKvzFRXDJEPceMsIEQQgi3QztPuAeJIweQOBIi7rly5QpWr15tBlJTJI0YMcJM2qf02xLzbujQoaYu4xd3IYRwIwy2xGAjHGfEYCPsneRcR8L7kThyAIkjIeKex48fm4hS9Amnqw1dcJR+e7JdlZiXMgSEEG6E7pf0EuFYOI5zY68657aiWBLej8SRA0gcuQu+NOyh4Bd2fmnnM2evhRBCCCE8H4qj8+fPm2Afr7zyihljzPHF/HAkvB+JIweQOHIXDE/Lr0gMxsC5NBiGdsuWLRroK4QQQngBscURw8VzjqxSpUrpQ6hLkDhyAIkjd8GQ0YzoZYfyZmQ0hfIWQgghvAdGQZwyZYoRRYzgyekNNAmsO5A4cgCJI3fh6+trwhxzLhiKJFaYDCMtcSSEEEJ4ByEhISYQw9atW41tx4ioHNsqvB+JIweQOHIXnI+DrnWc82Dz5s3mtye8OEIIIYT4ddC2iz0HF4WRPoK6A4kjB5A4EkIIIYTwHthzxHFH6jlyHxJHDiBx5C4ePXpkJn09evQojh07Bj8/P80HI4QQQngRHHM0efJklCxZUmOOXIbEkQNIHLkLTgg3fPhwlC9fHlWrVjUhvU+ePKnudiGEEMILiB2tjlFpn3/+eUWrcxESRw4gceQuOMaoSpUqJrTna6+9ZsJ6s9td4kgIIYTwfGxx1L59exPKW/McuQuJIweQOHIXp0+fRr169fD222/jo48+Qp06dbBjxw6JIyGEEMILYHt+48YNLF68GE2aNEHFihUxduxY3L17N3oL4c1IHDmAxJG78Pf3x8SJE41AatSoEcaPH48zZ85IHAkhhBBewpMnT4wYois9e5EolsLDw6PXCm9G4sgBJI7cBaPVsLJk5Bq62PE3Q30KIYQQwvvQx093IXHkABJH7oLPmxHrGKGOib/1NUkIIYTwHu7fv48DBw5g5syZmDRpEjZt2oTg4ODotcKbkThyAIkjd8HJ4Pbt24dFixZhyZIl5je72/VlSQghhPB82J5zyo5+/frh008/RYoUKVC/fn0EBAREbyG8GYkjB5A4chcXL15E165dkT17duTNmxddunTBoUOHJI6EEEIIL4Dt+dmzZ9G8eXMTqY6pcOHCxo1eeD8SRw4gceQuTp06hVq1auH111/HO++8gxo1amD79u0SR0IIIYQXwPack8Ay+FLx4sWRKVMm81FUk8C6A4kjB5A4chd+fn7o27cvihQpgm+++QZ9+vTB0aNHJY6EEEIIL4Hjidne7969Gxs3bjTTeISGhkavFd6MxJEDSBy5CwZhOHLkCFavXo1169bh8OHDuH37tsSREEIIIYSHI3HkABJH7oIiiPMf8AsSE3+zDAghhBDCO2Bbz0i0bOfDwsJMW6+PoO5A4sgBJI7cBSvLkJAQE+aTib9ZaQohhBDC86EIun79OubPn28mfK9Tpw5GjBhhvESE9yNx5AASR+6CAzKXL1+OAQMGYPDgwVi2bJkJ+SmEEEIIz4fiiGOMateuHROt7ssvv4Svr2/0FsKbkThyAIkjd3HmzBk0bNgQH374IZIkSWKe/a5du9TdLoQQQngBbM8ZyrtJkyYx4qhAgQL6EOoSJI4cQOLIXZw4cQJVqlTBCy+8gFdffRWVKlXC1q1bJY6EEEIIL4EGMaPUMTpt7969jYsdJ4EX3o/EkQNIHLkLf39/TJgwwfgg87mPGzfO9CZJHAkhhBBCeDYSRw4gceQuGLkmMDAQ58+fx4ULF8xvBmUQQgghhBCejcSRA0gcCSGEEEJ4Dw8fPjRu9EuXLsWMGTOwZ88efQh1CRJHDiBx5C443wHDeV65cgVXr141vx8/fhy9VsRfghEadAkXz57G6VOncCo6nb50HX4PrPc4eishhBDuhm7yly9fxtChQ5E5c2YkTpwYzZs3N+G9hfcjceQAEkfuws/PD/3790exYsVQsmRJM1jz2LFjGnMU37m+Frsm1cW3RXMiW9asyBqdstXpjcrL/eHzMHo7IYQQrsaOVtesWbOYaHWFCxc2gkl4PxJHDiBx5C4OHTqE/Pnzx1SYefLkwerVqyWO4ithN3D//A5s7P89mhUviqyFCqFg0aIoGp0Kli2BHF264Puth7H5Zjgi9BiFEMLVsD2nd8jIkSORM2dO8yGtTZs26jlyCRJHDiBx5C7oilWrVi28/vrrePfdd1GjRg1s375d4iieEnlzI05NrYlvMlVB2kJTMWH3efgFBppAGkwX17bBqM6pkaZ5b1RdGICbjyOhJymEEO4mODgYPj4+WL9+PVauXInDhw/j0aNH0WuFNyNx5AASR+4iKCgIO3fuxOzZszFv3jzs2LFDX5PiMU/OTMDG3snwyVdV8VkPHxz/edsWvAJHJlREgTRN8XWtLTgQ9AQaQSaEEEK4E4kjB5A4EiL+EnZ6PDZY4ih12Vr4fOBFnPwv5XMTdw9vwaw6szCuy04cvf8EUfopBLh7CEe2LcLsmTMxk2nZXqw99RAP7OgN4cF4eHUPrvptxYkLx7Bv7Wqsnr8C8zYcwtadW3Dm8CacunoLAT8RZMEIu3kF+zeewuatV+H/KLqf6mEArq1djo2zo881ay7W7T+Jy08Q3ZMVjIj7gbiwNwDHNx+zjv0DNqyZiflLV2H3uTu4FWY2EkII4QAMtMR5DY8cOWIi1V28eNEEZBLej8SRA0gcCRF/iQxci2MTyqFA+gpIVWQuZh27jtsPgxEc8hiPnkRGRamLCMeja/dxL/AhQiKi3Ooibh+D78IWaFrmCyRJmhRJmbLWQL6ea7H6cjAszWLplcu4uqwCZgzJhUZd26N2/mIo/kVRpKvWHw0alsHQ1gXQctoGzDlvCxyL0GO4unYoKhTsjryV12HddUuERd7HrT0TMSNfNnyTJPpcSROjSJ2uGLcvDP7mZNfwyGcVJlaZiGbZGqNrm8/wTcmkyJCvJNrNPYWjCighhBCOQDf5gIAATJs2DeXKlTNjixl8iUaz8H4kjhxA4shdsMLknAcM68kBmtOnT8e5c+c05ii+EnoNd4/OxYgKhZE/YTpkLVIaZStWQZU67VBn9DYsvRi9XQyWEgk+g32zJqBRoVooUqIu6nbsiI5WalOjMEp8VwKl567DrKvUNOdxfW5GtC36IlKkqonipTqjW8/h6DFlLWYNrIz+DdIjTfPxaLLuFvuhDJGXZ2D7iKxImKM6Ejfbj22BNxByaDiW9S2M+l9XQ9W6PFcbdGxdAtWLVUetKosxb2sA7lj/PTg+Gf2zFEL2lzKg+HdVUa93R/QaPBqL9l/DFfkCCiGEI7A9Z7veqlUrPP/88yb4UvHixU2QBuH9SBw5gMSRuzh69ChKlCgRE63u66+/NgM2JY7iMeGBuLzye4ys/gXyZEiHdOmSI0XiZPhnqkoo3HoK5m7ZhS0X78DP9NDcB84Nx/jWdfFZjiloO+cmQs1BLHyHYOWQbMhQZwDqLAjG7aDzuL2qABrkeRdvf9oXreYEIOa74uXZWDaoBtIU7oZv+x+AX4TV4FqLH+0ehMUdkyNPp66os+cuLgccx4k+5dGldDG0WngSO2JEzkUcGNAG7bJ8i++HbcG+4BDcPj4VYwqmRp5E+VFlzFFsuhu9qRBCCMdge043uk6dOuHNN9/Eq6++ivLly5u5DYX3I3HkABJH7oLiqFSpUjHiiEJpw4YNEkfxnYeXcOPcPhzasxu7ds3Fgr41USpxEiR+52Mky5ALn7abgx7HgZAH1xC89lsMaZsTxXtuwrRj0fuT8O04Met7VEnXBQ1anMChwNO4sKYQGtRKhQ+a/oBBB8KjN7SIPIgjM7qhaqrqqFJ9DjZaQibYWhywagzmNiqHntOXY03wfdw6vwozSjVDncx9MGHPdVyL2tsiAjdWf4/pjVKgTv9JmHT6Bq4enIlxhb5BmTTN0HfNDZyL3lIIIYSzMNDSggULUK9ePVSoUAEjRozwCCNZ/HEkjhxA4shd2HMfVKpUCdWrVzcVJsN7Sxx5GNd2YduQrujVpCIqFc2MpFm+RsmeS7HhyFEcGF8Uncr8B1+WroRSdZujWePGaGylJi2ro3rhgkj9TAmUKLMai31O4djyImjS5nMkGrYOo0+Zrqdo7uDGzhmYXiYTmtdti1En7iPg4Q0cmTsZ/WsPxtxV53APN/Hg0Fi0yVcGKf/zNUpUqY9GzXiuJmjcpCUalk+Nr3M9jwR1e6HRptO4uG8WJhWpg6oZemLi9hu4FH0mIX4zYfcQdGYOtszojN7ft0Sb5laZiy7nJjVpjaYtJ2PGer9Ygv0vJuImHvnuxg+T1mHk5GM4cj0EGg4v/ipCQ0ONG/3x48exb98+MwG8AjK4A4kjB5A4chec54CzZLPCPHHihPn98KFGw8c/KFYfI+TmLdw8cwNBd59EBV/4CdzmGvw39UPP9O+icr6q6LloB+YO+hZtcz+PJMmSIFGKT5EqZUqkZEqVGp+lyYTP09dAwz47sf70aZxYUBhNWqRDwn6rMOJYjAOe4UnADvhMyYq2Peuj5vzjOHBiJdbNGol6rVdjwS5WttfweN8QNCyYHa++kBAJk6TAJ6miz5UyFT5Nkw5pcxZAunYz0WPfMVw5MAPjC9dApc+7YMyWAPzXcCkhfi0PfHHph4Jo+80/8Mp7H+KdxCmiy110Sp4CSd/Lg0JVRmPE9pvwux/+Y1CRX0tEqKXB/BAQeBHnbj3Ence/8QhPTuPuxoEom7k5kmSZgSlHb0M1rfiroG3HiHX379/H3bt3ERISoo+gLkHiyAEkjoSIj1AKXcW5+XMxp/QgzJt8ECetJbEc32J44jMdszK8gyZZKqDr/P1YOK4MBjVMiq/bDUKnScuxfOlSLGVavgar1m/Btt1HcNLvDm4G+uDC7Lxo0DwdPuqzEiOO/lQc4dEFhO79Hq37dkfaNrMxeXpbzJzdB7Um+2D1eV6JP8JOTEbXfPWR7+OW+H7YLMxdHn2upcuxYt1mrN95CFvPXMO5oIu4c3gahuatioqfd8bozQG4EHUWIX47QWdwcXpG1Kr0Nv5V/nvUGPwDlixZ8mOaOwrT25bCN18WQ/qvhmPw2su/vQfp4WUEbmiCQSPqoOzsfVhyMXbP6q/gyUncWdsLxT6tj7c/m4xxhyWOxF/HgwcPcOzYMSxcuNBEreP8hhRIwvuROHIAiSN3wV4i9hht3LgRW7ZsMb/5VUnENyiOAnFhVjcMTZUS32RujZZzAuAbtTIWvghY1RFNPsqIb3L2w+R9F3BqdxuMa18ceZtswYSj0ZsZHlt6Zj9Wz9+HVdvv4vodH/gtzIvvmqVDgqeJo4h7wPXVGNOtAzKmKouS+b5B815j0O/IPZy5zw2CEHFtI+ZWqo1mudtg5KFg3DQ7RhN4FP4/zMeO7Wdw9n4Abh2ZgaH5JI6EAwSdht/M7KjdIiMSDN+JaZejl8dgleXLCzG9cR7kyJAVefstwbQroQj77+7XXybEDzfmfo6ajZPh1X6bMdYnevmvxe45ytQMSb6cjWmnf/Z+CfEnwuALo0aNQq5cuZAxY0a0bdtWE767BIkjB5A4che+vr7o2bMn8ubNiyJFiqBHjx5mkjh1t8dHIvDo7DSs75YaxZLnRqZCkzBqyymctp4hn6NJ+yZhXrdqyPVZc3zdYAf2BAUhPGQNfuj6PbKk64Gq3dZjl9VIsqG8umcM5rSrihxfdEOVHmdx6PoZ+C7LjXoNP8G7PZZj6JGfG29WmYg8jcP9K6Hev17Gay99g9yNt2DL/YjoCHjW+pALOD6+MgbVyo46fedjwo7oc13djnVdqqFN2pyo1W4B5vtdQ8ChGRieuyK+/ex7jNh4DefNMYT4HQSdgd+sHKjb7HN8NGA9xp56Wv0VhqBNLTG6bWIkbdUblVbdRJDd+RP+CE/uXsGNKz++S36XbyLgRhgem+7ZRwj134n9I77At1WT461WU9B1y3UEBocj3JwqAuGhQQj0vww/+130uwT/m3dx3zqH0WCWOAraOAhlM7dGsizTMXX/eVy9dSVm2+t37vNzxc94grBHd+B/5VKs417Gtdv38MC6rh/v0voVfBP3A3xxyd7uSiAu3XuCh08TgGG38PCm34/bXr2Oy/fDEfK0bBMeD9tzhvJu3bo1XnjhhZjItHSjF96PxJEDSBy5C/YUMRjDs88+i5dfftlEsWEPksRRPCXUD7fOzcfagQ3Q+KuCyJg7N3LmyWMm9TOpaFnkqdsPbcbsxfqD93HPON7dweUdSzGpcRV8lTcHvrC3zfg5Mn9aGl81WIRJO28j8I4PLs/NhOr1kuC1Lksw8NDTvmwH484P1TGw4DP4R476yDHML3pS12giHyH48nLsnVIb7bLkQKEv7Gv7HGm+yIGkJbujx6IzOB0UgKAjk9EvU2mUSNYGQ9b7K1qd+P3Y4qhpenzUdzVG/Wy8XAznxmLt8FxIVqcTCk48i6vRfqlhlzdi/9AyaFU6b3R5zYf8hdqiVot92HKJ6uYYzi5ujoaF38X7H76CfyTNhOSNJ6DdriDcMqfyg++2kWhYvSTym/2t4+QrhHLtBmPMwXu4ynck8jQebBmKb7N1xSfpB2PElB4Y0L9SzLaN+0/F+muImUPMEHYCR1b2Q9WyxZAv+rry5C+MKt0nYuqJENyMEXcBuLaqMyZ8l896x6PeubzlGqDQ5INY+POpbCIfIORAF8ztkh9f5YvetmIzFJtxDKsDo7cRXgXbc4by7tKlC959910z1xHbfX9//+gthDcjceQAEkfuwsfHB02aNEHixInNwOVGjRph9+7dEkfxnTtbsX9mY1QtVRD58uX7MZXvhGoTjuKQcXOLRfgVPDo0HMPblUUBe9sCVVCx/nQsPHEPD7jN40Dc3dEJ46a0Qr1FB7EqaqKk/yLs3CxsW1IPjeYvxOCjwXj8X5tF4NH5TdhUrwqaFbCvrQAKNu6HGusCYNl0FkEIv7wVSzoPx9DWc7HmxF3ILhO/m18rjvyXY/vYhvi8cBfk63oAJ4KDEXH3CHYubI86FTMiZ46c0eU1JzKn+BJfZmmNrit84BN0HGcWt0TzYu/hg49ewYvJsiBF08lov+s2bj+6jsvrpmB2tbLIni0v0kfvny9rCnyavSJytd2FH05b58FFBO8YjGq5KuG9hOVRrHltVGhT2do2O/JlTIBM+aqgfP/DWHv+gemJDX90BZfmDsXoct/g8y/zIoM5bjbkz5QUn+Sqh8LdjmC97yOEhwXizrkfMG5ARZQtkQuF8+VHfmvbbHlyIGnlemg1dzNOM/Q+q/Sw67jrsxpT+xVFueJprW14TGvbfHmRvGZLfL94N05bdtOj3+JuKOI9bM9pENN9vm/fvqYHaf78+SY4g/B+JI4cQOLIXdDnmJUkJ4fr1q0b5s2bZ74wSRzFd0Lx5OF1XKO7jZ/fj+nqTVy79wT/LWssayf8LoJuXsUle9tL1+B//QFCbEMoMhwRj27j3v1buPHwMYKf/EIZCH+Ax49u4lZI8I9uST8n/LGlta7h+iX72i7h8nVLAD2moxCxTvrkER7eCULQLesaQiOeGlxCiF/FrxVHD7fj8OTOyJy8PbJW34YdN68j7MJETBzXGtn6/4De68/j2jV/XPM/jE39SqLD12lQZeASzLz0GA/99+PMhC9RseaneK/dDPTYfgfXQx4jPPQotrXqjiE52mP4jL3Ycs16r/xP4eqOAWhXtj4++nQM2s2/Yr2xAXi4px/q5U6O5//zOV5vNAldd1613o2j8NsxBG2/LYskaVqg0aQjOGu9DMF39mFznQ4YmL8bRi8/gd087tUDuLK2O+oW/g6JMszAgI03EPJwM44s+A75W3dBzmE7sPusP65a257YNArT22RF30G9Mf+CVddbx4y4sgR7p9ZB4frt8FX/9dh+8Zp1v9dwct1ATGr6BWq374TOm+/j4gPV/94GbTtGp7137x5u376NYH4YsJYJ70fiyAEkjtwF5zm4efMmLl2yjNfLl81vVqBCCOEx/FpxFLoXx6f2Qpb32yBjydVYf/MeQm8fxJFTB7H4GnAjejNLRSFgRBn0SfcBvmk1C6MvAZGPAhC6Mh+atMuIhCN2YpqJIGKJiIgA+K09iGNLLiAotq0ZOAGDv62Ct9/qiwaTffEI13B/d3/Uyp4OLyUqiXyjj2JTjA/dRWzqXx3lM6ZHyc5zMccXuP/QHxdXHMCJ1VdiudpZJzg3FO0KVMY7Ccegy4pABD9aiZ1DCyFZ5sr4uPEuHIzRNQ8AnwU4d2Q7Tt62/hX5GNe3dsYP7T9H5d5zMPAnASVO4vHSOqjRsg2yD7PEnr/aAG+DHzzZ3rN9Z+Q6znukj6DuQOLIASSO3EV4eLipKPkliS8Mf2tiOCGER/FrxdG9LTg05XtkTP89stbeiN0PON9RGO5fO4e9m1dj7fIlWLx4FRYvnIThJTOjVvLkKNFxEaZeserKexdw+4dcUefotwajj8WqJ0PO48aZ9di2ZhmWLV6MFYsnY8OYmqiSrRTeTTgEbeZewWNcRtCuwaiUpSI++qIfhu64EUuMPUHg2haY2eRDVOk+HH0OWuIowjJcH57B1ePrsHHlUiy1jrtq0WisGloF36Qti48+mYB+62/gAcdDLe2E5gUKInO2mqjRfwYmWdsuWb4eqzach8+VJ9G9srdxZkpdDM33Nmo3aIWOU5di/pLF1v1a284fjQX9ayJDofp4t/wCzD519ym9z8KTYfu+adMmDBgwwARhopEstzp3IHHkABJH7oIvyfr16zFmzBiMHz/e/GZ0MX1REkJ4DL9WHPnNx6ZR1ZCmTFcUGHwcFzgRZvAebBrXHPm/TIvPPkmBFCmyW6kc8qX9GKXKpETJYUsx3Zdeqedxa0G0ODLnsOXDTVxa2wVjan6G3GlT4pMUKfDF55+i8rcFkOHT6ngn0XB0nE9x5IugnUNRMXNTJM0yHdOP3f1J8IX7uzpgZc8EqD1gOPofA+7evwr/FS3Rv+JnyPxpSqS0jvtlltSoXLYwPvu4Nj5KORYD1/vjrnXk0Hu+uLasO/rXyIJkKZPiY2vbFCm/wCefNUTTwXtwIIwS8Cp8htdFxzeeR7r3P0SiFJ9Y98n75bbJ8EnShHjjrW+QKu9szDwepDmYvAi253SX79q1K95//3289dZbqFy5sgIyuASJIweQOHIXdnjPTz/9FJ9//jlatWqFvXv3ShwJITyHXymOQvf0woy26fFBra4ovuQGrt/1xa2NLTGobhakK1oFxWs1R/Pm3dC89Sh0q5cDrRumQIWRizD5AvAktjjqtxajTtKH7g4ir6zBqHrVkC9FHhStUA+NmjfH9x1bYfzQ1qhYqCXeSzwCbedcsiTMRUscDUOFTB2QMtsSzPe595Pembtb22JJh49Qo+9IDNsfgCuHlmB09QrI9UkhFK/RCI2t43bu3gqTBrXGV9la4cPko9BnlR9uR+8PXMD17aPRt1NLtLS2bVqjOEpnSoxspRuh4YqzOHzrEs5N+Q59U7+KkoW/xreN26BZC96vlVp3RNsugzBkwGIsmHMGZ249fkpYceGpsD1nW8/2/bnnnjOhvIsXL44rV34eylB4IxJHDiBx5C5Onz6NOnXq4D//+Y/5olSrVi1s375d4kgI4TkYcZQddZp/gQSDt2Di0ybNCjuJfcPKoGbuJEjcdCTaHn2MO9f34WSfDGhULiNKTjmGlbeit408i11DiqNRsWQo1esHTL9k7X73HG7O/RK1mqZDgiHbMdGPG1r/2zUQ32ash7c/m4RRBxmVjtxC2MF+6FCMY4OGocVsBmS4hHu7BqNylsr44PMB6Lf9hrWVzQ0cmVQXbb9KhbLdZ2L+kZM4t7g3SqRthITZ52JezHQ0fni0uQvq5aiC91KMQ681/rj5+BpuXz2Io/7XcSG2Jry3DeenpUOhCnmQqMMW/HD+Jvy3fo85jT9Bw/4zzCS2PwZBsXZ8cALnfU/j2OV7uPtYA/W9CbbndvCl2rVr45tvvsGwYcM8wkgWfxyJIweQOHIXdKEbPXo0qlataoTRyJEjcerUKYkjIYTnQHE0MxtqW8Llw/7rMObnk8CG+yNkb190+TozknxcGmWH78T24Eg8vrMfR3qkR/lvPsMnQ3Zi2vXo7W8uxrCaaZAgcVJkarcIc69ahwiyxNE86xxN0uLDARsxxkzMZYmjnf0scfQtXk/ZF322R4XhBk7j4qRiqJQoJd58vz9azwuwll/D/V19UT1rSjyfqBC+Hn0Q2+5y2xAgcDlG1iuPT5OXR6Whu3Dq9gVcXtEdX332Ld7JNAoT7OAJITtxYlAuFHs7Ld5PORH9Nt7FtWuzsWlKYZQdOhLNdoVFn98i7DjurqyAkq3qINGgI1h5KRShftOwZfg3yN90CKr9EPhjr9OjA9b5KqBF1yaoMuEQdgc8vedNeC4cS0wj+cKFC6aNDwgIwJMnGlnmBiSOHEDiyF2EhITg/Pnz2LdvH/bv32+63hnqU+JICOEx3PPBxelfoPY3L+BvX5ZAjmqt0LZt2x9T80ZoVLQciuZvhkpdV2D54ajxPpGPL+Ha0oZoWSkNnslUHJmqW9v2HYj2o4agZsXP8EWGN/Bek7HodDgckSEBCN7VCO3rpsDfclRAjmZzMWn3afifXopxjYsje5JP8GXxuqjfti96dO2FsV2/RoXPMuCTl5qi+ajTCHhyFbe39kLZtBnxzGu5UaRNd3w/vr91fY3RtkZ25M9TFl/WWooJu2/iEe7hwam56FchJzJ+nA45vm2Exm0HoW+3Lhj5fWF8kygTUr/dGd3mX8a5W+uwb3El1G6UH1kr1UOjllH33K5xQzQqUR8lO81A6wO3cf6edcOPfHBl13i0a10ahcqXQ+1W0flTqxTKfpEKmb9thjrzT+LITQXlEcJbkDhyAIkj90EhFDsJIYRHEXwV/qurYUCNj/FpiqRIkjQZkiWLnTIjWZIOaNLvEA6HRSI8ppp7hMjADVgxrB4ypEkRtV/uCkjZfTH6jGuBaQNyoNCQKWiz2xILEY8tK2MtFvYuh0/TpEeS7K1Qc9ZpnLh9GVfXd8SQch8jS8qkSJosN7IXaIuhc6djTI/+aJ6rC4ZMOgpfur8dmIFWFQYiX8H+GDyyKVq0zhd1fUk/RrH63TH+YBiu2b5uj87j5Mx66PbVx0hj7qcQCpXugtELp2N4m15onrs7xi44g/ORT/D4wUkcn1wV7YsmRZoU9j1ns1JPtBt9Cmes+41xlAu+gksrq6Nv9SRI/Un0tkkZhKKnJdZO4MyTiFj5I7wF9hLdvXvXTNnBdOPGDROtVng/EkcOIHHkLtjVzheFUWs4GSB/P36sobhCCA8i/BEeBR7Aub3LsXbxAiycNxuzZ8dKc5ZgzoITOHwx7EeRYBN5H7d9j2Dj8h+i9lu6AXMOX4PPlVO4dWkztp+7gIM3uBcVRhACz+zF2mVLsHDZLmw+ew93wp8A907h8r7FWL1wLubOXoolKw7glH8gLl/0w6mtx3Huwh08CA9B6J3LOLr3Enbu8IXf+b3Yv2eZdX1zMHvuD9h86AwCfuLlFIqwwEM4v3MRls2fgzmzV2DF+qM4G3gDl3wu4uSW47hwKYizGRkiruzB6fVz8cMc+56XYe4CS7xdsARg9DYx3N6DC7vn4Ye50dvOXYUFiy/izFUZy94IP3qyjWdE2qJFi6Jw4cLo3LmzEUjC+5E4cgCJI3dBv+MZM2agZcuWaNeunflN1zohhBBCeD4URxxnxLHFjFTHlD59ehPeW3g/EkcOIHHkLlhhMhDDa6+9hnfeeQc1atRQtDohhBDCS2B7zkAM7du3x6uvvoqXXnoJZcqUUShvlyBx5AASR+6C4oihPd944w289957qFmzpsSREEII4UXcv38fBw8exKxZszBz5kxs3rwZwcHB0WuFNyNx5AASR+6Ccx8sWLAAnTp1Qrdu3TBv3jzT1S5xJIQQQgjh2UgcOYDEkbtgtBp+PQoKCjKJvzX3gRBCCCGE5yNx5AASR0IIIYQQ3gE9Qfjxc9euXRg3bhz69u2L1atX4+HDh9FbCG9G4sgBJI7chT0J7N69e81EsPYksEIIIYTwfCiO/Pz80KtXLyRJksQEZWAgJk7fIbwfiSMHkDhyFxRDnCE9bdq0yJgxI1q3bm1EksYcCSGEEJ4P23O29Zyy4+9//7sJ5V2sWDEzGazwfiSOHEDiyF0wek2ePHli5j7IlSuXee4SR0IIIYTnw/accxpOnToVZcuWRYkSJdC7d2/cvHkzegvhzUgcOYDEkbs4e/YsWrVqZZ53unTp0KJFC+NiJ3EkhBBCeAehoaHGje7YsWM4cOAAfH19ERYWFr1WeDMSRw4gceQuGJ3uzJkz2LFjhxmsyd8cuCmEEEIIITwbiSMHkDgSQgghhPAe+CHUx8cH69evx5IlS3D48GE8fvw4eq3wZiSOHEDiyF1wniPOnE3fYyb+Vle7EEII4R3QTf7q1asYNWoUcufOjVSpUplATDdu3IjeQngzEkcOIHHkLi5duoQhQ4agdOnSKF++PAYNGoQTJ05ozJEQQgjhBbA9Z7Q6jin+29/+pmh1LkPiyAEkjtwFu9YLFy4cE62uYMGCWLNmjcSREEII4QWwPWcAhu7duyNBggR45513UL16dfj7+0dvIbwZiSMHkDhyF+wlqly5Mp5//nm88sorqFixIrZs2SJxJIQQQngJNJBp03Xo0AFNmjTB9OnTFXzJJUgcOYDEkbvg3AczZsxA8+bN0aZNG1NhsvtdCCGEEN7BkydPjFHs5+dnpvC4fv26GXMsvB+JIweQOHIXDL7AF4WDNdnFzt+KYCOEEEJ4DxRCjFh3+/ZtBAYGmuBLtPeE9yNx5AASR+6DLnR87vwrdzohhBDCu6AL3c6dOzFmzBj079/f2HcPHjyIXiu8GYkjB5A4chd2hTl79mzMnz/fTAbL7naJJCGEEMLzYXvOyLQDBgxA2rRpkTx5cjRq1Mi41QvvR+LIASSO3AXHF3G+gzRp0iBTpkxo3bo19u/fL3EkhBBCeAFsz+1Q3n//+98VyttlSBw5gMSRu2C0ukqVKuG5557Dyy+/jAoVKihanRBCCOElsD1nIIa+ffsiZcqU+M9//oN69eqp58glSBw5gMSRu+DXJEapY89RhgwZTM/Rvn37JI6EEEIIL4DtOQMw0Ctk2rRpGDZsGDZs2GACNAjvR+LIASSO3AUj16xduxYjR440AzU5ASwj10kcCSGEEN4D7TtGrWOUWv4W7kDiyAEkjtwFK0p+UeLLw8TfrDiFEEII4R3YbT3DeF+5cgV3797VPEcuQeLIASSO3AWFEHuPWFmyx4i/Nc+REEII4T3cvHkTS5YsMRO+N2zYEOPHjzcCSXg/EkcOIHHkLm7cuGFelq5du6Jnz57mt6+vr9zqhBBCCC+A7fn58+fRrl07E3jphRdeQOnSpc1HUeH9SBw5gMSRu/Dx8THzHSRMmNDMfcAvSrt27ZI4EkIIIbwAtucXLlxAhw4d8Prrr5tQ3mXLljXeIsL7kThyAIkjd3HmzBk0aNAA77//PhInToz69eubSWEljoQQQgjPh+05XeZXr16NTp06GRtvxowZuHfvXvQWwpuROHIAiSN3wXkOWEm2bNnSTAY7ffp0E95b4kgIIYTwDmjbhYSEmHFGHH/08OFDs0x4PxJHDiBx5C5CQ0Ph7+9vepDoYsffmvtACCGEEMLzkThyAIkjIYQQQgjv4dGjR7h06RL27NljEj+I8uOo8H4kjhxA4shdsMK8fPkyTpw4gZMnT5rf7G4XQgghhOdDN3kKo/79+yN16tRIlSqVGWtMt3rh/UgcOYDEkbtgKM+RI0eiUqVKqF69OkaMGGFEkhBCCCE8H4ojtuuVK1c2keqY0qRJYyLYCe9H4sgBJI7cBXuMWGE+//zzeOWVV1CxYkVs2bJFARmEEEIIL4DtuZ+fH/r06YOUKVMiWbJkqFu3Lq5duxa9hfBmJI4cQOLIXTAIQ9OmTU0Yb1aajRs3xu7duyWOhBBCCC+BkeouXryI7du3Y9u2bebD6OPHj6PXCm9G4sgBJI7cBec+WLduHUaNGoWxY8di7dq1JmKdxJEQQgghhGcjceQAEkdCCCGEEN4DbTv2FD148ABBQUEmGJM+groDiSMHkDgSQgghhPAOKILoJULPkG7duhn3+dmzZ+PevXvRWwhvRuLIASSO3AUrx71795oXZtGiRWb+gxs3bkSvFUIIIYQnQ3HEyHQdO3bEv//9bxOtrly5crh69Wr0FsKbkThyAIkjd3H69GkTteatt97Chx9+iNq1a2PHjh3qbhdCCCG8ALbn58+fR9u2bfHSSy+Z6LSlSpUyU3kI70fiyAEkjtzFwYMHkS9fvpi5D/LkyWOeu8SREEII4R3QI4TeIXSpq1+/PsaMGeMRRrL440gcOYDEkbvw9fVF7969UbBgQXz11Vfo1asXjhw5InEkhBBCeAlPnjwxbvSMRss5jzgGKTw8PHqt8GYkjhxA4shdhIaG4vr162b+Awol/mYUGyGEEEJ4D/zoyURRpA+g7kHiyAEkjoQQQgghvAMKofv37xs3ekapo0vdli1bEBwcHL2F8GYkjhxA4shdsJfo8uXLOHbsGI4fP45Lly7h4cOH0WuFEEII4clQHLFt79+/P1KnTo133nkHDRo0QEBAQPQWwpuROHIAiSN3wfCenTp1QpYsWZAzZ04T6pNfl9TlLoQQQng+bM/PnTuHFi1a4O9//7sJvlSsWDHzYVR4PxJHDiBx5C4OHTqEAgUKxESry5s3L1avXi1xJIQQQngBsXuOPvvsMyRJksTYeeo5cgcSRw4gceQuOM8Rw3qymz1BggRmziPNcySEEEJ4D0FBQdi+fTuGDx9uotIuW7YMDx48iF4rvBmJIweQOHIXN2/eNJVkv379MGjQIPObX5iEEEII4R0wQh3HE7PNv3btmgnrTXtPeD8SRw4gceQu+LwfP35sKk0m/tbcB0IIIYT3wHmO2Ht05coVM9aYIkltvTuQOHIAiSN3wefNiHXsXqc44m9VmEIIIYT3wElf165di27duqFly5YmpDd7j4T3I3HkABJH7oIvDZ/z4MGDjS/yihUrzJcljTkSQoj/a+8swKs4vjZ+IUpwDRrcXYq7u1OKFnctVooUdylapFDctbhrsBASSCAQJIRACCFCDEgIvN+cTTbcBCltb/9fQ97f88yTm92d2dmZM7Pn3ZmdJST+I/dz+cj7lClTkDNnTmTOnBndunXTpteRrx+KIxNAcZSwuH37NgYMGIBs2bIhb9682rcPLly4QHFECCGEfAXI/VxfyjtRokTayrQNGzbkUt4JBIojE0BxlLBwdXVFp06dYGVlhZQpU6JDhw7al7MpjgghhJD4j9zPZUbIokWLULlyZeTLlw8jRozAs2fPoo8gXzMURyaA4ihh8eDBA20OsnwAtnbt2vj555+1bx9RHBFCCCFfB2FhYdpMkcOHD2sOsnzsXd4xJl8/FEcmgOIoYSEvZF68eBHbtm3Dzp07tSl18jSJ4ogQQgghJH5DcWQCKI4SFlLfL1++RHBwsBbkN1erI4QQQr4ewsPD8fTpU9y8eRNOTk7a9wwjIiKi95KvGYojE0BxlLCQ7xo9efIEbm5u2pC7/Jbhd0IIIYR8HYgwWr9+Pdq3b482bdpg1qxZmtNMvn4ojkwAxVHCQpbyXLVqlbZK3eDBg7Xfd+7c4bQ6Qggh5CtA7ueyWp1838jMzExbra5x48ZcrS6BQHFkAiiOEhYyYtS7d29kyJABdnZ26NmzJ86fP09xRAghhHwFyP1cvnM0efJkZM+eHTY2NujSpQu/c5RAoDgyARRHCQt3d3cMGTIEefLkQeHChTFo0CBcunSJ4ogQQgj5CpD7+YsXL7QHn4sXL9ZE0r59+xASEhJ9BPmaoTgyARRHCYvnz5/jjz/+wMyZMzF37lzs3btXe1GT4ogQQgghJH5DcWQCKI4SFm/evNEaiizEIEPs8lsWaSCEEEIIIfEbiiMTQHFECCGEEPL1IFPonJ2dsX37du27hufOnePKtAkEiiMTQHGUsAgNDdW+e3Dq1CmcOXNG+x0YGBi9lxBCCCHxGZkmf//+fYwdOxZp06ZFqlSp0LZtWzx+/Dj6CPI1Q3FkAiiOEhaygs3UqVNRu3ZtNGzYEFOmTNGeLvGdI0IIIST+I/dzefDZqVMnbRlvCSVKlMCDBw+ijyBfMxRHJoDiKGHh4uKCdu3aaZ2ltbW19jRJRpEojgghhJD4j9zPZZTo119/1R6E1qxZU3OWfX19o48gXzMURyaA4ihhce/ePYwZMwZlypRBpUqVMHr0aFy9epXiiBBCCPlKiIiIgL+/vzZaJMHHx0dbkIl8/VAcmQCKo4RFUFAQrly5gp07d2L37t24fPkynyYRQgghhHwFUByZAIojQgghhJCvB33kSN4zvnPnDp49e4bIyMjoveRrhuLIBFAcEUIIIYR8Hcg0eRFDsox3nz590KpVKyxevDheOMnkn0NxZAIojhIWz58/x4EDBzB37lz88ssv2L9/Px49ehS9lxBCCCHxGRFHd+/exYgRI2BpaaktwNS0aVN4eXlFH0G+ZiiOTADFUcIi7mp10ni4Wh0hhBDydSD3c1mEYfz48bC1tUWaNGnQvn17fucogUBxZAIojhIWTk5OaNCgQcy3D+rVq4cjR45QHBFCCCFfCeIQHzt2TPuu4c8//4wtW7ZoCzKRrx+KIxNAcZSwkCdHy5cvR7du3dC7d2/tOwhubm4UR4QQQshXgvh24eHhCA0NxYsXL/Dq1Sve5xMIFEcmgOIoYSGdo6xiIx2lBPktNkC+kHev8ea1H4IC/bQOyM/PH34vwhD0+i0+XYpvEfkqFGH+fgjQ4nw+BIS8xMu4ib2NQMTLYAT4q/P5ByEwTP3/9i/c6N6q+g4JNDqPP/wDghH66g3+91++UBcX8RIhwQHwlfLzC0VIWCQ+WEfpXQTCX4aoa47Ks39gEEJeR+LNB5f9Du8ig/EyWB2jjvUPfglVPPgrxRPFO1XMqpwCAxAo5wsIRIiUzz/2J5RthKs6VXUn9S/XERr+sesQlK28DlPHRtmK/ws5Vm2TXe/eqiJRdhQkNhAAP3WdIRHq2rV4/wYqZVUHEaoOgqVcNbv5fAgKVX1KdOy/wrvIVwgP88OLAJVOwAv4hYXjVeS/d2VfRiRevwrHy5cRiPzXnEqV7puXqm2q+tTKMBAvglUf89HOROpf2UawtBkVAkIQpOzTdMWknOfwQLyOCIcyuX/Rrv5NVLtS9hqqylLsNSA4FC9VQ/t03/z1ooujkJAQiqMEhvQlFEf/EIojQr6cyKdH4byrE8YPaqe9u9Wu3fdoN+o3TD7sAc+wT92CfeF9YgO2d+2MIVqcz4e+M9ZgrWsk/GPuY8o1DnbB9b1zMKBPN7TrMRMjt7jAxT88ev+fEBmAN7c3Y/P8AUbn6Ynu/X7FmlMP4aHO8z+9Zb71R+TdfVgzfwi+Vflo1+43LNn6AJ5q1/t8KMkWdAMOexegT/eOWp67/DAec47ex/XA6EN0IpRDeX02tk5rh27dO6PXgoPYdScSIX9Z9Skn4uZhHB3aFyPU+boPHInFJ9xxJ+yflk8gnl/Zhb29umKwSrfXyElYfdEbD19H746FH56d34qd3TphgDq2z5gZWH/VH48lAxHP8frGemya2hXtuvVDu/kHsNI1BK/+Nc9PyZzXt3Frz2LM+74jumt28/kwdsl2nH6mokWn8KVEPDkOp00d8XNflU7fCei4yQnHn/wdmWUqgvDO7xr+2HoG2/fegU/Yv/QIITJEtYW9OLRiEL7v0EGV4Q8YNfUwzj0KR2j0ITG8eYGI2zvwxy990KGz6geGrMTMww/wyEQG8PbhFtw7NgyHHRzg4Kfq5H/aKZgCyfAjeOxahlXKFnupMHj2Kvxx5zWeJ7AVrEUEBQYG4vTp09riS/Lh9127diE4ODj6CPI1Q3FkAiiOEhbSOcp7R7Ji3aFDh3Dt2jWtIZEv4RVenJqE9Y0NyGse9c6WFlI2QLGBB3DM6/Unnprfg9vi/hiljrXV43wu2FVC1dGbse7aUzx+JfHVnf35YeyfUAuprNV+s6rIOfQQDnkqr/1PCUHo/WOwn9IITQsmNjpPIhW6oPdKF7gq3+p/+mT1rTcirs7Dj03tovPSHA0GnsY55VG/Lz/1z6Nt2DS6OpLoeU6ZD/lG/oGVN19FjaRovMXbF+oaZldElxxRx6X/bi5mOUQi4C/7s8/x9NgczLe1QTaVTqI0OdFi0TmcVveVf+YnPoHHlrGYYGlAOpWuRc4y6LrhFq5+4P0KD3H392H4SR2XSgXrAlXQb4cnXCQDrx8g9GBfDKog15kMhvrT0PHIcwT/a46fqoOQ0zg+viXqqbwkVuG9/Xw8pCpWD90XHsGpB34IUvn60nJ7dWM2dvQyIJeWTm4Yeu3A7Bua8f+PURYY6oX7zuuxet4wNG01Fb2mX8CdoH9JqEX44Y39BMxqnyG6DJMiVZGB6HHAG05xn32EP8WrUz9iYiPrqGMzdES1OVfgLAX9D4gM88GzmydxcEptTOiWCcNX78Gex+p08U4cSS/mDIcx36GLKh8LFdLX7IJJZ0Ph8b8fHv9/RcSRfN9o4sSJyJo1q7b4UufOnfHkyZPoI8jXDMWRCaA4Sljcvn0bAwYMgJ2dHfLmzYt+/frhwoULHG7/U6R8HuDW0v74MYUBGTVHRg/5kbvGLCy5HICnUQfH4T5uLx2E0WYGZIkV7xMhkQWs7Yqj2rgdWOP+Dm+kbl4cU85LfaRPYQlDklrIN/wIjjx6GZ3+5/DAo4NTMK5kFtgl1s+RGIkTF4Wt3UxM+8NTue7/awLw9sEG/NahFPJq+fkGVXrvwL5nIuWieReCd86/YEXfgkiuyk3Lt7kdEjVYgB8PPsGL6MNEsL7y2o/9LUuipjrGzGCGMkNWYeODdwj9yyatxNGJeViQNRVyq7SsbPOhzRJ7nHt/sr/JEzzc9jMmJzNHJpVu0nzl0XOTGxw/qm09cW/tSIyzUI6dOjZF0ZoYuOsRXOVaXnsg7PAADK1iDoNlGhgaz0SXY88R8m+Ko9AzODmxDRqpvFiqEMtOPxbMrGBboBx6/HoSp58r241O6c94c2cFDo62QpUsZjDLWhVWow9iudtfHX8yBUqxeu7CqlG1kSlLdiQpNBCtlrrg/hcO0v5lRBxdmIK5nbNrzrxWhpkqIs1Pe7HsVlhscSni6MxYTGmWQh1nAUOWLqg9zwHX/6E6fu19CmemVEUbOytkz50N3y04iVNxR2fjDTfgOL4DeqhyTKpC5no9MPVcGB4mQHEkS3kPHz4cFhbKVlRZNGnShJ/tSCBQHJkAiqOEhYwU1alTJ8aZqVWrljaCRHH0ZyhHLeA0do1siuKJksM6XTFkLFEMFfIpwWORFGkLt0evrffg+NHRgAe4s2IYxiYxg50q8xQ5i6J2n8kYM28hFi40CjNGYvR3GVHBVuomMaxqTETvg37wi1DOT9hpHJnRDNkyKMcodQMUHX0Mx7y+RBx54dm+keifMSVsDFmQNmtPdJ20Ar+tP4hdW91w0yvsL0+B+ue8xrugYzjSu4HmdCcxpEOZbvOw+a5MQIsm4jGe7u6NyQ1TILVltNNosIMh4wT0WeqO97d4fwS7rsKKKoVRSB1jYyiO5lMO4JgSNH/9uvzgc2ohluTJqKWV0q4oOiy7jIv/uIC84blzMqanS4acKt20Rauh39bbcPqoOHqE+xvGYGJyS230KkOZ+vhhrxduauLoIcKODsXI2slgSJEZhpZz0fOE378sjs7i9NTv0NTCEtaGNMhYoCW+HTkLU43tVoW5E/uib430KCQCPJElMvdYgQnXQhD6pUOSL+/D23kLju7ajM17jmGL8xPcffGvXdhnUOd8sgm/dCmo7M0ahtwD0WbzYyWb/yUi/PHm0gws6J4fKayi7dwmFQzFGqLrilNwDdLGsqII98GrcxMwo00GJLZOrvLWEw0XOsLlnw4d+h/DiSEZUFGdO1Ha/Pj2V2dcj94V/7iJ65O6oK+0MxVyNemLmfZh8Exg4kiQbxotWrQIlSpVQsmSJTWhJB+GJV8/FEcmgOIoYeHu7q59GK5w4cJahzls2DBcvnyZ4ujPeOuH8BszMa19fhhSpoVZ5cFoOvJHzOhiiyqZlUOTtRxKTTiF7Q8+dheOEkc/KSc/s7phZ6rcEmOO+8Mjem8MkY/gd7gdRjdICUNiGxiy9EDDGTfgGqKc1IhzOKbEkd2XiqM3oXj9/C7cXbZhy+S2aKnEkaUhN2xzj8WPa07izB0PuPq/QrBxdl97wP+BPRwu2cPe/n24escLXh/McArHaz+1/colXFXHXHN2htfjx5p92dufV+EMrrndxeOgt3j9gWkpjznyJpyntsOAtMqJMTMge7OhGH32JTw0TzAS7/wv4MyEGuiQIxGSGZLAwtIMlklSI5GhDb778QQuqvxEZf0xAu3n46cquZDOkAxJbHugz0onuKqdMZf26hm8r1+Fo9E12V93h8PzN4itT96Lo4KqntLkKY5uGy7i3H0V/+JFOOtxL16Gs2cAVPQvJL6LozZonNgKZoacKNxgEVbeijAauYsm+BpcF9VFj/zmMFgp577WBLTd4w2f1xF4E3wPT27Zq35GlZ37fVxTTttjR0fcU2V5/pKjssWnuP3UGwGPnfDg5jVcc3GHk3cw/GXFipe+8Lt7Cc7nz+OyozM8fMPwMpY9vcW7cH88v3MDTufP4cIZZ7je94OfqpsYXRbpj2euTnDS6y86XLh4CXe8A9+PVoY/xwuvi3DaNQ4DG+eDwVwJkGwtUG3kOmw5fRHX7nrDK1iTT1G8C0LQjWu4aZyuwy04eIbiixdMNhZHSWSqa7RAUqFouymYefk1fPXr/WJxFIaI5264ce1irOt1vu0BX+PZge+CEfTADS7bZ+GXtllQKokBNmmzovrARVh8yBWXLj3Agzuqnm6dw+UrF1Q/4A1vVVgxC4m8fYXwwOvwcFHpX7oM+7tPcVep4ZjqUfsjX3jggesFnL94FafcvHHPWPBGqvK+fxE3xC6M8nn1hhueqLYRq5pVfxMR/AReLo5wsL+Cyxfd8cDDA56errhyWa7zMhxv3IdX4FVcmNRDE0cyhTVXkz6YeeEVHuqJqXN6ujvh3NmzOHnMQZWJL56rMvnXmtD/I7IQg0yhlyW8V65cqb1/FBb20U6HfGVQHJkAiqOEhbykeVbdGNauXYuNGzdqv58+/fhkMGJEyG14bquHfhUskShdZmTtsR7z/jiG84sao0NJMxis88K6xTJMO+OLDyXLe3Ek06oyVWmN8aeC8eG3ypXH774Ev/QuqpyjpEogNUf1nsqBDFA3tLf2OK7EUfYvFUdBN+F9aDRGdSyN3FnSILWFmRIWSZTAyAG7giVQssNINNl2CxdiXjcLQ+DF0VgzvBCqlC6o9Qd6qNprCqacCYRnLIHkC+9jy7CyajnUU0K7fqPGmDJ9Ovr26RMTr/mgaVh7IwI+H/U8QuB7aBAWNjbALpkBliU64ZtVd2DvL/uCEH57PZa3LIqSFilhbfgG+YtlR7GiZkhqkwYVv5+PDfcR5aBHusF73yi0KmMLs8R5YFVvIWac9H7v8Cqx8eT0EsxpUh01ja6poHKaqvx2DUefGrtgujjKpI0cpStUBF3WbsbaRYsxt3hxNNDiFkLBUuXQaPxGrHZ5h+AvGhn5OsRRYkMuFG64FL+7i7XE5anK2xCMq6uEvaUKRQaj5YbHuB8cgFDn8VgzoDCqVCiMwn1/QP3JUzGtZg0MkPIsXx8Fx+zE6K2/48TCyhjRshzKNeqDyr9ewv7nSiQ/UUJ4Zh10Kl0Y5eo0x49bb8A51uhsIF7f342tg1qiYeGiKF6oO/ovOI9L6piomXA+CHRci1+/q496xvVfqBCKlvoGvebuxFF9AQmfI7i0oiNaVMkB21TWMCRS7doyNZJnzIk8xcui4bgN+O2GPvXzJYJdd2B3izpob5xupQ6oNPYwdt55b4Gf5TPiyLJgR9ScexUXRekJb54h/EvEkfdRXFr5PVrWKvE+Xyo07D4ayx3C8ESzWXlAcR2O0wbip9zZUCSNJZImNiCxuSWS29ohe77OqFBuJmaObo0pQwqhYtUSqD70d/zqFIEA/XTBt+Gxpy0mfavqtWwlFB64BqMvBCBYb1Ih7nh2dBzGtSuOwuUboNDY3VjooncibxHguAo7fiiFFmWNyk+Fai27YtbRR3CPNZVR1aPzWqzs3AC1CldCuZL9MGL0aPw8rg3KlS2p4tVEg07zsOrScexT19RflZ+836mNHF0Mjx5p9sGb66swoW99FCpYRMXpggGzT+O86kg+ePbzFSC+3evXr7X3jMU5FmEk28jXD8WRCaA4SljICNGbN28QGfk1Piv7t4hEuNdRnO+bH03SG5A8QxXUnX0J572f4dmZSfi5ZiakMKSGIVs/9Fx5HfeULxO7dGOLo8zVvsXE86/x4QQH5XI6j8WsjjmUY6bEUZJvlUNyGVdeKBEUeV4bOfpicfTcHvdW1kXNbO+drVgh6TcwjD+HHZKJ4Jt4eHAiFnbLjoqZPnZsbuTpMBl9d93EYZ+o5OU9mgebRmO8edT0FTmuYN4cSG5lHhMvQ5WRmHstAt6fuB+/uTUHO4ZmQN506njbxsg48Qz2e0nJ+SLs4jwMqZQdKawLIVHZH9FrWEeMbJsCGTOoMmw6AjMcgGfihPntg+PCcqicJwkMycvB0H83lt0UV1d5VoGuOLFnOgY0L4n80Xl6H1T5ftMdjWfIFK6Q6Cf9gXimxNHSvFlQXB2T1DYdSjapjRqF8mjTIWPFz6XE1o9rsdbFD15/+j7KVyCOEok4yo0ijVdgnYfRqFwMXvDf2RkjKqh6sLSBofQwtNzxAl5Bvnh1+ltMrh29oEOGTDAoO8mhflvJ//LuTLvf0HPpdGzqa0DlFGqbZVEYBu/DEo+3ePfsBG5MKYZqSkAbLNIjx8jdWPHQaPjj9V08Pz4Sg8pEL1Jg2RrN5zjA7fU7RL57jIcnV+K39hVRIeZ9u9ghdfH26Db/Kuy9wvDSYxP2D8+jLYTxsWPNG03B2AsRCAx9As8jv2P59zVQ94PjlMDJ3BI1um3C+l1eeGw8UvMxdHHUJS+SJ1dtJ1N6JM2SURthtjLPi7QNR2L8qUfQBqTf+OKtfVxxdBUuIdFqJPyJMvnF2De7Eb79Rgm7uHmzyoxS30/AlMMucFY2+yb8LM52+Eab2vrBsYasKnRBrzYV0KuF+l8WoKk8Et8deYGoRQRVn/jwII53z4qGSaLjZOqP2tNdcTv6miNUn3lpWnHUSCnx0yLjkN34TVRKmBcebViGlR3LoY6Mun9wbhsUatIPI7fa46wuXFW78Ds7DWOKpkNK7ZgMsFPllEObgiwhJaxzj8G000exf+FgDFDb5L3QnM2HYL7DG4S+C8CTa6sxs1cl5BEbU/syVfgJ47a44FaMkP66kM90+Pj4aN8xvHPnDp4/f877fgKB4sgEUBwlLKS+5aNwvr6+8Pb2hr+/v/Z0iXyOQPg7LseCMjlRyGCN1Gn6ov8Gd3gqF/GV125s7lwaJc3khfVyqDViD/b7Kp9Sf3qqESWOxlgl0hZkSFeiJrr/egr7nW7i5s33wfXSbhycURRti8jN2wJWZX7E91se4tEr5W28OoOjf2VanYwcHfwRIzuUQs7MqZFKGzmygrmVLWzt8iBv04GotdEVF32fIfDcVMxtlhyFxMlJlAKps+ZGzvz5kT9/XuTPnREZk1vDXDmmhoaj0WHHXfgqT+Id/PFo50TMTJ9Cm4Im70gZLFIjWcacyJ2/iIr7HTr9+AcOP4nExxePVQX0cBuOTCiPPJmUU5ikCrJ23YetdyLwFrfh/UcvtCihBGeWakip0tlwZD2OjSuLb7ImgUW53ui1Pxh3lQP8zn0Bdg82oFQaA8xy1ka2mZewQ1aYeOOBsNPj0adufiS2TII0dgWRv0QplColoSSK5cuMbKmSwDJvW1SbdAIXAyJUbb7E89OLsDx/VpTVrkk5mBapYJMhB3Jp5ZEf+XKkR2bl7FkoZ9syZ0VU+ekUdrqFf2KVQp1/Io7qYOgefUGG/y9x9C2amFnBwpAFuSqOwrgdl3HWyG4lXDu1Cr/3zo3a4niaZUKy9kvwg+NbBL8KxJsz32NWG3XdstKiuqZEhuRIlSmnZmPFqjZB24XnsHH/CuwZYY5a4ixnqIjEow5j+X2VhQgPvDw5DMOqJ4OZpbrmBvMx4JBfzOjsO59TuL6kDhrlVfGs8iB5698w60Kg6udC8PbpVqzvVlYTumZJ0iNtjiIoVLQUSpQsiiI5MyJTIiV4lAjIUX48ZpzyxuOn53F5ZSe0rpIdGVLqI0epkNxW1X+xsmgwbis23XyCpy7LsK5jWZQ0t0bKjHmRs4huV6VQslA25M5giSRmtVCq8QZsuaeE9+fqRxNH07GgYw4kS6VEZfGqyNOwMVrbpUZBeQcpQ2GUHLIfG+6IAfgDDpPiiKNrcNXsKBJvHu7D6Qk50aigNSys7JAtfzEUj85XqZLKfrOkQiqrVMjRaiYmngvA42BX3Jk9ED/lyoLCqS1ho40cWSB5hmzIptpFxQq/YNn8MZg7rJAqD2VzRXqi8tL7uKl1bmEIUmJjVelcKK+1FRn1aoEaHY7ghGrwckTo9d+x/dt0KJXYHKlyN0L/LXdxW4kUX8d5WFkxD8pJn6FETcoMOWPaV/7cmZE5TZTQTVejN3qu94JrYKRKzweBlxZgaqW80Yu4SH2ngLmtsqO8qm3n74rm3fdg3117nFui+me1XxY0yfftECw69xieV/ZhzeDqSCvvL1qnQq6aHTHxgAdufaYLjc/IQ1ARRps3b9YWYBo8eDD27t2rTbUjXz8URyaA4ihhIUPs586dw+zZszFq1CgsW7ZMc274ztFneO0G993D0DRfeiRRzlTq9NMxZZ931OIBb27CcXZjdLYzILkhGbK1nYXpDq/hE+tRZJQ4GpfUUnOOLZOnQZZC36BkhUray7J6qFhWOTM5zbUbeOIkqVF56Ab8/uA1wuVrpkEncGRG0y9fkOFNCF4/d8ed61uxOfqdIytDLmTIORJDl+3H4WtucHj6DEGum7BrfAUUVg5/IuWopMnTDf2WHMBOZSPnzh3HuQOzMa3lN1EjL8myokj3mdjqHq6u/SWe7pmMuSrdIrLPzFY5T13RYtJmHDinHJRzrnBx94d/+LtPz+f3Ow37xa1R0E45XomKIXPZDVhx5RUCQvfBfl4OVLNTzlPehqi0+BoueLrg/u9d0SVnWiRO3xjlZzvi1PMXCHaajuWtDchvoZzvsm3QY+9TuKqyj/A6APufi6FqSpVG2tyoO2Yj1pxzhKOjhIs4uqI/RpVXDlTiVMhYZwjmX1JOm5Jl/mcXYWWBLNHiKCUMOVuh6ohV2KLK44wKpzePwfzvLVAsg+zPAutsM/HTugfR03Y+xT8RR3X/n8WRuuap7dHcygLJlLhOkko5ssXL4Rsju5VQvnQBFMiYWLUBJV5TNEaLuedwRPlhbyODEHqiM2a3VWWtiaPUSJupFTrO2o4Nqjztryjn3usFHjutwP5RFqgiI5eZKsNciaNl7pIH5Wl7bcDqLsWRz5BG2X5ftJzigjta/sQBX40dvdKjVFLV/vJWQ6tlLjgrcx0jHuOV/U8YWdUaZipPaZuMxYhNl2B/2REOV49i/6w+GKAEUAbloKfM3xADd9yDa+gLvPC6BOc90e8cWai2lq05qo1Ygy1nLuLqXR88fXQO19dUQJdCFrBMkg15eyzB9H26XTni4o5RmN/OgFyWNjAv0AU9tt2H0+dWfosRR1lhk0Kdr3BXVB06A0tG1kbrsrLKWBpYZh6HQSu94f1OHXtjGuYocWSmi6NFN5SDLwagxN3hCZhYOinSJM6ClNl+wojfT+C0li8HOF5cg1WDaqCSut5EKZujZr9zOOkTiDAPN7hun4UFbbOilI0BSdNFvXO06JAzLl/yhJfnYRyb2xJ1kqeCIWldFG13AgefyMM0Pzw7PQdTCmVHHq2tSCiPCs3XY/vjN8pyIhBwciZ+zZ8GuQ15kLPsEiy9GoRngdtwfHZuNLSVpbYzqDLuic4TtmO31t+ocOAXzOtbCSlVezYkyY189X/F8ovPoWoGAZcXY1ZVZWf6+Up+i2Jjt2LbUYl7E06uz/H8pTOuzuiOfmq/jGgXb9MRU9dtxeI+36NRxiRavOTVeqD3OmfceKG6Sa0Svj5khMjV1RVDhgxBpkyZkD17dkydOlV7GEq+fiiOTADFUcJCniYtWbIEpUuXRvLkyVG1alVs27aNw+2f4e3TbTg9p6xy4q1hSFMdtm2OYue96J3C5QlY1iotbJOpG37pPmi9/iFuBhnPJYsSRz8nT2LkSHwqmMPMtgrq9x2L387dgYdWLcoz9j/+18RRDE/x/MgYDM+dATaGEshebDPWuEXvwhME7uiG4VVt1HnNYJ67BZqNPoOzsT579QT31vXF4IJRT2JTFW+Fljs94BweCP99UzE/YwpNOFlnLIEiIw5ivXG5/Bmv7+DOnlFonzMDUivRmSn3HMw66wGXawvwW30DillbIEWJ3hj0xyN4vHoBnwPjMTlrRnVsIdi1XYUVrrfgemACphU0Rw5DUuSqNwpLHMOUGxUM31OzMLtaUu0pc9KMuVGt90xMXbMVW7dK2IDlEzqge5moBTJSFa2Pvjse4rYSR4HnFuO3AplQUm23TJUNeXptwAJno3GhyGt4vKsh+lZMo8SCEk+GDvhugj2uyDSl6EM+5K+Kox+VOEqCrAYbZCnfDeOP+eB+tDgK/X8RRx3R0sZClfvH7NU4ZEaKXB3RYfRO7Hfyi3on7O0L+B3thNmt1HXLyGSGGijUVTnDD6JGF2JwX4YDo8xRMaM6RhNHh7DstrQhdXGvnXBuenO0SW2m2XCl7zfiiEr8LcLw+I+fMKG4OWyVo52j3DDMv/wiarpqhB9e39qFPct/wri5i7H8cgAeh4eqqtiFC0eWY/EPbdAuuZVm0+mKVEC/LXfgqFfg851YPqAsDNZpYSg4FO02PpYxG43IG6uxs20ylJMRstRKGLQZix8W63a1FRvm9cTIpomQR6aS5a6CgjMuYtejz7znESOOlNBOqtp2zn5oOOcoTl9ahlWjS6B4skQwN5RB8c47Mcf1PjzVscvb28IiSbQ4WuoGt1BlfCFncX5+c9RKpWzDYIf0dr3RfcpvWK3lazO2bpiCyZ0roqy5jMqUQv5Ka7D2bkTUg4vgs7gwpgDqqWtKmTU/Oix3gpOWOcEHD3aNxk8FbJTYyIacpSdi/kVfBL+4i5sb+6JDgZSwtbZC2rRpkdjCDjnrjMUse18Ehvjg7qbB+D5dOqRMXBWF2h/D7odeeHhyBGZVUO1OCTGr7LVQ9fsz2H83+lQaz/Do6AR8XzGdqtPEsLZthvbLnXE9RNnRpUWYXz0fcqnt5uYFkX/QRkxVcWOXriucJnSJGTnKVrwI6jRrhHKZsiCVEuZWBZuh1ZJzWh/3mVqJ94SHh8PBwUEbMZJPduTKlUv75pE4zeTrh+LIBFAcJSxkKc8VK1agQoUKSJ06NapUqaKtZiPvIZGPEYkg+3FY294MeVIphyd7fdiO/gPrHB5pH9R74u2BJyemY3HXXMiQ0kyJp4YoNuIojj0yfsU3ShyNT2alfeQysYUlbFKmRep06ZE+vXHIgvS2jdCs/2bsuh8K/7fvoh1IVTfPj+Pw9L8jju4q52Y4BuZMhySGorArshq/Xg2OcuRfXofT3BroaKfEjbU17Dr8ghkXw9V5tYgxvLo+B9v6WaNYGnX9do2Rae55HAh6hKCD0/GLEkfi8KcpXAU9N37q2z2fIgh+V5ZheWk7FFXixjZvNwzdtR87lv+IkcmSIZtZLuRvvAQrb4UqufMGgfYL8VuxjCiYKAWylOyHsYcPY8/iERhiZoNMhjwo0uw3rL8bqlz6h3DfMAz9sinHTeXNkMiARGYWMLe0hGV0sNC/naSCed6aqPOrE85GhCLo/GKsUuKokHLAUmUviw4rLsM+1rxAf6XplDBrWVwdYwYLQx00GXMEJ4I+91L3E3jumIRpaZJp79p8Xhx54cHGkZiYLLkSR7bIUXUq5l56oeSV4pUHQo78VXEUicjXIQj29YGP2GtMeArvpwEIVI61fOwzllCJQRdHHdBChKq6XjPLZEiWOh3SxrJbCfmQwXYwuoyxx6XgNwjXbUg5/8+OKHHUVNmIvDdUqg/KrnKDs6ac3hNxO0ocVYoRRwexzE0XpQHw3DMUkyqbIZNZYuRo/CNmXVW288IV1+a3RrOkqjzMa6BEyz3Yq9pdVD2oDEQEI8D3Ee7ev48HDz1x7/QsrB+SChVyKxswV9ei6iKRCpmLVcXgre64po32qkp5qARxr9IwWKWBIX9/tP5NptAKwXh2aBYW5EyDYprtJIIhsTnMVHvW7crSPPrdKgkZS8P8h71Y4vryE+WrMBZHNklV++qCekuv49rzB3h0eDAmVrJEOpneV6wXik/bh4PbxmNZl2ywtFH9gBJHjZa5wy1Y9QOPN2LX6LLInTbqmzaJpK7MlZ3H2HzU9UbZfBbkKPsz5im7Elf5zZPDODkyH2olNyBFlrz4dsF5nI+x+XcIdFqFzZ3TobiVAamLNcOArffgdusEjk2tgLLZkiBLriKoVbc6stumRfIy7fDd+hu46XoMp6bVQ54M6poytELluedw3tcRbot6YWBiZQsGC+RsNBDTzoTgURz7Dbu7A7sH2qGayk9i26Io+/MxHPJ6Dt+LC7CgZh5kUXFtkrRE+/kXYa/qLHbZuuDapK4YrK5T3u9MrM5lptq/dt1WeWHdYBomHVN9V/TRXyvyvpF852j79u2YPn265ijLb5k5Qr5+KI5MAMVRwkLmHF+8eFGbViffPVi6dKk2/M5pdZ9COVeLu2NCFgOyykvJybPCunRNVGrYHM2bNUMzFVrWKYNy+VPA2jKxcpaKIHut+Vh52V+5dDrR7xxZm2lTpVIVKIuWY1dh8bbd2L3bOOxVQTmXrgFRT91j+CfiyA3u239A/xwijoogW+GVWHzJX3tnIzLYEZemV0ZbW+UUJU+KciM2YdtjzSWOzeMdsJ9ZHBWyycvm9ZFi+knsCfRAcLQ4Eoc/XbFqGLLrnjal7ct5i9C7u7CvY27UsFHlkq0oGkyYjJ/6dEIbs3RIlb4RKo0+gbMB77SnvBH39uDEwCyorfKbKXc59P11BRb91B9tDKmU414V5docxD5fcUTdcev3weiRIbW2nG+UQ/iZYFsOaSYcxebAZwi9sBC/F8yC/IYkyJCvG0buvafkpTFv8DbgJA51qqq9jJ/MUAMNxhzCsUBZv+xTPMbD7RMxNaWRONr2KXH0GB5KHE1OlkKJo0zIVW02fnEIgrYOxt8SRz7wc9quREFP9Iy216jQHm3azcGivbdxR2mQjych4kjeOWqLpsrRtjJkQNYS3dB73ib8HstuJRxU4Sac3MOjhLeOLo6aRIuj8oNRfosHbsbx0V67xRVHB5Q40i3xLV7fWIbt/XIgrxLoVt90Qc21jrh8aS0ODC6K7DYplYjphapz3HAjSF9KWsX1c8ThTXPQtUtnfP9tUzStkAV5lcMdt/6zFKuOodvc4aTZrnKb763FvB6losRRvr5oufwW7mtiLwCP/5iGORnSR4ujPwlW+WBosxJTzz//9DtpscSRjRJHnVFr0U3cCFUx/Hfj8OgKyJ5K9StWxZCm7AhMmdAPIzrkgVnSVDDkMRJHnmuwbURJZEv/fkGUz4W0RVrixwPeqmcCwj0P4NiIvKgp4ihzHrSedwqn/d+Ljkjvk0qEVkHd7AaYF6yFpouccPTkImwZmBaF02dHqfr9MHbqMHxXMjvS5m+CAjOOYOOOUVjfLR1s0xlgUX4Yeh9V4jTsOu5M74ReBnOkMuRA8Q5LsPGRVuKxePvsFJzm5kLLHErcZCyAYqMPYe/DZzHiKLMSR0lt2qP7kqu4rurlve1KJcUWR7GvO7n2IKT38pO4EfK5kd74j9zP5V1icYofP36Me/fuae8Y8yFowoDiyARQHCUspL5FIMmXsiW8evU1LmJqKpS3pJzDvUNboJa6uSb/4Gb7sZAaaXO1Q+u1Tjge4wB6aOIoZrW6qq3x85mwqNGAL+JfFEfTjMTR8Chx9IG+0cRRMVTI+nFxpE0VK1IFfTe74dpHP4L7acJ97HH1l+poX8AKVimSIFul6qhYsgQKJUmLRKUGotYqN9zVTTT4Oh7tbIjvK8kiCalRuUUbtKxdDYXN1LGZu6L2mOu4/kpu/rfgunoAuqYT0WSFpKmLoUyt5mjR7lu0adNGhbb4ruP3+L53H/Tq0wc9R89G951OOBP0BC/OL8DK/Lo46oIRH4ijiGhxVAV11HUnM1RDvVEHceSz4kg5KIdmYV6h5Nq0ynTFa2Do/odw0xzuuCgxvm44RiVLroRdBuSsMgVzLgb+g5GjO/DYPRy9laiQUZLYtloDjcefxGlVvh/XtLo4er+Ud5FGy7Dm3kcE9KeIO3JUph/KrrkNZyV4jfm8OFL4n4LD4iaomSUJDOlaIEPHtVj+aw/M6ZQMSdNbIU3zKeh3LjDmOz6RL93x7NAQDKihykm71jSwzFkZVZu0RovWLdGscnF8Y2WutWlbJY4GxRVH3ZU4slbiqGB/tFp1Gx5adqPE0ex0abX3XqxSpkPBKo3Q8Nu2+FazqzZo274zOnVTNqXsqs+gSei76AQOuAX+JXFUY+41OAfJCb3w8NhU9KyTBlmSWsPaqiSqV6+Act9kUnlTgrBgbzRabiSOfiiCLOnkO1N2SFm0Hmo1a4N230q+lN237YCO33dH79690adPF4yaNhPbHP0hH3F49XA/jgyPEkcps+RB219O46yy5xjzVGXpe3gEBqh2l8LuGxQcuhTjJrTD2GrJkMuuKZpP2oy9x3/F/BrFUChlRaRsOg19RlXBsDqqv0ueFrnbLcfyRxF48dYNtye3R88YcbT48+JIibFEGfN/II6iRo7aoNMvF3FJmcj7sv2IOLJIr/oGVdfliqNMfiUoE5sjX4vJmHwhTBs1+1qR+7y+6BIXXEp4UByZAIqjhIm8YyTzkiXIELz8z9GjOLz1xTuXpZjUsSysZAqNmRXMrZMgWRIrWMvULAsLFdRfqySwTpIENlZmME+cCInSFYJN7w2YcPlV9NNXzxhxJO+4ZKrcAmOO+kEW4/oy/iVxFOqsnJBa6JzDoBwza2RrPw/Tz7+GXxxn+6XTLGzpY4WiqZWzYdcYmefZ42CcaXV/Vxy9C70P/0ODMbxxFm36W2JLK1hamMMiSQqYN52INvu88VT33N8+ReS1eRjbriTMEyWCVRIb2Fhbw8ImPRI3m4YO+/wRqBX4bdxcPwg9M6VQ4iUFbJWDO3ijEy49D9C+8xUY6A8/nyd4cv8eHtx1xz15FyLgJULf+sH3tCzlnRGFVH2nzF4G7ZZdwvlY3pu/cuRXYFmLYspBVvlMXB/Nxh/DKXXMpx8zRML/6jKs+y45ilvIyGEV9Fh1E1c/mOGiMh9uj0u/tEcbZU+WhqzIXVmV8ZUX/2DkyAOPj83AuNJ5kFezVz2kR/K0HdFTOZiXYzmYxqgdRuJIPgJbqP5CrHB9HbUYyZdgKnH07j68jozHqFIZkcGiLFJnHIgu3UugdYPESJk+HaoO3YCtj95FC9R3CHt4CMdHFUMTbannpDAUH4Q2Sx1w43kg/P3V+VePwMjUNsiqbDdd0Wro/6mRozx90WrZHTzU0g3B88OzscAuJfKpeMlzlsS3vyih/MAfAZpdBSLAV9nro3vwuO+Ouw884eETjBevjT6MGpcPxFEn1Jh9GY5RL2wpoXAOV5aUQsfSiZU4NYuZIqd9oLZYPzTWxdHjTdg1ohhyplbiKEU15Om9DuuvPsLzgKh8Bfo/g88TT9y/dx933e/Dw9MH/i8jtdGTsAf7cOiH9yNHreafxdlYNu+H17fXYFnTEiiaMj1sqtdCqRJ5UFnZYMoKP6HXoeu4fX83DrYti7oWGZEsaW2UrpYN5UtYIkXaemj04wmcVzYaoXo8txldMMBcptWZI0fD/phyMhiecQYzwty3Y+cAO1RV9pLYthjKTvjYtLo/F0eylHfizDWRveuvWLN1OdaMr6vEow0sM7dA1Wlncc43/L0A/MoQ53j9+vWYOXMmZGTXw8OD7xUnICiOTADFUcJEGo+sDiQdqLxzdO3aNS7zGZeQG/De0wy9qionySo1DKXao8rwBVi28jf89lucsGgCZvcuj4r5lIiyTAdDrvHoutQryqmFF+7KtLpocZSxYjOMOvAExr7f5zGlOFqBxReVQ632vItQztPOXhhdOwUSmZvBIldTNB5xAqd8o2JG8Qjuv/fGgHzKiVR5T12yDb7d/RA3wl9oCzLMtU3+j8QRIp/h3bUFmNilRPQT/uiQLCmKDlqO2TdeGX1oVXlsnjuwolct7Zwxx6bMiMz9f8PP15Tg144LxOOTMzGrWjLkN7NAspwtUXm5G45q+6LxvACHMSMxc9hgTFr4G47eDUOwiv38zCIsz5dJW5DBImU25OyuHOVrRhUV4YBHW+ugd5nUSGrICEP+oejz+w3cVyf+nOvxyn29cv6ToLJy/s1SFUCB6mux+GhQnI+pqhTcxmNNv1zIlViWOS6NAhWXY/Wt0Kin6yKODv9VcRSM0MfOcNi1BVtj2ew6/L7uJM66PIOviv9xJzGuOMqBgnXnYem16Gl+X4KpxJGSPS/v78fBH/KhfvYUsDbkRfacSZE5U1qkSNYSvX+5BKXZoq8jFAGOq7G6ckaUUYI7SdqcqDTuOHbHOPzP8HDbcDRJbaV9Mye9EkcD44qjPqVhSJxS2db3aDbm/ep4uLkOe9snQ7m0qh7TFUUx1V62Gn+wLNIVHjtHYdHoIRg+ZxlWX3qGB597D++j4ugirkapfNVIfRF5cwKWtMuH7MY2b6bEUYn+aCQLMoSpjIeex4V5rVAnlQ0Sm+eCXZORWOpiLMoC4e2wHuNHj8PwwcsxT8W7Fd2wXnrsx2EljmQZdmvb3Kg2/QwOxZrX+wpv/Q5jf7taaCgCLXVyWCmBndwyJwytFmPQ1RAEBzrBY3519CmYSLWL1EimyjaZbVYkLjUag9beibYXZTc7B2FWZQOyKltIkrUGKrU7gT23jW3BGw8PjUP7cmmRXp0rScYW6LjyOlxCZUGGBZhXPfcXiSN9QYb0lbqh+/bHePDCB97HxqJ/ZSvYJsqIlDUHYsSRh6rsomJ+TYgIunz5Mlq1aqUtxlC9enXNt6M4SjhQHJkAiqOEyZUrVzBs2DCUK1dOW5RhxowZePBAZqCTKN4i4uEh2I+wQ/OsyhFKkx0ZBm3DzJiV3uLyBK/O/4TRjTIpEZJUOTD10HTwEVxSfstb5Ro8WPnfEkdRvo+K774Om4eVRm7N6UqOlDk7oef8Xdh8/DiOHz+A47unYkKTklGr7KXIjqK95mLnvXDl5kQt5T0rffQKbH9XHMkYxL0N+KVXdc1RjZr6ZQObFGXQZe5RnFe73zs/Kr+BZ3BsbHO0Uo6cPs3RLHU6VBi1Cb/f1tz5qCMfHYT9xJKol8FMOblK3Nb6AW0WHsSJEydU2IjfBzRCKy2+NVLV7I9Zl5QTr1zJ2Et5q7K2a4qKg5di7bFjOKrK5MiaEZjZLrG29LnBIi+StF+HOZcCPjEt7T1vn53EjdXl0LGYBRIbrFTajVG941KsUGke08pahf0bsXFcCbQuEXVdhtTtUKv3eZx+Jt9gUrz0QNBfFkf/BFWa/xlxpAi7i6f7WmJYI2lf0WVkXhyWhZdi6v6nMSvKiSD0d1iJVaUzoKg6xixtFtQcuhCLDp3CyeNHcXjDKAxtUSQmjczFa2DUrvtw1cpRtQz3VZjRU4kjgyz9XAEla87A7P2ncczZAzfdVT2ur4x+JZPAwqDqIW9nNBq/EXs0uzqGHXM6qX1im4lgyNkenbbcxdXP+SUfFUeXlDjSh1OU9YfdgMPCPuiTIxlSyrePJN+JlTgq3s9oKW/l/B+diallkyCjmWpHKbKh+uBFmH9A8nUYJ7aOw7AWuaPiWtZHpS5ncVLZldTCywd7sL9/NtSUFfhS2MKu9XgMW6Xa2ZmbuP04GCFKtL99fQPXxjRB33SGmI/kJsqQGxmHb8McWTHulQ/CT7TDzy0sYKUvdpKmJNJ334gFVwJiHhxEPFiJI1OyoZISlwZDOnUdXdBuzAZs0dvArlmY0aM8kkkaNnlRsLES8pf9VH8TiIDLCzCrypeJo77q/LKUd57mA7HAWeSw2uu5G+d+yo9KsrBO8kLI3/UPrHWURce/LmSqvHzTqGzZslo9pEyZUvveEUk4UByZAIqjhMnZs2fRvn17pEqVSgs9e/aEi4tL9F4i7xf4nl+KZSXSat/xsclUEE0W2eN4rOkmxijH3WsL1natGPXdH+V0F2s7BSvvvVW39efwXDUUP6kbvqyelr5cY4zY/wS3/pI4OoZDUxshc1rlGKaoi0KjjuLoF4mjW7izbQj6ZkutnLmCyFxgORbaPxdJolCuUcQd3Px9KIanSaatpJcokQ1SZMiGLDlyIEcOO+TIlhbpklrD3DoTDM3G4/vdD+CvvIl38IPnzomYltoadipeqoIV0XvTLTj+ZXGkIjw/hF3DmqCySsdSK7ucsEn/I8ZudsejWD60+uetF9w39cPPFQzIJAtkqOPNU2VDi+n7cOjpe0fpXfgDBJ+egEGNCsKQSDmq1qmRJIO6Hu26siBTCmslFlV8uxaoOP4IzvnJh1xfwvf0AvyaJyNKaflQwSIlbNJlhZ2Kl1OF7JlTIX1S5XAnMsA6b3XUmHMR+z63VLPOG2+E3FiMxW3KoLhBRoWsYWVji4xafqKDXRZkSZMYSZWINlgnR65vZ2H8oWB4y3JyQtgDBMoUxBrWMCS1haH5bHQ//m+LozM4NbkVGhiUyDRkQ75ac7DY8S+Ko8MdMLORctLkO0cl+6D0725wiiuObv2K/SMMKJ9eHZOhAgwj9uPXuA3kXQDe3lqCOb1Kv195LUs1pPrhKNbeehU9aiREIuTuXuzrWwANlNhKlCgxkqXPjCy5ciFnzhzIlSMjbNOodpQ4Ko0MhapgwObbUH6yQkaONmD+gKqw0FY5k2mz6ZEhT1Hk6L4QA4474/715djRvTK+kW8GKZGSJE0WZIuuw6zpkyGFFq8KitT7HevuBCFA1zkfQ8TRxamY3z6jtpqiIUsHVJ15EQ4Bxi77G7y+uQUHRldGqaxRq9GJ/RiK9EG9BY4xH4GN9DyMc1PzonmRqIcMVqlskcFO8pUdObKmRipZSl0J80xNJmLknkB4vY6qg7CH+3F4eAE0lg/wqniJkqVD6swlUajUMIzb5Ap5HvTunRKc+7tpC2ukj253SbIVRZul9jghw9CRqtwcJ2B+1+yw0fJngEWuKqgx9yL2exm1jzc34Xl4NEaWyaH6DbGpZEimyi+r3gaypUf6lPLwwAy2dQeg7xZvuGmLbPgg8OI8TK2QAxmV8LS0aIUO8y7goqqz2OLohsrG9+itzi8PW3I07os5Dm/xWHZHuiP46Eh0ra7ajiGVus4f0Ge+K2TF+C9owfGGly9fag+BevTogaJFi6JBgwaa8CQJB4ojE0BxlDC5f/++NlpUpkwZlC9fHgsWLICXl1f03oSOchpCneC4qgdqRTsCiVLXQb8NLnD5pKOjdrx0hv2UpmgrT2DFQSj6Herueojrrz3hvbI/hqltVipYFKqOAbu94PrFa2GotJ8dxB/jqsFGeypbEVkHHcABzy+ZE6Kcmw298H0KJRAMWZTIW4jZZ54ZraQXjjD3y3CePwW/dMqFqlmj824ckudDga6zMOSP2zgRM+XuCR5sGo1xar84IYYsRdFpjSuu/OWZmerawt1wbVFH9LWNKh+DIZ9yoldg1nFfkZxxiEDo1bnY2CMlMmnOrbkSMC3Qf5VyElV5vndylNcUeBNndvyMXg3yRQmhWEE5mfnbov7kQ9jpIkuFC/54enQm5qa11lYVNFiaI1/D2qhRtEDsaXwS8tZG3XGbsMn5Ob5Io8qz85ePcOfgKizrWguNVD2ax01TDylyo3LPqZhx/AacXmgxowi9C/8/eqL/N3KcciBrT8F3h30R/K+JI1WgISdwbEw9VNHylgK25aZi7pXopcW/hAg/PN3XHBOrRV9b7s7Iu+wmrvrHFkevXOdj9wADCsvHPy2LwDBgN+Z/0ECUGxxsjz9+bIbSelkVqotam+7iXKxpYMqqgh/gof0kLGySX4nR6GOjg03RpmjZYyAGNc+PAjKalTQXsv90EKseiDoSu3GF/equaK/KOZlx3GJ9UXqLBzwDHuPpqRX4tV256BHGuKEOyrdZjxX7nsD7c8JIUOXz5tw4zGgm3x9ScZM2R8mJ53DJP85Y5Jv78D45GkPzJUMG/Tx2nVFp5iU46/NOI57ihdtK7J5UFo0L6HkxCokzIler0Ri7z0WzK72tRLy4ift/DMa46pnfp62FOmgxQwmQ6OPeeSzEllE534/Ypm+AoZvdcEvbqcrtyXZsH1Yl5ltuiXJVQKf1d3Al1rt14Qj3uYkrG5ZibrdKqJ/N+Hx6SIZiLYdizK7LuPBcXyzkEfzOTsWYIqlhrR1TD82nn8U5ZSKxxZETrvzYGp2i00pVtSN+PvMSD7SLVQf7XcaeGZVQQxOCGZC58UIsdH2J53829BvPkMUY7O3ttRGjw4cPayvWkYQDxZEJoDhKmMj84xs3bmDhwoVYvXo1PD2jvuRBBHUnDbqKq1tGo2ndyihZqjpqN5+HZWeeqFv05/DH42NTsbJLKdT9piRKth6LZrtv4VrYI7w4uAjLKpRGvVKlUKfrUCw85wuPL74hK+83UDkKq4eiQe0qKFV9IL5ddAmXfMSZ+zOUM3dsHmY0rokKpdqgQetd2Ho9MFoMGPMSwQ7jsXF0SdSuWAIlSrwPtQfMwiz7YDyOld/neHpiJVbXrIzG6ppqtOmOaYc9cPuLhEJcQvHswiJsHFAKzcuXQqkqXVF9wmHsvv2JYbqnp+C4tjvaNyqDUqVao3r9zVgnH56M3h2LV0oc7p2C9k2ro6TRNZWo0RU1Jh7F3rvGQ12B8HPYjG3N6qKVuqZa6sYy8dBB7Fm5AgvLlkUzLW5JlChfBS0nb8M6NyAsto//BYQiyHkbdresj04ljfITE0qied9xWH3tpbaSWCxePUbwhblY0LeyKqN6KDV8PSYroRKme7kmR1X4y2u4umokBpcpjzKlGqNVvw3YfjvUaArbn/AmCP4Xx2Hd0FKoXlnVbcfp6LTvIe5oq7G9J9xjB84t/AZd66hj6nbDNwvPYcdHG8gj3N84E/NV/dRWoWG/8fjNMQRPPioQH+Le75MxTx1XN7qsy1ZvgBHrLsPR0wdeRydhSucyKFmtJYpPPoAVbu+NN+L+JpxdVBadG6h2LHFLVkCJgYsx4JQ/fDXB4wNf+5VY0LIu6seqv9aoVmcDVp/RR2f/BFU+kS6rsXlsfZSvWBGlGo5Dr3UuuBUUV1W9xiuv4zjesy36q+spVaoCSn03HQOVOLkXGtsAXrstxYHppdCypnG+SqBapxEYc8gbtz4Y3VX9SPAlnPvlBwxQaVdQ11uyRDVUqDEO03ZEix8hVNnC1p+0PrFUqRqo2/IXrDj3FFGP1FR9vrkJl42TMKpCGZSXMu88CAvP+Gjv433IWwRdX4c9o8rjuyqx81n3u96Yf9Ib92MVwTO8uK7KtVtT1C9VFhUrjMS4TTfgotJ+f5iUwz3cXjEB09T5a6jQZMg0rHF+hacx9hGOEMep2DSiJOpWKo4KvX/BHHtlP3F1eDxEX75bvmUUGvqXh/DJVwTFkQmgOEq4yEp18lFYf/8vdnUSCHKjf4EXT+/C0dkRlx2c4eziDe8X4eJGfIa3iAh6hGfuDrh+1QGXb9zHNZ9gBEW+QqT/YzxxvIrrDg5wdrsLrxcRePXFjrXkJwhBKj/Xna/BwckdNx+r/2O+tPk5XuF1wCN43nCCo4Mrrrs+x7OQN+9HI4yJ8ELgI5X3aw7a19X1cOP+Uzz94MIjEB7gjadO13BDHePkehue/q/+tqMeGeoNv/sOcHVU53S6DadHAfB79YkhkTfBCPN1xy2Xqyp/t+B0PQC+wZGaa/Qhb/Au5AluuzrHuiaH6+64/jgMIbEivUFE8DM8c3GGizrmupsbHoeFIljdaHwdHXFTj3vNCTefvID/J7L3p0QGIfimC+7o6cUJN+95wf9jIw5vX6uoj+B1R9nAtetwuOeDh8Fv8PaL7eivohJ+G4Jg7/u4e9URVx1uwNVdiYKwSKOn9X/CuzfKdB/A566yEbGrW5645afsJE7ZvXvlixdeV+HmrI5xvo2rXi/g+9EGEoEIXy/4qHKStuRy9yGeK4X6seISIp8/1o4VG5WydbzuAs/AiCj7D1Nt8s5VXHF0wYX7vnhkPD/xjR9eP3PEHZfoermqytz9MdwDlY1EH4JwP/jcUg56dNpR4RacbwRANYUvQ5XPu9CnePbgOhyVjTnceIA7PqGqfD5y7cruQ9xv4b52HnXsTU+4PwvDy7jHRvoi1NsBt64b50v1O3ce4pHymT9utq8R+tRDS/uadrwTrjl7wNM37P2iIe9eIdTvEVyuq7JQfeJ1V9X+g1Q/EL1b+pqXvo/w8NpV1ddI+7mLJ2p/9Oy9D4kMQLDnNbg5xc7njdv34PNB+YXjTYgPnt52UfWu0ne8jwfPQhGq0o6d/EuEeat8q3ScJK27nniqGrk+M1XjternHl7BDacLuHzLAw9UY/tUVxOfEEHk5OSkOcPiy8nHnknChOLIBFAcEXmBUz4Mu3btWm1uMr+LQAghhMQfZPbH+PHjtdXpGjZsiDlz5sDNzY2r1CVAKI5MAMURkSeWffr0Qfbs2dGyZUtcvXqVAokQQgiJJ9y5cwft2rXTvmNmY2ODzp07awsvvXnzqXFV8rVCcWQCKI7IgQMHUKFCBe0F1mzZsmHu3Ll49Ojzb9cQQggh5L+BTJGfN28eihQpgty5c2sjRz4+PpqPRxIWFEcmgOKInDlzBl27dtW+eSSNacOGDXj+/Hn0XkIIIYT815FvFcpHnmWhpVu3YpbSIAkMiiMTQHFEZJnPI0eOaMt+nj9/HiEhIYiIiOBcZUIIIeQ/ikx/9/b21hZfkFXq5H95h1i+dcQRo4QLxZEJoDgiIoSCgoK0BqQLInd3d23lG+loCSGEEPLfQkaKpk+frs38mD9/Pm7fvh29hyRkKI5MAMURMUaeOF27dg0TJkxAv379sGbNGu2DsRxFIoQQQv4byEPNffv2oXDhwtr7wiVLlsSePXs4YkQojkwBxRExxsvLS3ups2jRokiWLBkqV66MLVu2aB0xIYQQQv7/ke8arVu3TvPdRByVLl1aE0vyMViSsKE4MgEUR8QYWYhh2bJlsLOz0zrcunXrau8jscMlhBBC/hvIbI4rV65g6tSp6NWrFyZPnoybN29G7yUJGYojE0BxRIwREXTjxg0MHjwYbdq0wcaNG7WGJgQGBiIsLOZ76YQQQgj5HyEPL+VdYBFFvr6+2jeMZEEGFxcX3L17V5sWTwjFkQmgOCJxkUUY5MVOEUnSqMRGZDWcrVu34vDhw9qqOIQQQgj53yCryG7atElzeNu2bYvdu3dH74kaRZL7NCECxZEJoDgif8bDhw/x66+/ol69emjQoIH2cTn5GjchhBBC/l3ET5OHlR07dtSmu0sYMmQIPD09o48g5D0URyaA4oj8GTKE37NnTyRPnlzrlGvUqIFTp05F7yWEEEKIKZEp7vLdIv193wsXLmgjRmnSpEGmTJkwcuRIuLq6ciVZ8gEURyaA4oj8GfKR2JkzZyJ37txInz49+vfvH/PiJ4fyCSGEENMin9A4d+4c7t27p91nZWr7ypUrMXDgQO1TG/KA8sWLF1wsiXwAxZEJoDgif4Y8mZJvH82ePVv74Nz58+e1+c/ycujRo0fx+++/Y//+/doH6cLDw6NjEUIIIeSvIO/0Xrx4EePGjUO7du0wZswYODg4aIsvyKc2ZEEGudfKqBIhH4PiyARQHJEvQb5zJA0sKCgoZrTo9OnTaNWqFbJly6a9iyQviHKxBkIIIeTLkPupCB0J8iDy2bNnWLJkifatQZnGni9fPu3zGvq3BjlSRP4MiiMTQHFE/i6//fabNv9ZOvD8+fNry37LUt/SyctUPAl8ukUIIYR8iCy9LYsbyQyMY8eO4dGjR9o9VP6vUqWKdm8tVqwYNmzYoI0cEfIlUByZAIoj8neQp1eyrHfr1q3xzTffaKvoyFQAefIlQ/8LFy7Ezz//jFWrVmmr7OgiSfbrT8mks9dHoQghhJCvDf2eJ7Mq5B0hET9y/5RPZly6dEn7eGvLli217woeOnRIiyPfFFy+fDl69OiB+fPn49atW7xXki+G4sgEUByRv4t08rJazubNm7F3716t85dOX0RSpUqVkCRJEm1ESTp5uSnITULmSp84cQLHjx/XvqWkf7ROpgzIe0wybU/+yrtLkpbYp35jkSA3FP0mIelJHozj6Eh6crzsk2OM4+jnkf36eSTo55F9oaGhWhp6HiSfss84b4IIPDnWOI6OpCfbJRh/nE/i6OeR9PQ4ch65Pj2O5FuOlXMZX6tx3gT5rV+THCPH6hinJ/nRkWvQt0t6+lNJiSt5le2SR/kt2+Rcch79WvW8CbJP0tOvSeLo5S1/9XxLMC4f47zp5xGMy1TSlHxLOvp55FqN8ybIPuP05LdePnKMXj7y1zjfxnmTOHq+jctU/up1Lvs/ZY/y17jsJI6OpCfbZJ9cm3GcuNcq55FgXKZyjKSh50HOK/v0OHp6cm36NUm+jctb0pPtEiSfkpYgcfTzGMeR/fp5ZJ9e57Ld2E709PQ8GJedsZ0Ikp4ex9ge5Ri9HOSvHkfSNC5T+a3boxyjX6teDvo1GZedcd5kv3Gdx60j43zrtiV/jc+j17mkJXH0fOt2Isg+47KT33reJD3jOjcuH922ZF/cMjU+j7GdyG89358ru7jlrZ9H4hiXj15Hehw9319ij7LvU2UneZQ4Osb2KMfo54mbb+MyNS4fiSPXIdvlPBJH32dcdnKMXnbG5SNIerJdglyDjnEc43wb502C/JZzSx4+dh7ZLv/LA8I//vhD+1ag3B8lTRFA69evR/ny5WFlZaWtQLd69WrtPIK/v7+2VLc4tsZ5JuTPoDgyAdLYKY7IP0E6eb3xyY1CFmeQedIyJcDc3BwrVqzQbjxyM1u7di2aNGmCRo0aafOqpRGLDdrb22uNuXv37hg/frwmoOQGIjeInTt34ocffsDQoUOxbds2+Pj4aOeSG8fSpUu1OLKsqfHy4vJETlbVk33z5s3T0hHkm02y0o9sl+9EHDlyRLv5Sv7E/uUc8rRuxowZuHr1qrZdpgfKohOyStCPP/6ojZiJ2BNk1T45VtKbNGkSHB0dte3CgQMHtO0S5Lr1m7W8UCvnlu1jx47VbpaClKF85E/aY58+fbBo0SJNQMoN3N3dXRuN69evHyZOnKiVl+4ASHxJR9KTp4zypXRB9snNV8+D3Jx1ZAqHvl1WItRXH5RRP5nfLmUg1yvXLdskD3Jt06ZN0/In37q6fv26dtOWMpIykTqS9OQGr9eRXNMvv/yibZd4shytjjgKeh7kO1oypURwc3PDrFmztO3Dhg3T6l/sRBwOqWO5VqlbEd2ykpM4IGKDkp6cQ8pIbghib4IIchnFlPSk/qRMBUlPtx8JUvaSX0lP7EdeiJbt8kK0THMRx0v2y4MAydfgwYO1OPKFekHsRPKk51vKWEfKbtCgQdo+KW95r0CQOFOmTNG2S3lL25HyFJuUc0o6sk+OkTxJncv51q1bp6U3YsQILY7e/uTapG4kjlyzLMOvI+nJdgmy6pXUqSBf1x8+fLi2ffTo0doKWVIGYuPS3qSse/furdmWPAyReLKSltiJlHevXr00+5Yv9gvy8rhe3pIXqU+dLVu2xORh165d0Vuj8iCLvch2uVZpI4Jcq0zflU8JSD7kt7RhyYOzs7OWvuyTstuzZ4/WZ4jdy8MXKRtJT/ofWelLkP2LFy/Wtku8M2fOaNsFaVNS17JPbFbsRpC2N3fuXG279A9iZ3KtYl+yOI20R9mn90G6kyw2KHmWtixxxH4EaU8yWiBxpH7l2gXpO6UPkr5B8iZtTxa9EcR+9PNIHckIg9SPBOlnxK5lnxwji+cIkkdpi5KWpClx9D5InHW9vUp56+UjjrzUkdT3gAEDtLYn1yni4OTJkzFlKn2dXLvYo7R1uT4pG9kn/a3eB4mdiN3Idilb4/Yv76xK3mSftEOpG8G4Hcn55F4g+Zb9YjNS12Jzeh8ktuDh4aHZtJS3pCkzFp4+faqlJ7akl7f01Xp5C3J9sl2CXIOOjNTIAkSyXe4Xci8QpN1Kvcj5pZ+RfMo1Sh4kXcmTbBdbljqT7WKvYk/yXm6FChW0cpB+S8pO7EWmz8mDxGrVqmk2rItBQv4uFEcmQDoducFRHBFTII6BOHFys5bOvkOHDjEOmjRQcQZENEno2rWrdiOUOCKUUqRIoW2X5cLlJiY3d3FQ5Ianx5Ebn9y4hMuXL6N69eradnnyJjczHXGi9DglS5bUbp6C3JwzZswYs0+cOP1pn9y09O0i7sQBle3ibLRo0ULbLjcxEW/i4AgiOGR0TPZlzZpVe+9KR5wYPT2Zfqg//ZORNn176tSptRusIDfRzp07x+yT0TcRHeIUiKMtN1bZnjlzZq28pDwlTYkv6cg+meKoi0Rxtr777ruY9MQB1hGHSN9eqFAh7Nu3T9suN/TatWvH7JPpHuIYiGMn895lOXfZXrx4ca3TFUdeykjKRI/TtGnTmDoSAVu2bNmYfeJQ64jjoW+vWbNmjJ1IP1S4cGFte+LEiTVnQxwQcRRFNOnXWqdOHc3Bkj5MhFW3bt1i0pM+TW4Qgjj7tra22napPylTQdLT7UdCp06dtDoQYSD2kzZtWm17qlSpNKdTnEC5HnEqJV+yT+pLHDRB7EQ+lCzbEyVKpJWxjtiFfh7pa3XBIHFy5MgRs08cbClPsUk5p6Qj23PmzKk5fyICxQmT753IdgsLCy2O5FsQsS/vKMg+uWbjJ9GSnn4ecdR0Z1QWUjEzM9O2J0uWTBPhUgbSNsUJ1OOIbYkwlHgiKoztROxbF50ilPTylrzoU4UEafN6HHG+dSQPefPm1bZLeYiDLsi1yoMUPY78ljYs9rh9+/aYa5UgAkD6DGkTIuLlwYxsr1+/fozYEue2atWqMXHEcdeRNpUyZUptu9is2I0gQqtEiRIxccRu5VrlgYs8wMiSJYu2XfogsU9pE2JbYoN6HLFN3VmXNpY9e3Ztu9iRXLsgTrFxHyR9jggzQdqetHvZLnUkDwikfiSIE5Q0aVJtn+RFBLsg77JIW9TTE7Gv90EiCvTtYlt6+YhIMq4j6XulHYkjL6Je7E22S18nIlP6IGnrxm2vdOnSmqARzp49q9mNbJd2ZNz+RXDqcaQd6uJa2oS0bdku5xOhIfmWuhOb0ePofZDYowjbhg0bxuyTB3Ai5AXpb2XRINku/boIEB3pW/Q4Uq86IjiLFCmibZf7hdwLBGm30ifqcSSfco2SB0lXt0epX2l70pbl3iP3Pb0/kfi6gJXyExsS25V6E9EkgoqQfwLFkQmgOCKmRJwqcezkia84NnLjlP8FaaDyBE8cJ7lRyg1BjpMbnzzp0x0GcZIWLFigORji9InzJws/6HHkpi+I067f/GVKgtysdWTERL+Ry41X/5K4OOAFChTQtosjJCJMnoyKsyXOrJxD9olzJA6abJenrOI4W1tba86H3Kz1J63iaJcrV06LI6sLicOmI09XZbuELl26xDgm8vRTd8Jy5cqFNWvWaNvFwZe2KA6TOMXiwIqTIeUnIkAcb3H4RDhIeclTY0lT4ks6kl6tWrVinDoRRzICpOdBBIyOsWMiokucakEcff3mL9crzr88oZebv4wiiOMjjrQ4mCIM5UYuZSRloi/OIYJYryMRkboTLdclT111ZORFz0Pz5s01p1EQIVixYkVte7p06bSnx+JgSIcvjoRcq9StrJQoT6+lDxMnUUZSJG9SRiIE9dFCGVnTBazUn+64SXrGzqM84Zc6EBsW+8mTJ4+2XZxHcXrFOZPrEcdU8iUfRZb60kfdxE5EJEgccYSkjHXELsSplX0yjUZ3eiWO7nhLectTailPsUk5p+5QicDXxbq0KXHkxCGWtiRx9FE3ebqvv8itL5KiI+nJdgly09TbpTiC8kBCtosTKSMtUgbSNmU0QG9HYlsidCSeOKNiJ7qoEvvWRwvEGdXLW/Ii4kJHnvrLdgmjRo2K3hqVB92JlvLQBYNcqy7wLS0ttd/ShsUeRajp12pjY6M5A9JnSJsQ0ZMhQwZtn7zLoY8WiAPeuHFjbbsEGbHUkTalC1WxWX1EV4SgPOiR7SLMxW7lWqU/E8GqO9HSB4l9SpsQ2xIblDzLPrFNfTRV2pg49rJd7EiuXZDRGemD9IdE0ufIQwFB2p7+wEDqaOrUqVr9SJA+VcSK7JO8iDMkiKMtbVG2S38jglHvg+RhiN5exbb08hEBp9eRiD3pe6UdieAT0ayLXunr5AGC9EHS1uX69IcW8pFwEQyCCFmxG9ku7ci4/YsYle0SpB1K3QnSJqRty3Y5n4y6SL6l7sRmpJ3IPr0PEnuUB2XywEAv7/bt28c8gJD+Vhct0q8b+znSt8h2CVKvOjLKKg+nZLvcL3SxLu1Wf4Al/YzkU65R8iDpSp6knxN/Si8f/f2hunXrarYtZarnTdqZ2IrUo7R7sQHpzwj5J1AcmQCKI/K/Qm6wMqokTw/lxigjHOLkiA3KzVmcMhEr4qSIoyxPK8UZFOdEhI84HuL86Q1dnA1xoiSOODn6009BnCpxkGSf8ZQWufnLEz3ZLumJoyU3JHlqK3mTbfKEVJ7UytNh2S43bWkbcpOWvMuNWPItiNMuDqikJyJFFwWCOFeyXYLxlBa5wcp5ZLvcQPUnnJJHcSTFqZYgT3dF1En+xCmXTk6mrIiDIeUlTpikKfElHUlPnCgRCoLceEX06HkQh1ZHpj7p2+WJpT6yJg6IOJ1SBnK9ct2yTcpBrk1Eg+RBnAVxvkSAyT4pE6kjSU+cPb2O5JpEGMh2uSb9WgWpSz0P8tRVn2omgljyJNvFTqT+xQ7EfuSJq1yr1K3kU0SqXKfUh4geyZsEEZNyvCCOh17nUn+6UJb9uv1IEFGm24nYj16m4gCLnegiWgSZ5EucRakvuREJYifirEnZyX4pYx0pOxH8kp7Yi14+EkdEj2yX8hZHS8pT6lzOKelIenKMiDDd8ZZ6lfRkOpI+kiKISJK6kfTkmo2ntEl6sl2COMdyDkFGZ+U8sl2cOH0kTBw+aaNS1jJdSGxLjpV4Uu5S/lLWMmIr9i1OoCDn1Mtb8qKXtyB1pOdBd6AFSVfanGyXa9WFllyrTBsUYSf5kN/ShqWMxP4kfdknZScPBaTPkDYhD06kbCQ9qRPd8Zb94izLdoknwl9H2pTUtewTmxW7EaTtSR8i28XGxW7lWqUuxJGXdi/7pA8S+5Q2IbYlNqiXnVy32I8g7UlG1ySOlLs+fU/yLX2Q2JXkTdqeONeC2I+0e4kjdSTHSf1IkH5Gtsk+yYsuvCWP0hYlLelvpI3qfZCILr29Snnr5SPpSV4lz5J3aXtyLSJO5Nr0MpXzyLVLGYgtSxw9PSkrvQ8SOxG7ke1StsbtX/pryZvsk3YodSNIXsS2ZLucT+4Fkm/ZLzYjdS02p/dBYo9iE2LTkmdJU65bfzgi5aGXt9iYXt6CXJ9slyD1qiN9kIh82S62rI+KyrVKvcj5xfb1PkjyIOlKnqSfk3uY2JaUj9iD1J/kScpC6ktvK4T8G1AcmQDpdCiOCCGEEEIIid9QHJkAiiNCCCGEEELiPxRHJoDiiBBCCCGEkPgPxZEJoDgihBBCCCEk/kNxZAIojgghhBBCCIn/UByZAIojQgghhBBC4j8URyaA4ogQQgghhJD4D8WRCaA4IoQQQgghJP5DcWQCKI4IIYQQQgiJ/1AcmQCKI0IIIYQQQuI/FEcmgOKIEEIIIYSQ+A/FkQmgOCKEEEIIIST+Q3FkAiiOCCGEEEIIif9QHJkAiiNCCCGEEELiPxRHJoDiiBBCCCGEkPgPxZEJoDgihBBCCCEk/kNxZAIojgghhBBCCIn/UByZAIojQgghhBBC4j8URyaA4ogQQgghhJD4D8WRCaA4IoQQQgghJP5DcWQCKI4IIYQQQgiJ/1AcmQCKI0IIIYQQQuI/FEcmgOKIEEIIIYSQ+A/FkQmgOCKEEEIIIST+Q3FkAiiOCCGEEEIIif9QHJkAiiNCCCGEEELiPxRHJoDiiBBCCCGEkPgPxZEJoDgihBBCCCEk/kNxZAIojgghhBBCCIn/UByZAIojQgghhBBC4j8URyaA4ogQQgghhJD4D8WRCaA4IoQQQgghJP5DcWQCKI4IIYQQQgiJ/1AcmQCKI0IIIYQQQuI/FEcmgOKIEEIIIYSQ+A/FkQmgOCKEEEIIIST+Q3FkAiiOCCGEEEIIif9QHJkAiiNCCCGEEELiPxRHJoDiiBBCCCGEkPgPxZEJoDgihBBCCCEk/kNxZAIojgghhBBCCIn/UByZAIojQgghhBBC4j8URyaA4ogQQgghhJD4D8WRCaA4IoQQQgghJP5DcWQCKI4IIYQQQgiJ/1AcmQCKI0IIIYQQQuI/FEcmgOKIEEIIIYSQ+A/FkQmgOCKEEEIIIST+Q3FkAiiOCCGEEEIIif9QHJkAiiNCCCGEEELiPxRHJoDiiBBCCCGEkPgPxZEJoDgihBBCCCEk/kNxZAIojgghhBBCCIn/UByZAIojQgghhBBC4j8URyaA4ogQQgghhJD4D8WRCaA4IoQQQgghJP5DcWQCKI4IIYQQQgiJ/1AcmQCKI0IIIYQQQuI/FEcmQMRRnz59ULhwYZw4cSJ6KyGEEEIIISQ+ERoainHjxqFNmzYUR38XXRzly5cPf/zxB968ecPAwMDAwMDAwMDAEM+Cj48PfvzxR4qjf8K7d++0aXXp0qXThuGOHTumTa87cOAAAwMDA8NXFvbv3/9B+Nh+423G243Dx/YZxzHeF3e78b64x3xsW9x9cbcb74t7zMe2GYdP7TOO97FjPrbtS7Ybh4/tN972ue3G+/5uvE9t/7vxPrX9z/Z/6XbjfX8n3qd+6/9/7Lf+f9zwsWM/99v4f+NtcfcZ//9nv/X/424z3vep33GDvi/usXG36/s+9ts4/JV4cX/r/3/st/7/lxz7ud/G/39sv/Fv/f8v+a2HT+3/1G/9/4/91v/Xtxn/1v+Xv4cPH8bmzZvRsWNHtG3bFrt27aI4+rtMmjQJefLkQYsWLTBmzBgMHz4cw4YNY2BgYGBgYGBgYGCIB2HUqFEYMGAAmjZtiu7du2P37t3aO0j/df6T4mjfvn3o378/Bg4cqImj0aNHMzAwMDAwMDAwMDDEkyAzwEQgDR06FNOmTdNGknx9faO9/f8u/0lx9OTJE1y6dAmnTp2KCadPn2ZgYGBgYGBgYGBgiAdB99/PnDkDBwcHPHjwQFug4b/Of1IcEUIIIYQQQsj/GoojQgghhBBCCFFQHBFCCCGEEEKIguKIEEIIIYQQQhQUR4QQQgghhBCioDgihBBCCCGEEAXFESGEEEIIIYQoKI4IIYQQQgghREFxRAghhBBCCCEKiiNCCCGEEEIIUVAcEUIIIYQQQoiC4ogQQgghhBBCFBRHhBBCCCGEEKKgOCKEEEIIIYQQBcURIYQQQgghhCgojgghhBBCCCFEQXFECCGEEEIIIQqKI0IIIYQQQghRUBwRQgghhBBCiILiiBBCCCGEEEIUFEeEEEIIIYQQoqA4IoQQQgghhBAFxREhhBBCCCGEKCiOCCGEEEIIIURBcUQIIYQQQgghCoojQgghhBBCCFFQHBFCCCGEEEKIguKIEEIIIYQQQhQUR4QQQgghhBCioDgihBBCCCGEEAXFESGEEEIIIYQoKI4IIYQQQgghREFxRAghhBBCCCEKiiNCCCGEEEIIUVAcEUIIIYQQQoiC4ogQQgghhBBCFBRHhBBCCCGEEALg/wDG/a+KOpYA5AAAAABJRU5ErkJggg==;" parent="1" vertex="1">
          <mxGeometry x="270" y="160" width="839" height="953" as="geometry" />
        </mxCell>
        <mxCell id="gJPRVUOe0gSRwMYvaWkU-3" value="" style="aspect=fixed;html=1;points=[];align=center;image;fontSize=12;image=img/lib/azure2/general/Browser.svg;" parent="1" vertex="1">
          <mxGeometry x="550" y="-600" width="75" height="60" as="geometry" />
        </mxCell>
        <mxCell id="gJPRVUOe0gSRwMYvaWkU-4" value="" style="outlineConnect=0;dashed=0;verticalLabelPosition=bottom;verticalAlign=top;align=center;html=1;shape=mxgraph.aws3.internet_3;fillColor=#D2D3D3;gradientColor=none;" parent="1" vertex="1">
          <mxGeometry x="555.25" y="-516" width="79.5" height="50" as="geometry" />
        </mxCell>
        <mxCell id="gJPRVUOe0gSRwMYvaWkU-6" value="" style="image;html=1;image=img/lib/clip_art/networking/Firewall_02_128x128.png" parent="1" vertex="1">
          <mxGeometry x="312" y="-374" width="50" height="80" as="geometry" />
        </mxCell>
        <mxCell id="gJPRVUOe0gSRwMYvaWkU-8" value="" style="rounded=1;arcSize=10;dashed=1;fillColor=#d5e8d4;dashPattern=8 3 1 3;strokeWidth=1;strokeColor=#82b366;" parent="1" vertex="1">
          <mxGeometry x="353" y="-310" width="520" height="163" as="geometry" />
        </mxCell>
        <mxCell id="gJPRVUOe0gSRwMYvaWkU-11" value="Oracle" style="shape=cylinder3;whiteSpace=wrap;html=1;boundedLbl=1;backgroundOutline=1;size=15;strokeWidth=1;fillColor=#f8cecc;strokeColor=#b85450;" parent="1" vertex="1">
          <mxGeometry x="562" y="-127" width="60" height="63" as="geometry" />
        </mxCell>
        <mxCell id="gJPRVUOe0gSRwMYvaWkU-12" value="&lt;b&gt;Private Network&lt;/b&gt;" style="text;html=1;strokeColor=none;fillColor=none;align=center;verticalAlign=middle;whiteSpace=wrap;rounded=0;" parent="1" vertex="1">
          <mxGeometry x="725" y="-25" width="120" height="30" as="geometry" />
        </mxCell>
        <mxCell id="gJPRVUOe0gSRwMYvaWkU-19" value="OTPA UI Backend Primary" style="text;html=1;strokeColor=none;fillColor=none;align=center;verticalAlign=middle;whiteSpace=wrap;rounded=0;" parent="1" vertex="1">
          <mxGeometry x="372.25" y="-178" width="133.5" height="30" as="geometry" />
        </mxCell>
        <mxCell id="gJPRVUOe0gSRwMYvaWkU-20" value="Database" style="text;html=1;strokeColor=none;fillColor=none;align=center;verticalAlign=middle;whiteSpace=wrap;rounded=0;" parent="1" vertex="1">
          <mxGeometry x="535" y="-64" width="120" height="30" as="geometry" />
        </mxCell>
        <mxCell id="gJPRVUOe0gSRwMYvaWkU-21" value="&lt;b&gt;Firewall - Security Group&lt;/b&gt;" style="text;html=1;strokeColor=none;fillColor=none;align=center;verticalAlign=middle;whiteSpace=wrap;rounded=0;" parent="1" vertex="1">
          <mxGeometry x="344" y="-340" width="190" height="30" as="geometry" />
        </mxCell>
        <mxCell id="gJPRVUOe0gSRwMYvaWkU-22" value="" style="endArrow=classic;html=1;rounded=0;" parent="1" source="gJPRVUOe0gSRwMYvaWkU-3" edge="1">
          <mxGeometry width="50" height="50" relative="1" as="geometry">
            <mxPoint x="620" y="-280" as="sourcePoint" />
            <mxPoint x="588" y="-515" as="targetPoint" />
          </mxGeometry>
        </mxCell>
        <mxCell id="gJPRVUOe0gSRwMYvaWkU-23" value="" style="endArrow=classic;html=1;rounded=0;" parent="1" edge="1">
          <mxGeometry width="50" height="50" relative="1" as="geometry">
            <mxPoint x="590" y="-465" as="sourcePoint" />
            <mxPoint x="590" y="-438" as="targetPoint" />
          </mxGeometry>
        </mxCell>
        <mxCell id="gJPRVUOe0gSRwMYvaWkU-24" value="User Browser" style="text;html=1;strokeColor=none;fillColor=none;align=center;verticalAlign=middle;whiteSpace=wrap;rounded=0;" parent="1" vertex="1">
          <mxGeometry x="443" y="-580" width="97" height="30" as="geometry" />
        </mxCell>
        <mxCell id="gJPRVUOe0gSRwMYvaWkU-25" value="Internet" style="text;html=1;strokeColor=none;fillColor=none;align=center;verticalAlign=middle;whiteSpace=wrap;rounded=0;" parent="1" vertex="1">
          <mxGeometry x="644" y="-506" width="93" height="30" as="geometry" />
        </mxCell>
        <mxCell id="gJPRVUOe0gSRwMYvaWkU-27" value="&lt;b&gt;VM(Linux)&lt;/b&gt;" style="text;html=1;strokeColor=none;fillColor=none;align=center;verticalAlign=middle;whiteSpace=wrap;rounded=0;" parent="1" vertex="1">
          <mxGeometry x="509" y="-303" width="192" height="30" as="geometry" />
        </mxCell>
        <mxCell id="x5AFQbBCbiZZIcITxB0g-1" value="" style="fontColor=#0066CC;verticalAlign=top;verticalLabelPosition=bottom;labelPosition=center;align=center;html=1;outlineConnect=0;fillColor=#CCCCCC;strokeColor=#6881B3;gradientColor=none;gradientDirection=north;strokeWidth=2;shape=mxgraph.networks.server;" vertex="1" parent="1">
          <mxGeometry x="547" y="-437" width="90" height="65" as="geometry" />
        </mxCell>
        <mxCell id="x5AFQbBCbiZZIcITxB0g-2" value="Nginx (load balancer)" style="text;html=1;align=center;verticalAlign=middle;resizable=0;points=[];autosize=1;strokeColor=none;fillColor=none;" vertex="1" parent="1">
          <mxGeometry x="635" y="-426" width="132" height="26" as="geometry" />
        </mxCell>
        <mxCell id="x5AFQbBCbiZZIcITxB0g-3" value="" style="fontColor=#0066CC;verticalAlign=top;verticalLabelPosition=bottom;labelPosition=center;align=center;html=1;outlineConnect=0;fillColor=#CCCCCC;strokeColor=#6881B3;gradientColor=none;gradientDirection=north;strokeWidth=2;shape=mxgraph.networks.server;" vertex="1" parent="1">
          <mxGeometry x="404" y="-254" width="90" height="65" as="geometry" />
        </mxCell>
        <mxCell id="x5AFQbBCbiZZIcITxB0g-4" value="" style="fontColor=#0066CC;verticalAlign=top;verticalLabelPosition=bottom;labelPosition=center;align=center;html=1;outlineConnect=0;fillColor=#CCCCCC;strokeColor=#6881B3;gradientColor=none;gradientDirection=north;strokeWidth=2;shape=mxgraph.networks.server;" vertex="1" parent="1">
          <mxGeometry x="722" y="-254" width="90" height="65" as="geometry" />
        </mxCell>
        <mxCell id="x5AFQbBCbiZZIcITxB0g-5" value="OTPA UI Backend Replica" style="text;html=1;strokeColor=none;fillColor=none;align=center;verticalAlign=middle;whiteSpace=wrap;rounded=0;" vertex="1" parent="1">
          <mxGeometry x="729" y="-178" width="108" height="30" as="geometry" />
        </mxCell>
        <mxCell id="x5AFQbBCbiZZIcITxB0g-9" value="" style="endArrow=classic;html=1;rounded=0;exitX=0;exitY=1;exitDx=0;exitDy=0;exitPerimeter=0;" edge="1" parent="1" source="x5AFQbBCbiZZIcITxB0g-1" target="x5AFQbBCbiZZIcITxB0g-3">
          <mxGeometry width="50" height="50" relative="1" as="geometry">
            <mxPoint x="635" y="-247" as="sourcePoint" />
            <mxPoint x="685" y="-297" as="targetPoint" />
          </mxGeometry>
        </mxCell>
        <mxCell id="x5AFQbBCbiZZIcITxB0g-10" value="" style="endArrow=classic;html=1;rounded=0;exitX=1;exitY=1;exitDx=0;exitDy=0;exitPerimeter=0;" edge="1" parent="1" source="x5AFQbBCbiZZIcITxB0g-1" target="x5AFQbBCbiZZIcITxB0g-4">
          <mxGeometry width="50" height="50" relative="1" as="geometry">
            <mxPoint x="602" y="-362" as="sourcePoint" />
            <mxPoint x="731" y="-252" as="targetPoint" />
          </mxGeometry>
        </mxCell>
        <mxCell id="x5AFQbBCbiZZIcITxB0g-11" value="" style="endArrow=classic;html=1;rounded=0;" edge="1" parent="1" source="x5AFQbBCbiZZIcITxB0g-3" target="gJPRVUOe0gSRwMYvaWkU-11">
          <mxGeometry width="50" height="50" relative="1" as="geometry">
            <mxPoint x="635" y="-147" as="sourcePoint" />
            <mxPoint x="685" y="-197" as="targetPoint" />
          </mxGeometry>
        </mxCell>
        <mxCell id="x5AFQbBCbiZZIcITxB0g-12" value="" style="endArrow=classic;html=1;rounded=0;entryX=0.994;entryY=0.143;entryDx=0;entryDy=0;entryPerimeter=0;exitX=0;exitY=1;exitDx=0;exitDy=0;exitPerimeter=0;" edge="1" parent="1" source="x5AFQbBCbiZZIcITxB0g-4" target="gJPRVUOe0gSRwMYvaWkU-11">
          <mxGeometry width="50" height="50" relative="1" as="geometry">
            <mxPoint x="502.9351851851852" y="-179" as="sourcePoint" />
            <mxPoint x="575" y="-125.69178082191775" as="targetPoint" />
          </mxGeometry>
        </mxCell>
        <mxCell id="x5AFQbBCbiZZIcITxB0g-13" value="SSL/TSL Secured" style="text;html=1;align=center;verticalAlign=middle;resizable=0;points=[];autosize=1;strokeColor=none;fillColor=none;" vertex="1" parent="1">
          <mxGeometry x="648" y="-374" width="114" height="26" as="geometry" />
        </mxCell>
        <mxCell id="x5AFQbBCbiZZIcITxB0g-14" value="SSL/TSL Secured" style="text;html=1;align=center;verticalAlign=middle;resizable=0;points=[];autosize=1;strokeColor=none;fillColor=none;" vertex="1" parent="1">
          <mxGeometry x="476" y="-463" width="114" height="26" as="geometry" />
        </mxCell>
        <mxCell id="x5AFQbBCbiZZIcITxB0g-15" value="SSL/TSL Secured" style="text;html=1;align=center;verticalAlign=middle;resizable=0;points=[];autosize=1;strokeColor=none;fillColor=none;" vertex="1" parent="1">
          <mxGeometry x="426" y="-374" width="114" height="26" as="geometry" />
        </mxCell>
      </root>
    </mxGraphModel>
  </diagram>
</mxfile>
